<?xml version="1.0" encoding="UTF-8"?>
<svg width="26px" height="26px" viewBox="0 0 26 26" version="1.1" xmlns="http://www.w3.org/2000/svg" xmlns:xlink="http://www.w3.org/1999/xlink">
    <title>disney</title>
    <defs>
        <linearGradient x1="50%" y1="100%" x2="50%" y2="0%" id="linearGradient-1">
            <stop stop-color="#153889" offset="0%"></stop>
            <stop stop-color="#050423" offset="100%"></stop>
        </linearGradient>
        <radialGradient cx="99.0501246%" cy="100.684634%" fx="99.0501246%" fy="100.684634%" r="270.55137%" gradientTransform="translate(0.990501,1.006846),scale(0.353457,1.000000),translate(-0.990501,-1.006846)" id="radialGradient-2">
            <stop stop-color="#FFFFFF" offset="1%"></stop>
            <stop stop-color="#C6FFFF" offset="4%"></stop>
            <stop stop-color="#80FFFF" offset="9%"></stop>
            <stop stop-color="#49FFFF" offset="13%"></stop>
            <stop stop-color="#21FFFF" offset="17%"></stop>
            <stop stop-color="#09FFFF" offset="20%"></stop>
            <stop stop-color="#00FFFF" offset="22%"></stop>
            <stop stop-color="#01F6FF" stop-opacity="0.96" offset="28%"></stop>
            <stop stop-color="#04DEFF" stop-opacity="0.87" offset="39%"></stop>
            <stop stop-color="#08B6FF" stop-opacity="0.71" offset="53%"></stop>
            <stop stop-color="#0E7FFF" stop-opacity="0.5" offset="69%"></stop>
            <stop stop-color="#1639FF" stop-opacity="0.22" offset="87%"></stop>
            <stop stop-color="#1C00FF" stop-opacity="0" offset="100%"></stop>
        </radialGradient>
    </defs>
    <g id="Exploration" stroke="none" stroke-width="1" fill="none" fill-rule="evenodd">
        <g id="01-orc-page-rc-promotion-mobile" transform="translate(-115.000000, -434.000000)">
            <g id="Group-4" transform="translate(20.000000, 344.000000)">
                <g id="Group-41" transform="translate(96.000000, 88.000000)">
                    <g id="disney" transform="translate(0.000000, 3.000000)">
                        <rect id="Rectangle-Copy-9" stroke="#F9E8D0" fill="url(#linearGradient-1)" x="0" y="0" width="24" height="24" rx="12"></rect>
                        <g id="Asset-1" transform="translate(4.000000, 5.000000)" fill-rule="nonzero">
                            <path d="M2.04468485,11.9279092 L2.04468485,10.380077 C2.04468485,9.76826892 1.80208843,9.49070002 1.31729069,9.49070002 C0.832492944,9.49070002 0.548015052,9.83072192 0.548015052,10.3854742 L0.548015052,11.9275237 L0,11.9275237 L0,7.85497106 L0.00553151458,7.85497106 C0.305136899,7.85497106 0.548015052,8.09195053 0.548015052,8.38427953 L0.548015052,9.38275656 L0.558682973,9.38275656 C0.732530574,9.13063147 1.01187206,9.00225585 1.37537159,9.00225585 C2.0711571,9.00225585 2.59269991,9.4340297 2.59269991,10.2158488 L2.59269991,11.9279092 L2.04468485,11.9279092 Z" id="Path" fill="#FFFFFF"></path>
                            <path d="M4.61920978,11.9996145 C3.76933208,11.9915187 3.06366886,11.3056922 3.08342427,10.4756841 C3.10357479,9.62755691 3.79698965,9.00225585 4.67966134,9.00225585 C5.48568203,9.00225585 6.24468485,9.61907564 6.23401693,10.5242587 C6.22334901,11.2898862 5.5615428,12.0092523 4.61920978,11.9996145 Z M4.65318909,9.49070002 C4.10517404,9.49070002 3.63104421,9.94329154 3.63104421,10.4984293 C3.63104421,11.0381467 4.08936971,11.5115695 4.64252117,11.5115695 C5.21445541,11.5144302 5.68048781,11.0643763 5.68344771,10.5063323 C5.68637954,9.94828842 5.22512333,9.49357434 4.65318909,9.49070002 L4.65318909,9.49070002 Z" id="Shape" fill="#FFFFFF"></path>
                            <path d="M6.7875635,11.501147 L6.7875635,9.56780249 L6.55879586,9.56780249 L6.55879586,9.07935833 L6.78637817,9.07935833 L6.78637817,8.12290215 L7.33439323,8.12290215 L7.33439323,9.07935833 L7.81365945,9.07935833 L7.81365945,9.56780249 L7.33557855,9.56780249 L7.33557855,11.9965304 L7.29606773,11.9965304 C7.01553691,11.9965304 6.78799944,11.7748644 6.7875635,11.501147 L6.7875635,11.501147 Z" id="Path" fill="#FFFFFF"></path>
                            <path d="M9.42214487,9.83534807 C9.39606773,9.62948447 9.27476952,9.49070002 9.04797742,9.49070002 C8.83738476,9.49070002 8.70541863,9.62948447 8.70541863,9.79409825 C8.70541863,10.0358145 8.95868297,10.1075198 9.24829727,10.1950311 C9.65920978,10.3183951 10.0385136,10.5601113 10.0385136,11.0898053 C10.0385136,11.6399315 9.62720602,12 9.05825024,12 C8.53117592,12 8.02543744,11.6503403 8.02543744,10.9918852 L8.5738476,10.9918852 C8.60031985,11.3365332 8.77930386,11.5115558 9.06931326,11.5115558 C9.3221825,11.5115558 9.4908937,11.3519537 9.4908937,11.1206463 C9.4908937,10.9251915 9.33798683,10.7968159 8.99542803,10.6888724 C8.27870179,10.4675884 8.15740357,10.1641901 8.15740357,9.84074525 C8.15740357,9.33688059 8.59478833,9.00264137 9.07444967,9.00264137 C9.55411101,9.00264137 9.9543556,9.33186893 9.97015992,9.83573359 L9.42214487,9.83534807 Z" id="Path" fill="#FFFFFF"></path>
                            <path d="M10.6185325,11.501147 L10.6185325,9.56780249 L10.3913452,9.56780249 L10.3913452,9.07935833 L10.6189276,9.07935833 L10.6189276,8.12290215 L11.1669426,8.12290215 L11.1669426,9.07935833 L11.646604,9.07935833 L11.646604,9.56780249 L11.1665475,9.56780249 L11.1665475,11.9965304 L11.1270367,11.9965304 C10.8465059,11.9965304 10.6189684,11.7748644 10.6185325,11.501147 L10.6185325,11.501147 Z" id="Path" fill="#FFFFFF"></path>
                            <path d="M14.349539,11.9279092 L14.349539,11.4857265 L14.3388711,11.4857265 C14.1334149,11.8249774 13.7643838,12 13.3483349,12 C12.4945061,12 11.7991157,11.3723859 11.7991157,10.550088 C11.7991157,9.6398933 12.4680339,9.00225585 13.3269991,9.00225585 C13.754111,9.00225585 14.1124741,9.1564608 14.3388711,9.48029119 L14.349539,9.48029119 L14.349539,9.07935833 L14.8975541,9.07935833 L14.8975541,11.9279092 L14.349539,11.9279092 Z M14.3598119,10.5088382 C14.3598119,9.95331486 13.9488993,9.49070002 13.3428034,9.49070002 C12.7766134,9.49070002 12.3155221,9.97914419 12.3483161,10.565123 C12.3767639,11.0928894 12.8224459,11.5211936 13.3621637,11.5111703 C13.9179103,11.495522 14.3600432,11.0513133 14.3598119,10.5088382 L14.3598119,10.5088382 Z" id="Shape" fill="#FFFFFF"></path>
                            <path d="M15.5352587,11.9279092 L15.5352587,9.07935833 L16.0465287,9.07935833 L16.0465287,9.33649507 L16.0568015,9.33649507 C16.1887676,9.14605197 16.4151646,9.02268801 16.8,9.00225585 L16.8,9.552382 C16.3258702,9.56780249 16.0832738,9.85076857 16.0832738,10.3288039 L16.0832738,11.4645233 C16.0832738,11.7200184 15.8709986,11.9271382 15.6091439,11.9271382 L15.5352587,11.9279092 Z" id="Path" fill="#FFFFFF"></path>
                            <path d="M7.92112888,5.73272549 L7.94048918,5.73542408 C8.0751546,5.74845366 8.20739647,5.77918748 8.33362183,5.82679051 C8.42688688,5.86393848 8.50265578,5.93360739 8.54619003,6.02224528 C8.62395399,6.15920797 8.63863875,6.32189567 8.58660702,6.47001202 C8.5345753,6.61812836 8.4206939,6.73781923 8.27317027,6.7994382 C8.16123013,6.85102074 8.0408641,6.88299127 7.91757291,6.89388873 C7.68589095,6.91624959 7.45235798,6.87625054 7.24233302,6.77823502 C7.12182502,6.72079368 6.97484478,6.621717 6.90056444,6.49449792 C6.84406562,6.39931577 6.84930678,6.28079431 6.91399812,6.19071418 C7.01988711,6.04923114 7.24667921,6.01839015 7.41776105,6.02417284 C7.58350186,6.03428677 7.74742991,6.06353271 7.90611477,6.11129863 C7.96990726,6.13225733 8.03123129,6.15978386 8.08904986,6.19341277 C8.10560848,6.20809074 8.11271591,6.23037068 8.10761994,6.25162513 C8.07917215,6.33605234 7.87055503,6.38038626 7.80852305,6.38925305 C7.64613358,6.41354033 7.56197554,6.35378591 7.37746002,6.28246612 C7.32816946,6.2625778 7.27654417,6.2487224 7.22376294,6.2412163 C7.14,6.23350605 7.0388523,6.25663679 7.02265287,6.34569015 C7.01475071,6.39195163 7.07006585,6.43474351 7.11234243,6.45286259 C7.1993424,6.49089605 7.29358485,6.5106004 7.38891816,6.51068944 C7.67655691,6.51531559 8.00015052,6.46905411 8.235635,6.30636789 C8.27149649,6.28578264 8.29535047,6.24994254 8.30003763,6.20960428 C8.30003763,6.1259481 8.15068674,6.07467496 8.15068674,6.07467496 C7.99264346,6.01029439 7.69907808,5.97868238 7.54814675,5.9667315 C7.39010348,5.95323856 7.14039511,5.93319192 7.08033866,5.92471065 C7.0179772,5.91803215 6.95683477,5.90311778 6.8985889,5.88037673 C6.84025733,5.85426305 6.79602569,5.80522054 6.77689558,5.7454474 C6.75430062,5.63450945 6.77867101,5.51937139 6.84445908,5.42624316 C7.00250235,5.20573009 7.37034807,5.12168839 7.64573848,5.08853433 C7.9124365,5.05615129 8.34310442,5.0565368 8.60466604,5.19223715 C8.64417686,5.21344033 8.66590781,5.23310147 8.65721543,5.27512231 C8.64043055,5.35029582 8.58178958,5.40989663 8.50549389,5.42932726 C8.40420095,5.45140618 8.30103482,5.46431138 8.1973095,5.4678785 C7.88122295,5.48522655 7.50033866,5.47597426 7.19966134,5.55616083 C7.17134878,5.56120318 7.14443121,5.57197135 7.1206397,5.58777284 C7.07362183,5.63750394 7.20795861,5.65176789 7.23680151,5.65755058 C7.24314132,5.65916973 7.24962341,5.66020233 7.25616181,5.66063468 L7.92033866,5.73773715 M6.04515522,4.35991596 C6.04515522,4.35991596 6.09651929,4.28281349 6.13919097,4.22768522 C6.23671124,4.10546579 6.34614083,3.99275491 6.46594544,3.89113292 C6.49873942,3.86376155 6.53706491,3.83292056 6.53706491,3.83292056 C6.53706491,3.83292056 6.47700847,3.83908876 6.44302916,3.84564247 C6.36400753,3.86106296 6.24310442,3.93816543 6.18383819,3.98789653 C6.08585136,4.06962515 5.97838194,4.20262691 6.02579492,4.3205937 C6.03290687,4.33755624 6.0439699,4.35914493 6.0439699,4.35914493 M6.58803387,4.50101349 C6.74080509,4.49098087 6.88932412,4.44763901 7.02265287,4.37417992 C7.15501411,4.30208911 7.34940734,4.16137709 7.32925682,3.99560678 C7.32359392,3.94526631 7.29005397,3.90202733 7.24193791,3.88303716 C7.18306679,3.85797886 7.15224835,3.86183398 7.07678269,3.88303716 C7.03066283,3.89488825 6.98649802,3.91305966 6.94560677,3.9370089 C6.7619298,4.0501609 6.59843935,4.19184056 6.46159925,4.35644635 C6.43473189,4.39075695 6.40746943,4.4296937 6.38613358,4.45629405 C6.37269991,4.47248557 6.36203198,4.48752055 6.36361242,4.49176119 C6.36795861,4.50833822 6.52758231,4.50679617 6.58803387,4.50255553 M6.19292568,4.7851361 C6.17397588,4.81209782 6.15719926,4.84045387 6.14274694,4.86994882 C6.13223669,4.88635302 6.11886462,4.90083553 6.10323612,4.91274069 C6.08794766,4.92717819 6.06733829,4.93499033 6.04607023,4.93440987 C6.02480217,4.93382941 6.00467259,4.92490539 5.99023518,4.90965659 C5.9355859,4.86047884 5.90378043,4.79173304 5.90212606,4.71921348 C5.90389207,4.68888251 5.90323155,4.65846334 5.90015052,4.62823257 C5.89027281,4.58428416 5.84523048,4.53917921 5.82112888,4.49715836 C5.79041666,4.43694988 5.77203037,4.37147634 5.76699906,4.30440218 C5.75712135,4.1305361 5.85076199,3.97054847 5.97285042,3.84448593 C6.10241789,3.71277687 6.25844644,3.60857179 6.43117592,3.53838911 C6.59593603,3.47053893 6.83813735,3.4227354 7.019492,3.48557392 C7.08963328,3.5102513 7.15236895,3.55158929 7.20203198,3.60585377 C7.20911746,3.61607743 7.21747894,3.62540133 7.2269238,3.63361066 C7.24172995,3.63874698 7.25711978,3.64211265 7.27275635,3.64363399 C7.33651287,3.65801322 7.39634624,3.68562548 7.44818438,3.72459158 C7.51142579,3.77246044 7.55501499,3.84083755 7.57106303,3.91734777 C7.60583255,4.07772091 7.51140169,4.25390006 7.40314205,4.3610725 C7.23513255,4.5379897 7.02891707,4.67625382 6.79941675,4.76586048 C6.67754403,4.812881 6.54716669,4.83530684 6.41616181,4.83178309 C6.37941675,4.82908451 6.34188147,4.8194467 6.30632173,4.81713362 C6.27511477,4.81231877 6.24442968,4.80470475 6.21465663,4.79438839 C6.20556914,4.78783468 6.19411101,4.782052 6.19213547,4.78436507 M6.40351834,5.14019299 C6.41294568,5.14199016 6.42219849,5.14456962 6.43117592,5.14790323 C6.51414864,5.17874422 6.54970837,5.25391913 6.56867357,5.33603327 C6.61608655,5.52878945 6.63623706,5.94899793 6.64413923,6.11438273 C6.64967074,6.23851771 6.65283161,6.36072513 6.65836312,6.48331806 C6.66270931,6.58702089 6.67140169,6.72541983 6.64927563,6.82256894 C6.64021258,6.86173867 6.61655554,6.89622502 6.58289746,6.91933255 C6.52651258,6.94206265 6.46442057,6.94770462 6.40470367,6.93552407 C6.28340546,6.91123679 6.24389464,6.83490534 6.22650988,6.71809509 C6.18699906,6.43859863 6.20517404,5.89001453 6.22927563,5.65870712 C6.23757291,5.58160464 6.26681091,5.3371898 6.30829727,5.23464351 C6.32212606,5.1999474 6.35215428,5.13016966 6.40391345,5.14019299 M2.7132079,5.6051209 C2.7132079,5.6051209 2.53264346,5.61745729 2.40818438,5.63095023 C2.19566225,5.65358687 1.98583376,5.69592751 1.7815428,5.75739828 C1.73017874,5.77551736 1.62349953,5.81830923 1.61638758,5.86958238 C1.60927563,5.92085552 1.64088429,5.96518945 1.67881468,6.00836683 C1.70054563,6.03342513 1.8246096,6.14984987 1.85937912,6.17799227 C2.0613709,6.3342668 2.28248157,6.46544645 2.51762935,6.5685163 C2.5923048,6.59858626 2.71518344,6.64176365 2.71518344,6.64176365 C2.71518344,6.64176365 2.70609595,6.29827213 2.70767639,5.96017778 C2.70767639,5.78168556 2.71241769,5.6051209 2.71241769,5.6051209 M6.0246096,5.74159227 C6.02811477,5.83857273 6.02202828,5.93565702 6.00643462,6.03149757 C5.99266044,6.09609594 5.97404022,6.15961949 5.95072437,6.22155517 C5.92081959,6.28856818 5.88745608,6.35406064 5.85076199,6.41778096 C5.77229094,6.5428152 5.67686518,6.65693109 5.56707432,6.75703184 C5.25612418,7.01918025 4.77685795,7.16875905 4.36159925,7.21771912 C4.06232259,7.25239428 3.75944118,7.2438208 3.46272813,7.1922753 C3.36079022,7.17415622 3.20867357,7.14023113 3.20867357,7.14023113 C3.20867357,7.14023113 3.20867357,7.19960004 3.20432738,7.24123537 C3.19884115,7.27038876 3.19036972,7.29893123 3.17904045,7.3264336 C3.15885026,7.36867893 3.11779698,7.39781074 3.0703857,7.40353608 C3.008918,7.41825539 2.94438591,7.41517414 2.88468485,7.39466929 C2.790254,7.35611806 2.75627469,7.26976329 2.74007526,7.1703011 C2.72664158,7.09088555 2.71281279,6.95287212 2.71281279,6.95287212 C2.71281279,6.95287212 2.64208843,6.92010357 2.58321731,6.89157566 C2.40701096,6.80585866 2.23884187,6.7052406 2.0806397,6.59087601 C2.04112888,6.56080605 1.86016933,6.41469686 1.82065851,6.3784587 C1.70848986,6.28140045 1.61204227,6.16831823 1.53460019,6.04306294 C1.47572907,5.94090217 1.45873942,5.85030676 1.50378175,5.74159227 C1.56541863,5.59085694 1.78707432,5.47713079 1.93840075,5.41236471 C2.13325483,5.33573335 2.33460547,5.27587932 2.54015052,5.23348698 C2.60810913,5.22384917 2.71360301,5.20534458 2.72031985,5.20148945 C2.72261993,5.19963057 2.72473643,5.19756547 2.72664158,5.19532125 C2.72980245,5.19108062 2.73533396,5.04111631 2.73454374,4.98675906 C2.73375353,4.93240182 2.77405456,4.58004352 2.78867357,4.50525412 C2.79578551,4.46670288 2.82818438,4.30941384 2.85939793,4.26854953 C2.8821526,4.2436434 2.92095285,4.24058761 2.94750706,4.26161031 C3.11226717,4.36145801 3.16244591,4.70919016 3.17469426,4.88575482 C3.18220132,4.99369829 3.18575729,5.15561348 3.18575729,5.15561348 C3.18575729,5.15561348 3.37540922,5.15021631 3.49196613,5.15330041 C3.61122043,5.15873186 3.7299959,5.17160862 3.8475635,5.19185164 C3.99809972,5.2153679 4.29126999,5.2778209 4.45958608,5.36109157 C4.59826905,5.42971277 4.72786453,5.54498097 4.769746,5.66718839 C4.81090726,5.76231809 4.80114291,5.87115918 4.74366886,5.95786471 C4.6773097,6.07357706 4.55726052,6.15041901 4.4220508,6.16372831 C4.38253998,6.16604139 4.24030103,6.14715128 4.19604892,6.11399722 C4.18009255,6.10011879 4.17834185,6.0763751 4.19209784,6.060411 C4.19683913,6.05462831 4.26400753,6.0199322 4.30351834,5.99950005 C4.32229217,5.98975199 4.33980166,5.97784479 4.35567262,5.96403291 C4.3884666,5.93550499 4.41809972,5.90427849 4.41493885,5.86804033 C4.41019755,5.82062231 4.35883349,5.79093786 4.30984008,5.77243326 C4.08028222,5.68376542 3.62156162,5.60974705 3.40109125,5.59702514 C3.31456256,5.59201348 3.19128881,5.58777284 3.19128881,5.58777284 L3.21736595,6.78286117 C3.21736595,6.78286117 3.31930386,6.80175128 3.39951082,6.81447318 C3.44573848,6.82141241 3.64092192,6.83837495 3.6930762,6.83953149 C4.08818438,6.84994032 4.52991533,6.81524421 4.89262465,6.64677531 C5.05007281,6.5797978 5.19169731,6.48190041 5.30867357,6.35918308 C5.45928235,6.18791418 5.53227553,5.96437664 5.51096896,5.73966471 C5.4888429,5.48484104 5.30472248,5.18259935 5.15813735,4.99832444 C4.77053622,4.51219334 4.10635936,4.111646 3.52159925,3.87725448 C2.94458821,3.63796569 2.32812697,3.50202331 1.70173095,3.47593611 C1.53855127,3.46976791 1.1825588,3.47593611 1.00278457,3.52643823 C0.976707432,3.53376296 0.9510254,3.54224423 0.926923801,3.5472559 C0.907053094,3.55228887 0.888025605,3.56007854 0.87042333,3.57038664 C0.867227701,3.57303889 0.864193383,3.57587079 0.861335842,3.57886791 C0.868371756,3.58273601 0.875627082,3.58621121 0.883066792,3.58927674 C0.902031985,3.5973725 0.982238946,3.60238416 1.02412041,3.6097089 C1.06044804,3.61470345 1.09319383,3.63373484 1.1149953,3.66252409 C1.13098703,3.68187302 1.13098703,3.70948329 1.1149953,3.72883222 C1.07548448,3.77702126 0.92060207,3.76738346 0.85303857,3.75851667 C0.785475071,3.74964989 0.694995296,3.72651914 0.679190969,3.66676473 C0.660620884,3.59660148 0.694995296,3.52798028 0.731740357,3.46398522 C0.806020696,3.33676614 0.912304798,3.27122904 1.06837253,3.22882268 C1.30084615,3.16822074 1.53923709,3.13177988 1.77956726,3.1201082 C2.25369708,3.10276014 2.69977422,3.18333222 3.15809972,3.31903258 C3.451002,3.40802408 3.73722118,3.51674276 4.01469426,3.64440501 C4.22887034,3.74775514 4.43725553,3.8621572 4.63896519,3.9871255 C4.68914393,4.01950854 4.98389464,4.23076932 5.02933208,4.2677785 C5.12494826,4.34488098 5.24980245,4.45359546 5.34028222,4.54110677 C5.51492004,4.7103467 5.73262465,4.96941101 5.83851364,5.17527461 C5.86380056,5.22462019 5.88355597,5.27280924 5.91753528,5.32947956 C5.94380975,5.38479285 5.96637832,5.44171123 5.98509878,5.49987602 C5.99300094,5.5334156 6.00485419,5.58237567 6.00643462,5.58468874 C6.01619658,5.63653923 6.02253138,5.68894853 6.02539981,5.74159227 L6.0246096,5.74159227 Z M11.9686171,5.47790182 C11.7473565,5.52763291 11.1649671,5.55500429 11.1649671,5.55500429 L11.091477,5.77937249 C11.258682,5.76585426 11.4267072,5.76495205 11.5940546,5.7766739 C11.5940546,5.7766739 11.6628034,5.76896365 11.6707056,5.85377637 C11.6719209,5.90783189 11.6696776,5.96190872 11.6639887,6.01569157 C11.6639887,6.01569157 11.6596425,6.06619369 11.5849671,6.07930111 C11.5102916,6.09240853 10.9579304,6.11284068 10.9579304,6.11284068 L10.8694262,6.40544457 C10.8694262,6.40544457 10.8366322,6.47290923 10.908937,6.45363361 C10.9812418,6.43435799 11.5509878,6.33065517 11.6260583,6.34607566 C11.7011289,6.36149616 11.7943744,6.46943962 11.7690875,6.56427566 C11.738269,6.68185693 11.1657573,7.03807036 10.8172719,7.01339756 C10.8172719,7.01339756 10.6343368,7.02496294 10.4794544,6.78209015 C10.3352399,6.55078273 10.5339793,6.11708132 10.5339793,6.11708132 C10.5339793,6.11708132 10.4431044,5.9139163 10.5090875,5.84490959 C10.5090875,5.84490959 10.5485983,5.81021348 10.6627846,5.80211772 L10.803048,5.51915164 C10.803048,5.51915164 10.6450047,5.52994599 10.5482032,5.4150633 C10.459699,5.30634881 10.4521919,5.25623221 10.5201505,5.22616224 C10.5881091,5.19609228 11.2582126,5.0719573 11.716143,5.0877633 C11.716143,5.0877633 11.8741863,5.07234281 12.0132643,5.34181595 C12.0132643,5.34181595 12.0804327,5.45091595 11.9666416,5.47713079 L11.9686171,5.47790182 Z M10.2459454,6.56658873 C10.1874694,6.70151806 10.0321919,6.84531417 9.83977422,6.75587531 C9.64735654,6.66643644 9.34667921,6.06195305 9.34667921,6.06195305 C9.34667921,6.06195305 9.23170273,5.83642832 9.20957667,5.842211 C9.20957667,5.842211 9.18507996,5.79826259 9.17006585,6.04460499 C9.15505174,6.29094739 9.17322672,6.76859721 9.07286924,6.84377212 C9.03306754,6.87773745 8.9798122,6.89260894 8.92762008,6.88433277 C8.87542797,6.8760566 8.82974003,6.84549555 8.80301035,6.80098025 C8.74888053,6.71385446 8.72635936,6.50760534 8.75599247,6.14560923 C8.78562559,5.78361312 8.87729069,5.39540217 8.98752587,5.27512231 C9.09776105,5.15484246 9.18507996,5.24235376 9.22103481,5.27512231 C9.22103481,5.27512231 9.36880527,5.405811 9.61258702,5.78939581 L9.6552587,5.86033008 C9.6552587,5.86033008 9.87651929,6.22271171 9.89983067,6.22194068 C9.89983067,6.22194068 9.91800564,6.23851771 9.93420508,6.22656683 C9.95712135,6.22001312 9.94803387,6.1039739 9.94803387,6.1039739 C9.94803387,6.1039739 9.90180621,5.70882372 9.70030103,5.0407308 C9.68240599,4.98870054 9.67886301,4.93299084 9.69002822,4.87920111 C9.71057385,4.80209864 9.79196613,4.83718027 9.79196613,4.83718027 C9.79196613,4.83718027 10.1044967,4.99138521 10.2566134,5.48792514 C10.40873,5.98446506 10.3060019,6.43358697 10.2463405,6.56928732 L10.2459454,6.56658873 Z M13.6138476,6.26897319 C13.4731891,6.51146047 13.0701787,7.01918025 12.5355974,6.90082795 C12.3285782,7.37026097 12.1907648,7.86594357 12.1262653,8.37309967 C12.1262653,8.37309967 12.1076952,8.49569261 12.0029915,8.45328625 C11.8990781,8.4174336 11.7264158,8.24935021 11.6940169,8.01688625 C11.6568768,7.71117494 11.79635,7.19458838 12.081223,6.60205587 C11.9978551,6.47021064 11.9413547,6.2816951 11.989953,6.01337849 C11.989953,6.01337849 12.0614675,5.51529652 12.574318,5.06656012 C12.574318,5.06656012 12.6355597,5.01451595 12.6711195,5.03070747 C12.7066792,5.04689899 12.6924553,5.20881419 12.6612418,5.28745871 C12.6300282,5.36610323 12.4004704,5.75007355 12.4004704,5.75007355 C12.4004704,5.75007355 12.2582314,6.0106799 12.2981373,6.21577248 C12.567206,5.81252655 13.1784384,4.99909546 13.5573471,5.25546118 C13.684572,5.34451454 13.7434431,5.53765623 13.7434431,5.74583291 C13.7451312,5.92788126 13.7008965,6.1075397 13.6146378,6.26897319 L13.6138476,6.26897319 Z M13.5040075,5.62863715 C13.5040075,5.62863715 13.4830668,5.46826401 13.3222578,5.64482867 C13.0908194,5.88850894 12.8930369,6.16067547 12.7339417,6.45440464 C12.9445343,6.43127389 13.1476199,6.31986082 13.2080715,6.26164845 C13.3076388,6.17490817 13.5403575,5.94051665 13.5028222,5.62863715 L13.5040075,5.62863715 Z M16.5585889,5.59201348 L15.5791157,5.59201348 C15.5596725,5.26785041 15.5186262,4.94526576 15.4562371,4.626305 C15.4499385,4.59259404 15.419842,4.56809264 15.3847225,4.56809264 L15.1587206,4.56809264 C15.1389649,4.56819862 15.1202843,4.57688526 15.1077575,4.59179089 C15.0952306,4.60669652 15.0901595,4.62627192 15.0939229,4.64519511 C15.1575641,4.95805235 15.1992788,5.27477783 15.218777,5.59317001 L14.276444,5.59317001 C14.2328016,5.59317001 14.1974224,5.62768997 14.1974224,5.67027249 L14.1974224,5.86881135 C14.1974224,5.91139387 14.2328016,5.94591383 14.276444,5.94591383 L15.2322107,5.94591383 C15.2322107,5.9948739 15.2322107,6.03882231 15.2322107,6.08007213 C15.2334364,6.3434323 15.2193215,6.6066476 15.1899341,6.86844492 C15.1875383,6.88900759 15.1944654,6.90956577 15.2088993,6.92472972 C15.2227826,6.93987489 15.2425994,6.94856188 15.2634243,6.94863229 L15.4728316,6.94863229 C15.5137029,6.94881181 15.5479709,6.9185525 15.5518532,6.87885375 C15.5800069,6.6135002 15.5931971,6.34683777 15.5913641,6.08007213 C15.5913641,6.03882231 15.5913641,5.9948739 15.5913641,5.94591383 L16.5574036,5.94591383 C16.601046,5.94591383 16.6364252,5.91139387 16.6364252,5.86881135 L16.6364252,5.67027249 C16.6362149,5.62828773 16.6016144,5.5941848 16.5585889,5.59355553 L16.5585889,5.59201348 Z" id="Shape" fill="#FFFFFF"></path>
                            <path d="M15.3234807,4.10162268 C14.3823085,1.843649 12.2390341,0.278250629 9.75342778,0.0333838404 C7.26782143,-0.211482948 4.84710084,0.904298467 3.46233302,2.9331347 C3.44861412,2.95296887 3.44511076,2.97789378 3.45285042,3.00059936 C3.46062227,3.02365501 3.4790667,3.04179432 3.50263405,3.04955943 L3.67806209,3.10738629 C3.68831569,3.1104025 3.69896142,3.11196058 3.70967074,3.11201244 C3.74148889,3.11153005 3.77103177,3.09582021 3.78869238,3.06999159 C4.97786288,1.36045655 6.95810447,0.337129803 9.075635,0.337865461 C11.6436498,0.337607503 13.9624341,1.8370626 14.9627469,4.14480006 C14.97729,4.17798523 15.0107052,4.19954282 15.0476952,4.19954282 L15.2571025,4.19954282 C15.2813285,4.19940011 15.303926,4.18761696 15.3175099,4.16804427 C15.3310937,4.14847158 15.3339186,4.12362422 15.3250611,4.10162268 L15.3234807,4.10162268 Z" id="Path" fill="url(#radialGradient-2)"></path>
                        </g>
                    </g>
                </g>
            </g>
        </g>
    </g>
</svg>