<svg xmlns="http://www.w3.org/2000/svg" xmlns:xlink="http://www.w3.org/1999/xlink" width="138" height="40" viewBox="0 0 138 40">
    <defs>
        <path id="7hricq8mza" d="M2 0h134c1.105 0 2 .895 2 2v36c0 1.105-.895 2-2 2H2c-1.105 0-2-.895-2-2V2C0 .895.895 0 2 0z"/>
    </defs>
    <g fill="none" fill-rule="evenodd">
        <mask id="3grjjx543b" fill="#fff">
            <use xlink:href="#7hricq8mza"/>
        </mask>
        <use fill="#2F3043" xlink:href="#7hricq8mza"/>
        <g mask="url(#3grjjx543b)">
            <g fill="#FFF" fill-rule="nonzero">
                <g>
                    <path d="M2.832 21l.66-1.836h3.036L7.188 21H9.06l-3.192-8.4H4.152L.96 21h1.872zm3.156-3.348H4.032l.984-2.724.972 2.724zm5.508 5.796V20.46c.324.408.912.636 1.596.636 1.74 0 2.916-1.236 2.916-3.12 0-1.884-1.08-3.12-2.772-3.12-.78 0-1.38.288-1.74.756v-.66H9.828v8.496h1.668zm1.392-3.792c-.9 0-1.488-.672-1.488-1.68 0-1.02.588-1.692 1.488-1.692.876 0 1.476.672 1.476 1.692 0 1.008-.6 1.68-1.476 1.68zm5.796 3.792V20.46c.324.408.912.636 1.596.636 1.74 0 2.916-1.236 2.916-3.12 0-1.884-1.08-3.12-2.772-3.12-.78 0-1.38.288-1.74.756v-.66h-1.668v8.496h1.668zm1.392-3.792c-.9 0-1.488-.672-1.488-1.68 0-1.02.588-1.692 1.488-1.692.876 0 1.476.672 1.476 1.692 0 1.008-.6 1.68-1.476 1.68zm9.492 1.44c1.884 0 3.156-.984 3.156-2.556 0-3.324-4.416-1.908-4.416-3.66 0-.492.444-.828 1.152-.828.804 0 1.308.432 1.368 1.092h1.716c-.048-1.596-1.272-2.64-3.084-2.64-1.704 0-2.904.984-2.904 2.376 0 3.3 4.356 2.04 4.356 3.684 0 .636-.54.972-1.344.972-.888 0-1.452-.54-1.524-1.392h-1.728c.072 1.788 1.344 2.952 3.252 2.952zM37.644 21v-1.404h-.768c-.54 0-.852-.276-.852-.864v-2.388h1.62v-1.392h-1.62v-1.788h-1.668v1.368c0 .3-.168.42-.42.42h-.744v1.392h1.164v2.46c0 1.404.9 2.196 2.292 2.196h.996zm3.72.096c1.86 0 3.192-1.32 3.192-3.12s-1.332-3.12-3.192-3.12-3.192 1.32-3.192 3.12 1.332 3.12 3.192 3.12zm0-1.44c-.9 0-1.512-.684-1.512-1.68 0-1.008.612-1.692 1.512-1.692s1.512.684 1.512 1.692c0 .996-.612 1.68-1.512 1.68zM47.148 21v-2.94c0-1.032.372-1.716 1.2-1.716h.996v-1.392h-.684c-.732 0-1.188.252-1.512 1.008v-1.008h-1.68V21h1.68zm5.772.096c1.488 0 2.64-.84 2.88-2.148h-1.632c-.132.516-.576.78-1.248.78-.84 0-1.38-.528-1.5-1.38h4.344c.012-.132.024-.312.024-.54 0-1.38-.852-2.952-2.988-2.952-2.052 0-2.988 1.572-2.988 3.108 0 1.524 1.056 3.132 3.108 3.132zm1.2-3.804h-2.676c.144-.84.6-1.212 1.356-1.212.804 0 1.272.54 1.32 1.212z" transform="translate(17 8) translate(30 1)"/>
                    <path d="M2.292 8C3.86 8 5.084 6.984 5.084 5.2c0-1.784-1.224-2.8-2.792-2.8H.636V8h1.656zm-.016-.616h-.952V3.016h.952c1.088 0 2.096.64 2.096 2.184S3.364 7.384 2.276 7.384zm6.224.68c1.576 0 2.752-1.216 2.752-2.864S10.076 2.336 8.5 2.336c-1.576 0-2.744 1.216-2.744 2.864S6.924 8.064 8.5 8.064zm0-.616c-1.176 0-2.04-.96-2.04-2.248 0-1.288.864-2.248 2.04-2.248 1.176 0 2.048.96 2.048 2.248 0 1.288-.872 2.248-2.048 2.248zM14.172 8l1.392-4.552L16.948 8h.704l1.712-5.6h-.696l-1.392 4.568L15.868 2.4h-.608l-1.416 4.568L12.468 2.4h-.712L13.492 8h.68zm6.648 0V3.456L23.7 8h.784V2.4h-.68v4.56L20.916 2.4h-.784V8h.688zm8.32 0v-.616h-2.8V2.4h-.68V8h3.48zm3.192.064c1.576 0 2.752-1.216 2.752-2.864s-1.176-2.864-2.752-2.864c-1.576 0-2.744 1.216-2.744 2.864s1.168 2.864 2.744 2.864zm0-.616c-1.176 0-2.04-.96-2.04-2.248 0-1.288.864-2.248 2.04-2.248 1.176 0 2.048.96 2.048 2.248 0 1.288-.872 2.248-2.048 2.248zM36.18 8l.584-1.512h2.496L39.836 8h.712l-2.232-5.6H37.7L35.468 8h.712zm2.84-2.12h-2.024l1.016-2.64 1.008 2.64zM42.844 8c1.568 0 2.792-1.016 2.792-2.8 0-1.784-1.224-2.8-2.792-2.8h-1.656V8h1.656zm-.016-.616h-.952V3.016h.952c1.088 0 2.096.64 2.096 2.184s-1.008 2.184-2.096 2.184zm8.128.68c1.576 0 2.752-1.216 2.752-2.864s-1.176-2.864-2.752-2.864c-1.576 0-2.744 1.216-2.744 2.864s1.168 2.864 2.744 2.864zm0-.616c-1.176 0-2.04-.96-2.04-2.248 0-1.288.864-2.248 2.04-2.248 1.176 0 2.048.96 2.048 2.248 0 1.288-.872 2.248-2.048 2.248zM55.308 8V3.456L58.188 8h.784V2.4h-.68v4.56L55.404 2.4h-.784V8h.688zm8.728 0V3.016h1.784V2.4h-4.264v.616h1.792V8h.688zm3.152 0V5.416h2.96V8h.688V2.4h-.688v2.4h-2.96V2.4H66.5V8h.688zm8.408 0v-.616h-2.904V5.416h2.296V4.8h-2.296V3.016h2.816V2.4h-3.504V8h3.592z" opacity=".8" transform="translate(17 8) translate(30 1)"/>
                </g>
                <path d="M6.366 23.406C2.882 23.386 0 16.275 0 12.653c0-5.915 4.438-7.21 6.148-7.21.77 0 1.594.302 2.32.57.507.187 1.032.38 1.324.38.175 0 .587-.164.95-.308.776-.309 1.74-.693 2.864-.693h.007c.84 0 3.383.185 4.913 2.481l.358.539-.516.389c-.736.556-2.08 1.57-2.08 3.578 0 2.378 1.522 3.293 2.253 3.733.323.194.657.394.657.832 0 .286-2.282 6.426-5.596 6.426-.811 0-1.384-.244-1.89-.458-.512-.218-.953-.406-1.682-.406-.37 0-.837.175-1.332.36-.676.253-1.442.54-2.31.54h-.023zM13.959 0c.086 3.112-2.14 5.271-4.363 5.136C9.23 2.652 11.82 0 13.96 0z" transform="translate(17 8)"/>
            </g>
        </g>
    </g>
</svg>
