<?xml version="1.0" encoding="UTF-8"?>
<svg width="42px" height="42px" viewBox="0 0 42 42" version="1.1" xmlns="http://www.w3.org/2000/svg" xmlns:xlink="http://www.w3.org/1999/xlink">
    <title>group-4</title>
    <defs>
        <circle id="path-1" cx="20" cy="20" r="20"></circle>
        <circle id="path-3" cx="20" cy="20" r="20"></circle>
    </defs>
    <g id="Exploration" stroke="none" stroke-width="1" fill="none" fill-rule="evenodd">
        <g id="01-orc-page-rc-promotion" transform="translate(-449.000000, -387.000000)">
            <g id="Group" transform="translate(208.000000, 336.000000)">
                <g id="Group-5" transform="translate(214.000000, 52.000000)">
                    <g id="group-4" transform="translate(28.000000, 0.000000)">
                        <g id="cs2bkeuzya-link" fill="#2F3043" fill-rule="nonzero">
                            <circle id="cs2bkeuzya" cx="20" cy="20" r="20"></circle>
                        </g>
                        <g id="Clipped">
                            <mask id="mask-2" fill="white">
                                <use xlink:href="#path-1"></use>
                            </mask>
                            <g id="cs2bkeuzya"></g>
                            <g id="Group" mask="url(#mask-2)" fill="#FFFFFF" fill-rule="nonzero">
                                <g transform="translate(1.126000, 1.462000)" id="Shape">
                                    <path d="M0.366,12.37 C0.568,12.37 0.732,12.534 0.732,12.736 C0.732,12.938 0.568,13.102 0.366,13.102 C0.164,13.102 -5.55111512e-17,12.938 -5.55111512e-17,12.736 C-5.55111512e-17,12.534 0.164,12.37 0.366,12.37 M21.464,2.609 C21.537,2.609 21.597,2.669 21.597,2.742 C21.597,2.815 21.537,2.874 21.464,2.874 C21.391,2.874 21.332,2.814 21.332,2.742 C21.332,2.669 21.391,2.609 21.464,2.609 M36.325,19.398 C36.401,19.398 36.463,19.46 36.463,19.535 C36.463,19.611 36.401,19.673 36.325,19.673 C36.249,19.673 36.187,19.611 36.187,19.535 C36.187,19.46 36.249,19.398 36.325,19.398 M16.272,15.125 C16.329,15.125 16.375,15.171 16.375,15.228 C16.375,15.284 16.329,15.33 16.272,15.33 C16.215,15.33 16.169,15.284 16.169,15.228 C16.169,15.171 16.215,15.125 16.272,15.125 M7.234,17.684 C7.434,17.684 7.596,17.846 7.596,18.046 C7.596,18.246 7.434,18.408 7.234,18.408 C7.034,18.408 6.872,18.246 6.872,18.046 C6.872,17.846 7.034,17.684 7.234,17.684 M28.548,12.394 C28.636,12.394 28.708,12.465 28.708,12.554 C28.708,12.642 28.636,12.714 28.548,12.714 C28.46,12.714 28.388,12.642 28.388,12.554 C28.388,12.465 28.46,12.394 28.548,12.394 M9.517,0 C9.682,0 9.815,0.133 9.815,0.298 C9.815,0.463 9.682,0.597 9.517,0.597 C9.352,0.597 9.219,0.463 9.219,0.297 C9.219,0.133 9.352,1.42108547e-14 9.517,1.42108547e-14 M30.702,13.482 C30.835,13.482 30.944,13.59 30.944,13.724 C30.944,13.857 30.834,13.966 30.702,13.966 C30.568,13.966 30.46,13.857 30.46,13.724 C30.46,13.59 30.568,13.482 30.702,13.482 M28.364,19.222 C28.63,19.222 28.844,19.438 28.844,19.702 C28.844,19.967 28.63,20.182 28.364,20.182 C28.1,20.182 27.884,19.967 27.884,19.702 C27.884,19.438 28.1,19.222 28.364,19.222"></path>
                                </g>
                            </g>
                        </g>
                        <g id="Clipped">
                            <mask id="mask-4" fill="white">
                                <use xlink:href="#path-3"></use>
                            </mask>
                            <use id="cs2bkeuzya" stroke="#F9F9F9" xlink:href="#path-3"></use>
                            <g id="Group" mask="url(#mask-4)">
                                <g transform="translate(10.392440, 7.131000)">
                                    <polygon id="Path" fill="#D3E3F9" fill-rule="nonzero" points="7.51956042 2.566 2.56856042 6.955 1.37656042 14.902 6.07156042 20.216 14.4575604 21.926 17.5285604 19.752 18.0965604 18.72 13.3935604 18.229 8.01156042 14.325 6.01456042 7.697 6.71456042 4.174"></polygon>
                                    <g id="Group" stroke-width="1" fill="none" fill-rule="evenodd">
                                        <path d="M22.3855604,18.416 C16.4845604,22.886 8.40956042,19.875 5.80356042,14.679 C3.26756042,10.056 4.28756042,3.281 9.32356042,0.001 C8.61656042,1.179 7.79956042,2.689 7.60356042,3.625 C7.57056042,3.765 7.54356042,3.905 7.52356042,4.038 C6.23356042,9.469 10.1275604,17.758 17.7655604,18.801 C18.0875604,18.848 18.5815604,18.892 18.9705604,18.9 C19.8835604,18.933 21.2105604,18.719 22.3855604,18.416" id="Path" fill="#FFFFFF" fill-rule="nonzero"></path>
                                        <g fill="#E6E6E6" fill-rule="nonzero" id="Path">
                                            <path d="M22.3855604,18.415 C21.3575604,20.007 19.9565604,21.341 18.4505604,22.238 C15.0225604,24.338 10.6375604,24.59 6.87056042,22.771 L6.74456042,22.709 C6.60356042,22.639 6.46456042,22.567 6.32856042,22.494 L6.19556042,22.42 L6.19456042,22.42 C6.02256042,22.323 5.85356042,22.223 5.68656042,22.118 C5.65056042,22.094 5.61356042,22.072 5.57856042,22.048 L5.49056042,21.992 L5.36956042,21.912 C5.24856042,21.831 5.12956042,21.748 5.01456042,21.663 L4.98356042,21.64 C4.94556042,21.614 4.90856042,21.585 4.87356042,21.559 C4.83756042,21.532 4.79956042,21.505 4.76456042,21.477 C4.59456042,21.346 4.42756042,21.213 4.26956042,21.075 C4.23556042,21.048 4.20156042,21.02 4.16856042,20.988 C1.83756042,18.995 0.339560418,15.885 0.102560418,13.394 L0.0995604185,13.355 C-0.393439582,9.589 0.941560418,5.48 4.16956042,2.663 C4.17356042,2.658 4.17756042,2.654 4.18356042,2.65 C5.00056042,1.95 5.87356042,1.34 6.88256042,0.87 C7.55356042,0.532 8.52456042,0.201 9.06556042,0.066 C9.15156042,0.042 9.23756042,0.021 9.32356042,0 C2.72856042,4.638 2.92656042,14.689 9.87456042,18.863 C9.89756042,18.878 9.91956042,18.891 9.94456042,18.905 C10.0545604,18.973 10.1675604,19.039 10.2845604,19.105 C14.6355604,21.38 19.1385604,20.766 22.3855604,18.415"></path>
                                        </g>
                                        <path d="M9.72256042,16.211 C9.72256042,17.005 9.07956042,17.648 8.28556042,17.648 C7.49256042,17.648 6.84956042,17.005 6.84956042,16.211 C6.84956042,15.418 7.49256042,14.775 8.28556042,14.775 C9.07956042,14.775 9.72256042,15.418 9.72256042,16.211" id="Path" fill="#E6E6E6" fill-rule="nonzero"></path>
                                        <path d="M8.28556042,14.775 C7.85656042,14.775 7.47256042,14.964 7.20956042,15.262 C7.46256042,15.039 7.79356042,14.902 8.15756042,14.902 C8.95156042,14.902 9.59456042,15.546 9.59456042,16.339 C9.59456042,16.703 9.45756042,17.035 9.23456042,17.288 C9.53356042,17.025 9.72256042,16.641 9.72256042,16.211 C9.72256042,15.418 9.07956042,14.775 8.28556042,14.775 M6.02056042,9.986 C6.02056042,10.599 5.52456042,11.096 4.91056042,11.096 C4.29856042,11.096 3.80156042,10.599 3.80156042,9.986 C3.80156042,9.373 4.29856042,8.876 4.91156042,8.876 C5.52456042,8.876 6.02156042,9.373 6.02156042,9.986" id="Shape" fill="#E6E6E6" fill-rule="nonzero"></path>
                                        <path d="M4.91156042,8.877 C4.57956042,8.877 4.28256042,9.023 4.07956042,9.253 C4.27556042,9.081 4.53156042,8.975 4.81256042,8.975 C5.42556042,8.975 5.92256042,9.472 5.92256042,10.085 C5.92256042,10.366 5.81656042,10.622 5.64456042,10.818 C5.87456042,10.615 6.02056042,10.318 6.02056042,9.986 C6.02056042,9.373 5.52456042,8.876 4.91056042,8.876 M6.93256042,4.635 C6.93256042,4.919 6.70256042,5.148 6.41956042,5.148 C6.13656042,5.148 5.90656042,4.918 5.90656042,4.635 C5.90656042,4.352 6.13656042,4.122 6.41956042,4.122 C6.70356042,4.122 6.93256042,4.352 6.93256042,4.635" id="Shape" fill="#E6E6E6" fill-rule="nonzero"></path>
                                        <path d="M6.41956042,4.122 C6.26656042,4.122 6.12956042,4.19 6.03556042,4.296 C6.12556042,4.216 6.24456042,4.168 6.37456042,4.168 C6.65756042,4.168 6.88756042,4.398 6.88756042,4.681 C6.88756042,4.811 6.83856042,4.93 6.75856042,5.02 C6.86556042,4.926 6.93256042,4.789 6.93256042,4.635 C6.93256042,4.352 6.70256042,4.122 6.41956042,4.122 M16.4525604,19.138 C16.4525604,19.421 16.2225604,19.651 15.9395604,19.651 C15.6565604,19.651 15.4265604,19.421 15.4265604,19.138 C15.4265604,18.854 15.6565604,18.624 15.9395604,18.624 C16.2235604,18.624 16.4525604,18.854 16.4525604,19.138" id="Shape" fill="#E6E6E6" fill-rule="nonzero"></path>
                                        <path d="M15.9395604,18.624 C15.7865604,18.624 15.6495604,18.692 15.5555604,18.799 C15.6455604,18.719 15.7645604,18.67 15.8945604,18.67 C16.1775604,18.67 16.4075604,18.9 16.4075604,19.183 C16.4075604,19.313 16.3575604,19.432 16.2785604,19.522 C16.3855604,19.428 16.4525604,19.291 16.4525604,19.138 C16.4525604,18.854 16.2225604,18.624 15.9395604,18.624 M8.30456042,12.783 C8.30456042,13.067 8.07456042,13.296 7.79156042,13.296 C7.50856042,13.296 7.27856042,13.066 7.27856042,12.783 C7.27856042,12.5 7.50856042,12.27 7.79156042,12.27 C8.07556042,12.27 8.30456042,12.5 8.30456042,12.783" id="Shape" fill="#E6E6E6" fill-rule="nonzero"></path>
                                        <path d="M7.79156042,12.27 C7.63856042,12.27 7.50156042,12.338 7.40756042,12.445 C7.49756042,12.365 7.61656042,12.315 7.74656042,12.315 C8.02956042,12.315 8.25956042,12.545 8.25956042,12.829 C8.25956042,12.959 8.20956042,13.077 8.13056042,13.168 C8.23756042,13.074 8.30456042,12.937 8.30456042,12.783 C8.30456042,12.5 8.07456042,12.27 7.79156042,12.27" id="Path" fill="#E6E6E6" fill-rule="nonzero"></path>
                                    </g>
                                </g>
                            </g>
                        </g>
                    </g>
                </g>
            </g>
        </g>
    </g>
</svg>