<svg xmlns="http://www.w3.org/2000/svg" width="24" height="24" fill="none" viewBox="0 0 24 24">
    <path fill="#2F3043" d="M12 23.444c6.627 0 12-5.157 12-11.52C24 5.562 18.627.404 12 .404S0 5.562 0 11.924c0 6.363 5.373 11.52 12 11.52z"/>
    <mask id="drks01h8ia" width="24" height="24" x="0" y="0" maskUnits="userSpaceOnUse">
        <path fill="#fff" d="M12 23.444c6.627 0 12-5.157 12-11.52C24 5.562 18.627.404 12 .404S0 5.562 0 11.924c0 6.363 5.373 11.52 12 11.52z"/>
    </mask>
    <g mask="url(#drks01h8ia)">
        <path fill="#fff" d="M.895 8.372c.121 0 .22.094.22.21 0 .117-.099.211-.22.211-.12 0-.22-.094-.22-.21 0-.117.1-.211.22-.211zm12.66-5.623c.043 0 .079.035.079.077 0 .042-.036.076-.08.076-.044 0-.08-.035-.08-.076 0-.042.036-.077.08-.077zm8.916 9.67c.045 0 .082.036.082.08 0 .043-.037.08-.082.08-.046 0-.083-.037-.083-.08 0-.044.037-.08.083-.08zM10.439 9.96c.034 0 .062.026.062.059 0 .032-.028.058-.062.058s-.062-.026-.062-.058c0-.033.028-.06.062-.06zm-5.423 1.473c.12 0 .217.094.217.209 0 .115-.097.209-.217.209s-.217-.094-.217-.209c0-.115.097-.209.217-.209zm12.789-3.047c.052 0 .096.041.096.093 0 .05-.044.092-.096.092-.053 0-.096-.042-.096-.092 0-.052.043-.093.096-.093zM6.385 1.246c.1 0 .18.077.18.172 0 .095-.08.172-.18.172-.098 0-.178-.077-.178-.172 0-.095.08-.172.179-.172zm12.712 7.766c.08 0 .145.062.145.14 0 .076-.066.139-.145.139-.08 0-.145-.063-.145-.14 0-.077.064-.139.145-.139zm-1.403 3.306c.16 0 .288.125.288.277 0 .152-.128.276-.288.276-.158 0-.288-.123-.288-.276 0-.152.13-.277.288-.277z"/>
    </g>
    <mask id="pugzlun7ub" width="24" height="24" x="0" y="0" maskUnits="userSpaceOnUse">
        <path fill="#fff" d="M12 23.444c6.627 0 12-5.157 12-11.52C24 5.562 18.627.404 12 .404S0 5.562 0 11.924c0 6.363 5.373 11.52 12 11.52z"/>
    </mask>
    <g mask="url(#pugzlun7ub)">
        <path fill="#D3E3F9" d="M10.747 5.99l-2.97 2.528-.716 4.577 2.817 3.061 5.032.985 1.843-1.252.34-.594-2.821-.283-3.23-2.249-1.198-3.818.42-2.029.483-.926z"/>
        <path fill="#fff" d="M19.667 15.12c-3.54 2.574-8.386.84-9.95-2.153-1.521-2.663-.909-6.565 2.113-8.455-.425.679-.915 1.549-1.032 2.088-.02.08-.036.161-.048.238-.774 3.128 1.562 7.902 6.145 8.503.193.027.49.053.723.057.548.02 1.344-.104 2.049-.279z"/>
        <path fill="#E6E6E6" d="M19.667 15.119c-.617.917-1.458 1.685-2.361 2.202-2.057 1.21-4.688 1.355-6.948.307l-.076-.036c-.084-.04-.168-.082-.25-.124l-.08-.042c-.103-.056-.204-.114-.305-.174l-.064-.04-.053-.033-.073-.046c-.072-.046-.144-.094-.213-.143l-.018-.013c-.023-.015-.045-.032-.066-.047l-.066-.047c-.102-.076-.202-.152-.297-.232-.02-.015-.04-.032-.06-.05-1.399-1.148-2.298-2.94-2.44-4.374l-.002-.023C6 10.035 6.8 7.668 8.737 6.046l.009-.008c.49-.403 1.014-.754 1.619-1.025.403-.195.985-.385 1.31-.463.051-.014.103-.026.155-.038-3.957 2.671-3.839 8.46.33 10.865l.042.024c.066.04.134.077.204.115 2.61 1.31 5.313.957 7.26-.397z"/>
        <path fill="#E6E6E6" d="M12.069 13.85c0 .457-.386.827-.862.827s-.862-.37-.862-.828c0-.456.386-.827.862-.827s.862.37.862.827z"/>
        <path fill="#E6E6E6" d="M11.207 13.022c-.258 0-.488.11-.646.28.152-.128.35-.207.569-.207.476 0 .862.371.862.828 0 .21-.082.401-.216.547.18-.152.293-.373.293-.62 0-.457-.386-.828-.862-.828zm-1.36-2.758c0 .353-.297.64-.665.64-.367 0-.666-.287-.666-.64 0-.353.299-.64.666-.64.368 0 .666.287.666.64"/>
        <path fill="#E6E6E6" d="M9.182 9.625c-.199 0-.377.084-.499.217.118-.1.271-.16.44-.16.368 0 .666.286.666.639 0 .162-.064.31-.167.422.138-.117.226-.288.226-.48 0-.352-.298-.639-.666-.639v.001zm1.213-2.443c0 .163-.138.295-.308.295-.17 0-.308-.132-.308-.295 0-.163.138-.296.308-.296.17 0 .308.133.308.296z"/>
        <path fill="#E6E6E6" d="M10.087 6.886c-.092 0-.174.04-.23.1.054-.046.125-.073.203-.073.17 0 .308.132.308.295 0 .075-.03.144-.077.195.064-.054.104-.133.104-.221 0-.163-.138-.296-.308-.296zm6.02 8.65c0 .162-.138.295-.308.295-.17 0-.308-.133-.308-.296 0-.163.138-.296.308-.296.17 0 .308.133.308.296z"/>
        <path fill="#E6E6E6" d="M15.8 15.24c-.093 0-.175.038-.231.1.054-.046.125-.074.203-.074.17 0 .308.132.308.295 0 .075-.03.144-.077.196.064-.055.104-.134.104-.222 0-.163-.138-.296-.308-.296zm-4.582-3.365c0 .163-.138.295-.307.295-.17 0-.308-.132-.308-.295 0-.163.138-.296.308-.296.17 0 .307.133.307.296z"/>
        <path fill="#E6E6E6" d="M10.91 11.58c-.091 0-.174.038-.23.1.054-.046.126-.075.204-.075.17 0 .307.133.307.296 0 .075-.03.143-.077.196.064-.055.104-.133.104-.222 0-.163-.138-.296-.307-.296z"/>
    </g>
</svg>
