<svg xmlns="http://www.w3.org/2000/svg" xmlns:xlink="http://www.w3.org/1999/xlink" width="24" height="24" viewBox="0 0 24 24">
    <defs>
        <path id="lfqbylvb2a" d="M16.19 15.661H3.81c-.77 0-1.396-.607-1.396-1.354V10.45c3.195 1.536 5.748 2.145 7.986 2.145 2.654 0 4.868-.857 7.187-2.039v3.751c0 .747-.627 1.354-1.397 1.354zM3.81 6.705h12.38c.732 0 1.327.55 1.386 1.245-.07.023-.144.029-.21.064-4.46 2.384-7.599 3.65-14.927-.191.115-.634.685-1.118 1.371-1.118zm3.162-3.848c0-.286.545-.518 1.217-.518h3.623c.671 0 1.216.232 1.216.518V3.94l-6.056.02V2.857zm9.218 1.508h-.793c.027-.138.045-.28.045-.426V2.857c0-1.42-1.247-2.857-3.63-2.857H8.189C5.806 0 4.56 1.437 4.56 2.857V3.96c0 .138.016.273.042.406h-.79C1.71 4.365 0 6.022 0 8.058v6.25C0 16.342 1.71 18 3.81 18h12.38c2.1 0 3.81-1.657 3.81-3.693v-6.25c0-2.035-1.71-3.692-3.81-3.692z"/>
    </defs>
    <g fill="none" fill-rule="evenodd">
        <g>
            <g>
                <g>
                    <g transform="translate(-80.000000, -562.000000) translate(80.000000, 185.000000) translate(0.000000, 377.000000) translate(2.000000, 3.000000)">
                        <mask id="mcafm311jb" fill="#fff">
                            <use xlink:href="#lfqbylvb2a"/>
                        </mask>
                        <use fill="#EB0000" xlink:href="#lfqbylvb2a"/>
                        <g fill="#FFF" mask="url(#mcafm311jb)">
                            <path d="M0 0H24V24H0z" transform="translate(-2.000000, -3.000000)"/>
                        </g>
                    </g>
                </g>
            </g>
        </g>
    </g>
</svg>
