<?xml version="1.0" encoding="UTF-8"?>
<svg width="64px" height="64px" viewBox="0 0 64 64" version="1.1" xmlns="http://www.w3.org/2000/svg" xmlns:xlink="http://www.w3.org/1999/xlink">
    <title>buy-postpaid-sim</title>
    <g id="24th-Aug" stroke="none" stroke-width="1" fill="none" fill-rule="evenodd">
        <g id="01-Consumer_Web_Desktop_V3" transform="translate(-234.000000, -660.000000)">
            <g id="2nd" transform="translate(213.000000, 660.000000)">
                <g id="buy-postpaid-sim" transform="translate(21.000000, 0.000000)">
                    <circle id="Oval" fill="#E2EDFB" cx="32" cy="32" r="32"></circle>
                    <g id="Group" transform="translate(12.000000, 12.000000)" opacity="0.800000012">
                        <g id="Mobile/Icon/Sim">
                            <g id="Color/Slate"></g>
                            <g id="sim" transform="translate(5.000000, 1.666667)" fill="#2F3042" fill-rule="nonzero">
                                <path d="M19.0250651,0.5 C19.4484121,0.5 19.8564398,0.644105949 20.1840676,0.904967178 L20.3408801,1.04500078 L27.2881741,7.98962542 C27.5873159,8.28876722 27.7741683,8.67904639 27.8214498,9.09545378 L27.8333333,9.30553385 L27.8333333,32.2222005 C27.8333333,34.3078685 26.2095161,36.0186148 24.1587468,36.1575561 L23.8889323,36.1666667 L4.44446615,36.1666667 C2.35879821,36.1666667 0.648051819,34.5428494 0.509110571,32.4920802 L0.5,32.2222656 L0.5,4.44446615 C0.5,2.3587845 2.12383042,0.648050677 4.17464544,0.5091105 L4.44446615,0.5 L19.0250651,0.5 Z M18.2533333,4.22166667 L4.44446615,4.22226563 C4.34743191,4.22226563 4.26344412,4.28684657 4.23373037,4.37478086 L4.22226563,4.44446615 L4.22226563,32.2222005 C4.22226563,32.3192348 4.28684657,32.4032225 4.37478086,32.4329363 L4.44446615,32.444401 L23.8889323,32.444401 C23.9859665,32.444401 24.0699543,32.3798201 24.0996681,32.2918858 L24.1111328,32.2222005 L24.11,10.075 L18.2533333,4.22166667 Z" id="Shape"></path>
                            </g>
                            <path d="M25,15 C25.9204746,15 26.6666667,15.7461921 26.6666667,16.6666667 L26.6666667,30 C26.6666667,30.9204746 25.9204746,31.6666667 25,31.6666667 L13.3333333,31.6666667 C12.4128588,31.6666667 11.6666667,30.9204746 11.6666667,30 L11.6666667,16.6666667 C11.6666667,15.7461921 12.4128588,15 13.3333333,15 L25,15 Z M23.3333333,18.3333333 L15,18.3333333 L14.9996667,23.333 L20,23.3333333 L20,26.6666667 L14.9996667,26.666 L15,28.3333333 L23.3333333,28.3333333 L23.3333333,18.3333333 Z" id="Combined-Shape" fill="#2F3042" fill-rule="nonzero"></path>
                        </g>
                    </g>
                </g>
            </g>
        </g>
    </g>
</svg>