<svg width="24" height="24" viewBox="0 0 24 24" fill="none" xmlns="http://www.w3.org/2000/svg">
<rect x="0.5" y="0.5" width="23" height="23" rx="11.5" fill="#EE2737"/>
<path d="M16.375 10.3877C16.375 7.75422 13.4731 7.24514 12.5163 5.875V14.674C12.5213 15.1562 12.3813 15.629 12.1143 16.0319C11.8472 16.4348 11.4651 16.7496 11.0168 16.9361C10.5685 17.1227 10.0743 17.1725 9.5974 17.0791C9.12046 16.9858 8.68237 16.7536 8.33907 16.4122C7.99578 16.0708 7.76284 15.6356 7.67001 15.1623C7.57718 14.6889 7.62866 14.1989 7.81788 13.7547C8.0071 13.3105 8.32548 12.9323 8.73237 12.6684C9.13925 12.4046 9.61619 12.2669 10.1023 12.2732C10.4232 12.2732 10.7409 12.336 11.0373 12.458C11.3336 12.5799 11.6028 12.7587 11.8294 12.9841C12.056 13.2095 12.2356 13.477 12.3578 13.7713C12.48 14.0656 12.5425 14.3809 12.5417 14.6992" stroke="white" stroke-width="1.25" stroke-linecap="round" stroke-linejoin="round"/>
<rect x="0.5" y="0.5" width="23" height="23" rx="11.5" stroke="white"/>
</svg>
