<svg width="42" height="42" viewBox="0 0 42 42" fill="none" xmlns="http://www.w3.org/2000/svg">
<rect x="1" y="1" width="40" height="40" rx="20" fill="#EE2737"/>
<path d="M28.6562 18.1784C28.6562 13.5699 23.5779 12.679 21.9036 10.2812V25.6796C21.9123 26.5234 21.6673 27.3507 21.1999 28.0558C20.7325 28.7609 20.0639 29.3118 19.2794 29.6383C18.4949 29.9647 17.6301 30.0518 16.7954 29.8885C15.9608 29.7252 15.1941 29.3188 14.5934 28.7213C13.9926 28.1238 13.585 27.3623 13.4225 26.5339C13.2601 25.7056 13.3501 24.848 13.6813 24.0707C14.0124 23.2934 14.5696 22.6316 15.2816 22.1698C15.9937 21.708 16.8283 21.4671 17.679 21.478C18.2405 21.478 18.7966 21.5879 19.3152 21.8014C19.8339 22.0149 20.305 22.3278 20.7015 22.7222C21.0981 23.1166 21.4123 23.5847 21.6262 24.0997C21.84 24.6147 21.9494 25.1666 21.9479 25.7236" stroke="white" stroke-width="2.1875" stroke-linecap="round" stroke-linejoin="round"/>
<rect x="1" y="1" width="40" height="40" rx="20" stroke="white" stroke-width="2"/>
</svg>
