<?xml version="1.0" encoding="UTF-8"?>
<svg width="40px" height="40px" viewBox="0 0 40 40" version="1.1" xmlns="http://www.w3.org/2000/svg" xmlns:xlink="http://www.w3.org/1999/xlink">
    <title>data-delight-desktop</title>
    <g id="Page-1" stroke="none" stroke-width="1" fill="none" fill-rule="evenodd">
        <g id="data-delight-desktop">
            <circle id="Oval" fill="#2F3043" cx="20" cy="20" r="20"></circle>
            <g id="Group-27" transform="translate(2.000000, 3.000000)">
                <rect id="Rectangle" stroke="#979797" stroke-width="0.8" fill="#D8D8D8" opacity="0" x="0.4" y="0.4" width="31.2" height="31.2"></rect>
                <g id="Group-14" transform="translate(1.600000, 4.000000)" fill="#FFC600" fill-rule="nonzero">
                    <path d="M0.0339578148,15.8948508 C0.0873277637,15.8619346 0.137810927,15.8246938 0.184881436,15.7835163 C1.37969344,14.6157415 2.57199004,13.4430184 3.76177126,12.2653471 C3.80704834,12.2208134 3.84855234,12.1725684 3.90892179,12.1057677 C3.03035232,11.8602957 2.28838059,11.2788688 1.84881436,10.491418 C1.08976602,9.1049691 1.41835417,7.38539238 2.63739028,6.36462038 C3.29781562,5.81876925 4.14576256,5.54253118 5.00689113,5.59270141 C4.94689082,4.54950063 5.38668282,3.53879253 6.19541465,2.86129581 C6.73190308,2.40459651 7.40439342,2.13116234 8.11214464,2.08195454 C9.71448626,1.95367351 11.1861984,2.95546613 11.628665,4.47564559 L15.4658981,0.686562548 L20.0275645,5.16963043 L16.2318355,8.90304623 L16.2733394,8.97355806 L28.8,8.97355806 L28.8,24 L10.1496135,24 L10.1496135,14.9707747 C8.28193371,16.8263492 6.44443862,18.6151229 4.59939735,20.4298747 L4.33528102,20.1812278 L0.184881436,16.098964 C0.124511987,16.0395856 0.0603694484,15.9876295 0,15.9319623 L0.0339578148,15.8948508 Z M27.29831,10.6435751 C26.5436919,10.6435751 15.4470326,10.6435751 14.7376916,10.6435751 C14.5969733,10.6523712 14.4636743,10.7087488 14.3603825,10.8031545 C13.5755797,11.5453843 12.8096423,12.3247255 12.0286126,13.0817999 C11.8992998,13.1984218 11.8300483,13.3659839 11.8399581,13.5382712 C11.8399581,16.3785372 11.8399581,19.2163291 11.8399581,22.0516468 L11.8399581,22.3336941 L27.3096292,22.3336941 L27.29831,10.6435751 Z M12.9266081,9.79001082 L17.6241059,5.16963043 C16.9336303,4.48677903 16.2205162,3.78537189 15.5338137,3.10252049 L10.836316,7.72290088 L12.9266081,9.79001082 Z M4.5805319,17.9990722 L9.28557579,13.3712695 L7.19528364,11.315293 C5.62945107,12.8517087 4.05229923,14.4066801 2.48646666,15.9468069 L4.5805319,17.9990722 Z M8.4064457,7.6635225 C8.80639329,7.29240761 9.25539107,6.88789238 9.65533866,6.44997681 C10.2371876,5.79563774 10.1974224,4.80805076 9.56478449,4.20102057 C8.93654814,3.58976819 7.93464593,3.56059355 7.27074545,4.13421989 C6.60269939,4.69827194 6.50458423,5.6796729 7.04813311,6.36090923 C7.45939997,6.84335859 7.95744792,7.24045152 8.4064457,7.6635225 Z M7.1311411,8.88820164 C6.72364732,8.47997526 6.31992663,8.02721509 5.87092886,7.63012216 C5.19750829,7.0646897 4.19144999,7.11857566 3.584436,7.75259007 C2.96876111,8.39000392 2.96876111,9.3901105 3.584436,10.0275244 C4.17777873,10.6614388 5.17094467,10.7298191 5.84829032,10.1833926 C6.31615354,9.78258853 6.71610114,9.33353951 7.1311411,8.88820164 Z M11.6588497,11.0221123 L9.57610376,8.96242462 L8.4441766,10.0757693 L10.545788,12.1354569 L11.6588497,11.0221123 Z" id="Shape"></path>
                    <g id="Group" transform="translate(22.015983, 0.000000)">
                        <polygon id="Path" points="1.06023844 -8.74082057e-14 1.06023844 1.03541055 -2.04526557e-15 1.03541055 -2.04526557e-15 -8.74082057e-14"></polygon>
                        <polygon id="Path" points="3.73535962 3.13963198 3.73535962 2.10422143 4.79937115 2.10422143 4.79937115 3.13220968 5.86715577 3.13220968 5.86715577 4.17875367 4.82200969 4.17875367 4.82200969 5.21416422 3.75799817 5.21416422 3.75799817 4.18617597 2.70530591 4.18617597 2.70530591 3.13963198"></polygon>
                        <polygon id="Path" points="0.00754618106 7.30354105 0.00754618106 6.27926396 1.04891917 6.27926396 1.04891917 7.30354105"></polygon>
                    </g>
                    <path d="M17.2052928,20.9642802 C17.2052928,20.8566569 17.2052928,20.7453224 17.2052928,20.6376991 L17.2052928,15.2157105 L15.2432857,15.2157105 C16.4506747,13.8834081 17.6052404,13.1523117 18.7598061,11.8756765 L18.8277217,11.8756765 L18.8277217,20.9494356 L17.2052928,20.9642802 Z" id="Path"></path>
                    <path d="M19.9596489,20.9642802 L19.9596489,11.8534096 L21.589624,11.8534096 L21.589624,17.3087985 L23.5327656,17.3087985 C23.4308922,17.4312664 23.3705227,17.5054894 23.3101533,17.5722901 C22.2725534,18.715324 21.2349535,19.5874439 20.1973536,20.7304778 C20.129438,20.8047008 20.0766147,20.8863461 20.0162453,20.9642802 L19.9596489,20.9642802 Z" id="Path"></path>
                </g>
            </g>
        </g>
    </g>
</svg>