<svg xmlns="http://www.w3.org/2000/svg" width="22" height="22" viewBox="0 0 22 22">
    <g fill="none" fill-rule="evenodd">
        <g fill="#2F3043" fill-rule="nonzero">
            <g>
                <path d="M10.901 0C6.496-.004 2.521 2.646.832 6.715s-.76 8.755 2.354 11.872c3.114 3.116 7.799 4.05 11.87 2.365 4.07-1.685 6.724-5.656 6.724-10.062C21.768 4.885 16.906.018 10.901 0zm0 19.151c-4.562 0-8.26-3.699-8.26-8.261 0-4.562 3.698-8.261 8.26-8.261 4.563 0 8.261 3.699 8.261 8.261 0 2.191-.87 4.292-2.42 5.841-1.549 1.55-3.65 2.42-5.84 2.42z" transform="translate(-614 -809) translate(614 809)"/>
                <path d="M10.55 6.886v7.7c-.002.383-.22.732-.562.902-.14.068-.294.106-.45.11-.222-.006-.437-.079-.617-.209l-2.42-1.793c-.216-.16-.36-.4-.399-.666-.04-.266.03-.537.19-.753.19-.258.493-.41.814-.407.22-.003.434.071.605.209l.792.594V6.875c.023-.523.445-.94.968-.957.272-.018.54.075.743.257.203.182.324.438.335.711zM15.301 7.942l-2.475-1.848c-.17-.141-.384-.219-.605-.22-.314.002-.61.148-.803.396-.143.177-.22.399-.22.627v7.7c-.009.266.09.524.275.715.255.267.635.376.992.284.358-.09.639-.368.735-.724v-5.94l.792.594c.172.145.391.223.616.22.31 0 .602-.141.792-.385.175-.207.255-.479.22-.748-.009-.258-.124-.501-.319-.671zM12.177 6.16h.121-.12zm2.464 3.3h-.132.132z" transform="translate(-614 -809) translate(614 809)"/>
            </g>
        </g>
    </g>
</svg>
