<svg width="40" height="40" viewBox="0 0 40 40" fill="none" xmlns="http://www.w3.org/2000/svg">
<circle cx="20" cy="20" r="20" fill="#131C4F"/>
<path d="M9.33094 27.8797V25.3006C9.33094 24.2809 8.93573 23.8176 8.14596 23.8176C7.35619 23.8176 6.89276 24.385 6.89276 25.3089V27.8791H6V21.0913H6.00901C6.49719 21.0917 6.89276 21.4868 6.89276 21.9742V23.6377H6.91014C7.19335 23.2181 7.64841 23.0035 8.24058 23.0035C9.37407 23.0035 10.2237 23.7238 10.2237 25.0262V27.8797H9.33094Z" fill="white"/>
<path fill-rule="evenodd" clip-rule="evenodd" d="M11.0206 25.4592C10.991 26.8413 12.1405 27.9831 13.5251 27.9998C15.0602 28.0152 16.1383 26.8169 16.1531 25.5402C16.1705 24.0315 14.934 23.0034 13.621 23.0034C12.183 23.0034 11.0534 24.0456 11.0206 25.4592ZM11.9153 25.4971C11.9153 24.5719 12.6877 23.8175 13.5804 23.8175C14.5121 23.8223 15.2636 24.5802 15.2588 25.5103C15.254 26.4404 14.4948 27.1905 13.563 27.1857C12.6619 27.1857 11.9153 26.3967 11.9153 25.4971Z" fill="white"/>
<path d="M17.0575 27.1685V23.9462H16.6848V23.1321H17.0556V21.5386H17.9483V23.1321H18.7291V23.9462H17.9502V27.9941H17.8859C17.4289 27.9941 17.0582 27.6247 17.0575 27.1685V27.1685Z" fill="white"/>
<path d="M21.3493 24.392C21.3068 24.0489 21.1092 23.8176 20.7398 23.8176C20.3967 23.8176 20.1817 24.0489 20.1817 24.3233C20.1817 24.7262 20.5943 24.8463 21.0661 24.9922C21.7355 25.1978 22.3534 25.6006 22.3534 26.4828C22.3534 27.3997 21.6834 27.9999 20.7565 27.9999C19.8979 27.9999 19.074 27.4171 19.074 26.3203H19.9674C20.0105 26.8941 20.3021 27.1858 20.7745 27.1858C21.1865 27.1858 21.4613 26.9198 21.4613 26.5343C21.4613 26.2085 21.2122 25.9945 20.6542 25.8146C19.4866 25.4458 19.289 24.9408 19.289 24.401C19.289 23.5612 20.0015 23.0042 20.7829 23.0042C21.5643 23.0042 22.2163 23.5529 22.2421 24.3927L21.3493 24.392Z" fill="white"/>
<path d="M23.2983 27.1685V23.9462H22.9282V23.1321H23.299V21.5386H24.1917V23.1321H24.9731V23.9462H24.1911V27.9941H24.1267C23.6697 27.9941 23.299 27.6247 23.2983 27.1685V27.1685Z" fill="white"/>
<path fill-rule="evenodd" clip-rule="evenodd" d="M29.3765 27.1426V27.8796H30.2693V23.1319H29.3765V23.8008H29.3591C28.9903 23.2604 28.4065 23.0034 27.7107 23.0034C26.3114 23.0034 25.2217 24.0662 25.2217 25.5832C25.2217 26.9544 26.3545 27.9998 27.7455 27.9998C28.4232 27.9998 29.0244 27.7081 29.3591 27.1426H29.3765ZM27.7365 23.8175C28.7238 23.8175 29.3932 24.5892 29.3932 25.5145C29.3936 26.4186 28.6734 27.159 27.768 27.1851C26.8888 27.2018 26.1627 26.4879 26.1164 25.6083C26.0629 24.6323 26.8141 23.8175 27.7365 23.8175Z" fill="white"/>
<path d="M31.3081 27.8796V23.1319H32.141V23.5605H32.1577C32.3727 23.2437 32.7415 23.0381 33.3685 23.0034V23.9203C32.5961 23.946 32.2009 24.4176 32.2009 25.2144V27.1079C32.2009 27.5338 31.8551 27.879 31.4285 27.879L31.3081 27.8796Z" fill="white"/>
<path fill-rule="evenodd" clip-rule="evenodd" d="M15.8144 17.5688C15.8202 17.7302 15.8103 17.8918 15.7848 18.0513C15.7623 18.1592 15.732 18.2653 15.6941 18.3688C15.6455 18.4803 15.5911 18.5893 15.5312 18.6952C15.4034 18.9038 15.248 19.0942 15.0691 19.2612C14.5625 19.6982 13.7818 19.9468 13.1053 20.0323C12.6177 20.0901 12.1243 20.0758 11.641 19.9899C11.4749 19.9597 11.2271 19.9025 11.2271 19.9025C11.2271 19.9025 11.2271 20.0014 11.22 20.0708C11.2112 20.1197 11.1974 20.1675 11.1788 20.2135C11.1459 20.2839 11.079 20.3324 11.0018 20.342C10.9017 20.3665 10.7965 20.3614 10.6993 20.3272C10.5454 20.263 10.4901 20.119 10.4637 19.9533C10.4418 19.8209 10.4193 19.5909 10.4193 19.5909C10.4193 19.5909 10.3041 19.5362 10.2082 19.4887C9.92111 19.3458 9.64716 19.1781 9.38943 18.9875C9.32507 18.9368 9.03027 18.6939 8.9659 18.6328C8.78303 18.4712 8.62589 18.2827 8.49989 18.0738C8.40399 17.9036 8.37631 17.7526 8.44969 17.572C8.5501 17.3201 8.91119 17.1306 9.15771 17.0226C9.47525 16.8952 9.80324 16.7955 10.138 16.7245C10.2367 16.7118 10.3347 16.694 10.4315 16.6712C10.4353 16.6683 10.4387 16.6651 10.4418 16.6615C10.447 16.6538 10.4566 16.4045 10.4547 16.3139C10.4528 16.2233 10.5191 15.6354 10.5429 15.5114C10.5545 15.4471 10.6072 15.185 10.6581 15.1169C10.695 15.0752 10.7582 15.0698 10.8016 15.1047C11.07 15.2717 11.1518 15.8506 11.1717 16.1456C11.184 16.3248 11.1897 16.5954 11.1897 16.5954C11.1897 16.5954 11.4987 16.5864 11.6886 16.5954C11.8829 16.6041 12.0764 16.6255 12.2679 16.6596C12.5131 16.6988 12.9907 16.8029 13.2649 16.9417C13.4908 17.0554 13.702 17.2482 13.7702 17.4519C13.8372 17.6102 13.8213 17.7914 13.7277 17.9357C13.6196 18.1286 13.4241 18.2569 13.2038 18.2794C13.1394 18.2827 12.9077 18.2518 12.8356 18.1966C12.8098 18.1732 12.8072 18.1337 12.8298 18.1072C12.8885 18.0702 12.949 18.0363 13.0113 18.0057C13.0417 17.9893 13.07 17.9692 13.0956 17.946C13.1508 17.9103 13.1864 17.8513 13.1922 17.786C13.1845 17.7069 13.1008 17.6575 13.021 17.6273C12.647 17.4788 11.8997 17.3555 11.5405 17.3343C11.3996 17.3259 11.1988 17.3188 11.1988 17.3188L11.2412 19.3107C11.2412 19.3107 11.4073 19.3428 11.538 19.364C11.6133 19.375 11.9312 19.4039 12.0162 19.4058C12.6599 19.4225 13.3795 19.3653 13.9704 19.0845C14.2267 18.9729 14.4574 18.81 14.6481 18.6059C14.8934 18.3201 15.0123 17.9474 14.9777 17.5727C14.9416 17.1486 14.6423 16.6442 14.4029 16.3377C13.7715 15.5268 12.6895 14.8599 11.7369 14.4692C10.7975 14.0673 9.79316 13.8379 8.77216 13.792C8.50633 13.7823 7.92639 13.7958 7.63353 13.8768C7.61709 13.8812 7.60075 13.8861 7.58461 13.8909L7.58461 13.8909C7.55905 13.8985 7.53401 13.906 7.50995 13.9115C7.47748 13.9196 7.44644 13.9326 7.4179 13.95C7.4127 13.9544 7.40775 13.9592 7.4031 13.9642C7.4031 13.9642 7.42112 13.9738 7.4385 13.9815C7.45652 13.9894 7.50847 13.9953 7.56218 14.0014C7.60056 14.0057 7.63985 14.0102 7.66829 14.0156C7.72767 14.0238 7.78113 14.0558 7.81633 14.1042C7.84253 14.1362 7.84253 14.1822 7.81633 14.2141C7.75196 14.2951 7.49965 14.2784 7.38958 14.2642C7.27951 14.2501 7.13212 14.2109 7.10637 14.1113C7.07612 13.9944 7.13212 13.8793 7.19198 13.7733C7.31299 13.5606 7.48613 13.4521 7.74038 13.3814C8.11909 13.2804 8.50745 13.2196 8.89896 13.2002C9.67136 13.1713 10.398 13.3056 11.1447 13.5317C11.622 13.6795 12.0884 13.8607 12.5401 14.074C12.8892 14.246 13.2287 14.4367 13.5571 14.6452C13.6389 14.6992 14.119 15.0507 14.1931 15.113C14.3488 15.2415 14.5522 15.4221 14.6996 15.5679C14.9841 15.85 15.3388 16.2818 15.5113 16.6249C15.5248 16.652 15.5374 16.6789 15.5501 16.7061L15.5501 16.7061C15.5762 16.7618 15.6029 16.819 15.64 16.8819C15.6829 16.9741 15.7197 17.0689 15.7501 17.1659C15.763 17.2218 15.7823 17.3034 15.7848 17.3066C15.8007 17.3933 15.811 17.4808 15.8157 17.5688H15.8144ZM16.0069 16.1167C16.0307 16.0677 16.0581 16.0204 16.0886 15.9753L16.0874 15.9747C16.0906 15.9708 16.1092 15.9804 16.124 15.9914C16.1724 16.0091 16.2224 16.022 16.2734 16.0299C16.3037 16.0319 16.3348 16.0371 16.3662 16.0423C16.3949 16.0471 16.4238 16.0519 16.4523 16.0543C16.6658 16.0603 16.8783 16.0227 17.0767 15.9438C17.4505 15.7947 17.7864 15.5645 18.0602 15.2698C18.2365 15.0912 18.3904 14.7975 18.3337 14.5296C18.3077 14.402 18.2367 14.288 18.1336 14.2083C18.049 14.1434 17.9516 14.0972 17.8478 14.0727C17.8222 14.0708 17.797 14.0652 17.7731 14.056C17.7574 14.0427 17.7437 14.0271 17.7326 14.0098C17.6516 13.9195 17.5494 13.8508 17.4352 13.81C17.1397 13.7052 16.7452 13.7849 16.4768 13.898C16.1954 14.0147 15.9412 14.1882 15.7301 14.4075C15.5312 14.6183 15.3787 14.8849 15.3948 15.1741C15.4028 15.2859 15.4328 15.395 15.483 15.4953C15.4967 15.5199 15.5147 15.5452 15.533 15.5709C15.5667 15.6183 15.6013 15.6669 15.6117 15.7144C15.6167 15.7648 15.6178 15.8155 15.6149 15.8661C15.6181 15.9868 15.6698 16.1012 15.7584 16.1835C15.782 16.2089 15.8148 16.2238 15.8494 16.2247C15.8841 16.2257 15.9176 16.2127 15.9425 16.1886C15.968 16.1685 15.9898 16.1442 16.0069 16.1167ZM16.0011 15.0456C15.9316 15.1374 15.8479 15.2659 15.8479 15.2659L15.846 15.2647C15.846 15.2647 15.828 15.228 15.8164 15.2004C15.7391 15.0038 15.9142 14.7821 16.0738 14.6459C16.1704 14.563 16.3673 14.4345 16.4961 14.4088C16.5514 14.3972 16.6493 14.3876 16.6493 14.3876L16.5334 14.484C16.3382 14.6536 16.16 14.8416 16.0011 15.0456ZM18.9356 17.5585L18.904 17.554L18.9027 17.5598L17.8207 17.4313C17.8101 17.43 17.7996 17.4281 17.7892 17.4255C17.7835 17.4243 17.7753 17.423 17.7654 17.4213C17.6936 17.4094 17.5326 17.3826 17.6 17.3092C17.6389 17.2832 17.6827 17.2652 17.7287 17.2565C18.1024 17.1551 18.5521 17.1396 18.973 17.1251L18.9731 17.1251L18.9731 17.1251L18.9731 17.1251L18.9731 17.1251L18.9731 17.1251L18.9731 17.1251L18.9732 17.1251L18.9732 17.1251L18.9732 17.1251L18.9732 17.1251C19.104 17.1206 19.2319 17.1162 19.3539 17.1094C19.5229 17.1035 19.691 17.0819 19.856 17.0451C19.98 17.0123 20.0754 16.9132 20.1032 16.7881C20.1173 16.7181 20.0819 16.6847 20.0175 16.65C19.5914 16.4238 18.8899 16.4232 18.4554 16.4771C18.0068 16.5324 17.4075 16.6718 17.15 17.04C17.0428 17.1952 17.0031 17.3871 17.04 17.572C17.0711 17.6716 17.1432 17.7534 17.2382 17.7969C17.3331 17.8346 17.4327 17.8592 17.5343 17.8701C17.6202 17.8831 17.9443 17.9105 18.1964 17.9317L18.2964 17.9402C18.5423 17.9607 19.0205 18.0128 19.278 18.1207C19.278 18.1207 19.5213 18.2056 19.5213 18.345C19.5139 18.4123 19.475 18.4722 19.4164 18.5063C19.0327 18.7774 18.5056 18.8545 18.037 18.8468C17.8817 18.8469 17.7282 18.8143 17.5864 18.7511C17.5176 18.7209 17.4275 18.6489 17.4403 18.5724C17.4667 18.4234 17.6315 18.3855 17.768 18.3983C17.854 18.4105 17.9381 18.4336 18.0183 18.4671C18.0818 18.492 18.138 18.5162 18.1896 18.5384C18.3825 18.6213 18.5119 18.677 18.7206 18.645C18.8216 18.6303 19.1615 18.5564 19.2078 18.4157C19.2163 18.3802 19.2047 18.343 19.1776 18.3186C19.1415 18.2814 18.9356 18.2017 18.8796 18.1811C18.621 18.1015 18.354 18.0528 18.084 18.0359C17.8053 18.0263 17.4358 18.0783 17.2633 18.3141C17.1579 18.464 17.1494 18.6614 17.2414 18.8198C17.3624 19.0325 17.6019 19.1976 17.7982 19.2934C18.14 19.4578 18.5205 19.5256 18.8982 19.4893C19.099 19.4706 19.2949 19.4173 19.4775 19.3319C19.7179 19.2291 19.9034 19.0295 19.9882 18.7825C20.0729 18.5355 20.049 18.2643 19.9223 18.0359C19.8511 17.8885 19.7277 17.7727 19.576 17.7108C19.3704 17.6315 19.1549 17.5802 18.9356 17.5585ZM16.7323 15.5011C16.9811 15.4842 17.2231 15.412 17.4403 15.2897C17.656 15.1696 17.9733 14.935 17.9398 14.6587C17.9304 14.5748 17.8759 14.5026 17.7976 14.4705C17.7017 14.4294 17.6515 14.4358 17.5285 14.4705C17.4534 14.4905 17.3814 14.521 17.3148 14.5611C17.0157 14.75 16.7493 14.9864 16.5263 15.2608C16.5052 15.2887 16.4839 15.3181 16.4637 15.3462C16.4419 15.3762 16.4214 15.4046 16.4034 15.4279C16.3815 15.4548 16.3641 15.4799 16.3667 15.4863C16.3738 15.514 16.6338 15.5114 16.7323 15.505V15.5011ZM16.4317 16.5684C16.4471 16.5714 16.4621 16.5757 16.4768 16.5812C16.6119 16.6326 16.6699 16.7573 16.7008 16.8941C16.778 17.2154 16.8108 17.9164 16.8237 18.1921C16.8282 18.2942 16.8317 18.3956 16.8352 18.4967L16.8352 18.4969L16.8352 18.4971C16.8388 18.6006 16.8423 18.7037 16.8469 18.807L16.8489 18.8542V18.8543C16.8561 19.0201 16.8649 19.2243 16.8321 19.3724C16.8173 19.4375 16.7787 19.4948 16.7239 19.533C16.6322 19.5714 16.531 19.5811 16.4336 19.5607C16.236 19.5195 16.1717 19.393 16.1434 19.1976C16.079 18.7318 16.1086 17.8181 16.1479 17.4319C16.1614 17.3034 16.209 16.8967 16.2766 16.7251C16.2991 16.6673 16.348 16.551 16.4324 16.5677L16.4317 16.5684ZM10.4186 17.3414L10.4199 17.3413H10.4186L10.4186 17.3414ZM10.4186 17.3414C10.3974 17.3429 10.118 17.3628 9.92303 17.3844C9.57681 17.4221 9.23499 17.4927 8.90218 17.5951C8.81851 17.6253 8.64472 17.696 8.63313 17.7821C8.62155 17.8682 8.67304 17.9408 8.73483 18.0134C8.77023 18.0552 8.97234 18.2492 9.02898 18.2961C9.3582 18.5564 9.71838 18.775 10.1013 18.947C10.223 18.9972 10.4232 19.0691 10.4232 19.0691C10.4232 19.0691 10.4083 18.4966 10.4109 17.9331C10.4109 17.6386 10.4185 17.3473 10.4186 17.3414ZM24.1885 17.2572C24.1885 17.2572 25.1372 17.2122 25.4977 17.1287L25.4944 17.1325C25.6798 17.0888 25.5704 16.9076 25.5704 16.9076C25.3438 16.4585 25.0864 16.4835 25.0864 16.4835C24.3404 16.4578 23.2487 16.6647 23.138 16.7149C23.0273 16.765 23.0395 16.8479 23.1837 17.0297C23.3414 17.2205 23.5989 17.2025 23.5989 17.2025L23.3704 17.6748C23.1844 17.6877 23.12 17.7461 23.12 17.7461C23.0125 17.8573 23.1605 18.1959 23.1605 18.1959C23.1605 18.1959 22.8368 18.9194 23.0717 19.3049C23.324 19.7065 23.622 19.6872 23.622 19.6872C24.1904 19.729 25.1224 19.1321 25.1726 18.9393C25.2138 18.7813 25.0619 18.6001 24.9396 18.575C24.8173 18.55 23.8892 18.7228 23.7714 18.7549C23.6536 18.787 23.707 18.6746 23.707 18.6746L23.8512 18.1869C23.8512 18.1869 24.751 18.1529 24.8727 18.131C24.9943 18.1092 25.0014 18.0244 25.0014 18.0244C25.0107 17.9349 25.0143 17.845 25.0123 17.7551C24.9995 17.6138 24.8875 17.6266 24.8875 17.6266C24.6148 17.6072 24.3411 17.6089 24.0687 17.6318L24.1885 17.2572ZM22.6913 18.9438C22.596 19.1681 22.3437 19.4077 22.0296 19.2593C21.7155 19.1109 21.2263 18.1027 21.2263 18.1027C21.2263 18.1027 21.039 17.7269 21.003 17.7365C21.003 17.7365 20.9631 17.6632 20.9386 18.0745C20.9329 18.1699 20.9302 18.2861 20.9272 18.4097C20.9175 18.8187 20.9058 19.3098 20.7803 19.4065C20.7154 19.4628 20.6287 19.4875 20.5437 19.4737C20.4588 19.4599 20.3844 19.4091 20.3407 19.3351C20.2525 19.1899 20.2158 18.8455 20.2641 18.2428C20.3123 17.6401 20.4617 16.9924 20.6413 16.7913C20.8142 16.5976 20.9526 16.7264 21.0155 16.785L21.0223 16.7913C21.0223 16.7913 21.2624 17.0091 21.6595 17.6485L21.729 17.7667C21.729 17.7667 22.0895 18.37 22.1275 18.3688C22.1275 18.3688 22.1571 18.3964 22.1835 18.3765C22.2208 18.3662 22.206 18.1721 22.206 18.1721C22.206 18.1721 22.1307 17.5142 21.8024 16.4C21.7733 16.3135 21.7675 16.2209 21.7857 16.1314C21.8191 16.0029 21.9517 16.0614 21.9517 16.0614C21.9517 16.0614 22.4609 16.3184 22.7087 17.146C22.9565 17.9736 22.7891 18.7222 22.692 18.9451L22.6913 18.9438ZM26.42 19.4983C27.2909 19.6982 27.9461 18.8519 28.1779 18.4478V18.4452C28.3183 18.1761 28.3904 17.8767 28.3877 17.5733C28.3877 17.2263 28.2918 16.9038 28.0845 16.756C27.4673 16.3281 26.4715 17.6845 26.0332 18.3565C25.9682 18.0141 26.1999 17.5804 26.1999 17.5804C26.1999 17.5804 26.5739 16.941 26.6247 16.8093C26.6756 16.6776 26.7 16.4071 26.6415 16.3807C26.5829 16.3544 26.4831 16.4405 26.4831 16.4405C25.6476 17.1891 25.5311 18.0192 25.5311 18.0192C25.452 18.4664 25.5447 18.7806 25.6798 19.0004C25.2157 19.9873 24.9885 20.849 25.049 21.3578C25.1018 21.7459 25.3831 22.0261 25.5524 22.0852C25.7229 22.1565 25.7532 21.9515 25.7532 21.9515C25.8584 21.1065 26.0829 20.2806 26.42 19.4983ZM27.9989 17.3812C27.9989 17.3812 27.9648 17.1139 27.7028 17.4082C27.3257 17.8142 27.0034 18.2678 26.7444 18.7575C27.0259 18.7209 27.2926 18.61 27.5168 18.4362C27.679 18.2923 28.0581 17.901 27.997 17.3818L27.9989 17.3812ZM31.3794 17.3201H32.9751V17.3221C33.0459 17.3231 33.1026 17.3811 33.1019 17.4519V17.7828C33.1019 17.8537 33.0442 17.9113 32.9731 17.9113H31.3994V18.1349C31.4024 18.5795 31.3809 19.0239 31.335 19.4662C31.3287 19.5324 31.2729 19.5828 31.2063 19.5825H30.8651C30.831 19.5821 30.7985 19.5674 30.7758 19.542C30.753 19.5166 30.742 19.4828 30.7454 19.4489C30.7933 19.0125 30.8163 18.5738 30.8143 18.1349V17.9113H29.2573C29.1862 17.9113 29.1286 17.8537 29.1286 17.7828V17.4519C29.1286 17.3809 29.1862 17.3233 29.2573 17.3233H30.7924C30.7606 16.7925 30.6927 16.2644 30.589 15.7427C30.5827 15.7111 30.591 15.6783 30.6115 15.6534C30.6323 15.6286 30.6629 15.6143 30.6952 15.6142H31.0627C31.1198 15.6141 31.1687 15.6546 31.1793 15.7106C31.2809 16.2422 31.3477 16.7799 31.3794 17.3201Z" fill="white"/>
<path d="M30.9637 14.8349C29.4298 11.0718 25.938 8.46324 21.8887 8.05553C17.8395 7.64783 13.8962 9.50775 11.6404 12.8893C11.6181 12.9226 11.6126 12.9644 11.6256 13.0024C11.6384 13.0406 11.6684 13.0705 11.7067 13.0833L11.9925 13.1797C12.0092 13.1849 12.0265 13.1878 12.044 13.1881C12.0959 13.187 12.144 13.1606 12.1727 13.1174C14.1092 10.2675 17.3352 8.56154 20.7849 8.56309C24.968 8.56323 28.7451 11.0619 30.3754 14.9075C30.3991 14.9628 30.4535 14.9987 30.5138 14.9987H30.8549C30.8944 14.9983 30.9312 14.9785 30.9533 14.9458C30.9754 14.9131 30.98 14.8716 30.9656 14.8349H30.9637Z" fill="url(#paint0_radial_21_301)"/>
<defs>
<radialGradient id="paint0_radial_21_301" cx="0" cy="0" r="1" gradientUnits="userSpaceOnUse" gradientTransform="translate(30.6456 14.9862) scale(19.0302 18.9929)">
<stop offset="0.007" stop-color="#021192"/>
<stop offset="0.03" stop-color="#021096"/>
<stop offset="0.057" stop-color="#010CB4"/>
<stop offset="0.084" stop-color="#0008CE"/>
<stop offset="0.111" stop-color="#0006D7"/>
<stop offset="0.138" stop-color="#0004E1"/>
<stop offset="0.165" stop-color="#0001FA"/>
<stop offset="0.191" stop-color="#0000FE"/>
<stop offset="0.216" stop-color="#0F1EFF"/>
<stop offset="1" stop-color="#00FFFF" stop-opacity="0"/>
</radialGradient>
</defs>
</svg>
