<svg xmlns="http://www.w3.org/2000/svg" xmlns:xlink="http://www.w3.org/1999/xlink" width="24" height="24" viewBox="0 0 24 24">
    <defs>
        <filter id="qtacy0wb7a">
            <feColorMatrix in="SourceGraphic" values="0 0 0 0 1.000000 0 0 0 0 1.000000 0 0 0 0 1.000000 0 0 0 1.000000 0"/>
        </filter>
        <path id="oge8ryfiab" d="M19.219.781c.794.794 1.385 2.438-.312 5.764-.56 1.1-1.314 2.27-2.216 3.455.902 1.186 1.655 2.357 2.216 3.456 1.696 3.325 1.106 4.97.313 5.763-.42.42-1.075.781-2.088.781-.908 0-2.104-.29-3.677-1.092-1.098-.561-2.269-1.314-3.454-2.216-1.187.902-2.357 1.655-3.456 2.216C4.973 19.709 3.776 20 2.868 20 1.855 20 1.2 19.639.78 19.22c-.793-.795-1.383-2.44.313-5.764.561-1.1 1.315-2.27 2.217-3.456-.903-1.186-1.656-2.356-2.216-3.455C-.603 3.22-.013 1.576.78.781c.794-.793 2.44-1.384 5.764.313 1.098.56 2.27 1.314 3.455 2.217 1.186-.903 2.357-1.657 3.455-2.217C16.78-.604 18.425-.014 19.22.78zm-4.096 11.125l-.373.414c-.381.417-.778.833-1.188 1.243-.545.545-1.099 1.066-1.656 1.56.91.664 1.8 1.221 2.639 1.649 2.029 1.036 2.877.854 2.98.753.1-.101.284-.949-.753-2.98-.427-.838-.985-1.728-1.649-2.64zm-10.247-.002l-.144.198c-2.093 2.934-2.64 5.038-2.256 5.423.099.1.946.284 2.98-.753.838-.428 1.728-.985 2.639-1.648-.558-.495-1.112-1.016-1.657-1.561-.546-.546-1.067-1.1-1.562-1.66zM10 6.395l-.334.293c-.515.456-1.028.94-1.534 1.445-.64.64-1.219 1.265-1.74 1.867.522.603 1.1 1.227 1.741 1.867.615.616 1.241 1.198 1.868 1.74.625-.542 1.25-1.124 1.866-1.74.615-.615 1.197-1.24 1.738-1.867-.54-.626-1.122-1.252-1.737-1.867-.616-.615-1.241-1.197-1.868-1.738zm-7.128-4c-.236 0-.361.046-.396.082-.393.392.188 2.582 2.4 5.62.495-.559 1.017-1.113 1.562-1.658.545-.545 1.099-1.067 1.657-1.56-.911-.665-1.802-1.223-2.64-1.65-1.323-.676-2.144-.833-2.583-.833zm14.256 0c-.44 0-1.26.158-2.583.833-.838.428-1.729.986-2.64 1.65.558.494 1.112 1.016 1.657 1.56.545.545 1.066 1.1 1.56 1.657.665-.91 1.223-1.801 1.65-2.64 1.037-2.03.853-2.878.752-2.978-.035-.036-.16-.081-.396-.081z"/>
    </defs>
    <g fill="none" fill-rule="evenodd">
        <g>
            <g>
                <g filter="url(#qtacy0wb7a)" transform="translate(-80.000000, -377.000000) translate(80.000000, 185.000000) translate(0.000000, 192.000000)">
                    <g transform="translate(2.000000, 2.000000)">
                        <mask id="thzdvrurlc" fill="#fff">
                            <use xlink:href="#oge8ryfiab"/>
                        </mask>
                        <use fill="#EE2737" xlink:href="#oge8ryfiab"/>
                        <g fill="#797A86" mask="url(#thzdvrurlc)">
                            <path d="M0 0H24V24H0z" transform="translate(-2.000000, -2.000000)"/>
                        </g>
                    </g>
                </g>
            </g>
        </g>
    </g>
</svg>
