<svg xmlns="http://www.w3.org/2000/svg" xmlns:xlink="http://www.w3.org/1999/xlink" width="24" height="24" viewBox="0 0 24 24">
    <defs>
        <filter id="zswos52mwa">
            <feColorMatrix in="SourceGraphic" values="0 0 0 0 1.000000 0 0 0 0 1.000000 0 0 0 0 1.000000 0 0 0 1.000000 0"/>
        </filter>
        <path id="9v9nfrh62b" d="M6.428 0c-.3 0-.6.056-.887.168L4.153.714c-.769.303-1.328.974-1.488 1.78-.159.808.105 1.64.702 2.21l1.194 1.14-.048-.022c-.311-.135-.642-.202-.971-.202-.397 0-.792.098-1.15.29l-1.121.604C.568 6.892.099 7.59.014 8.381c-.085.79.226 1.572.832 2.09l3.447 2.948c.448.384 1.01.581 1.575.581.393 0 .788-.096 1.149-.29l.703-.378 1.28-.69 9.116-4.908c1.741-.937 2.394-3.115 1.454-4.853-.628-1.16-1.84-1.88-3.162-1.88-.591 0-1.18.149-1.704.43l-2.77 1.49-4.25-2.57C7.298.118 6.865 0 6.427 0m0 2.414l5.437 3.289 3.99-2.149c.175-.095.366-.14.553-.14.417 0 .82.223 1.032.614.308.567.095 1.275-.475 1.582L7.85 10.52l-1.279.688-.703.378-3.449-2.948 1.123-.604 2.205.962 3.591-1.933L5.04 2.96l1.388-.546"/>
    </defs>
    <g fill="none" fill-rule="evenodd">
        <g>
            <g>
                <g filter="url(#zswos52mwa)" transform="translate(-80.000000, -329.000000) translate(80.000000, 185.000000) translate(0.000000, 144.000000)">
                    <g transform="translate(2.000000, 5.000000)">
                        <mask id="fgmnt2u2yc" fill="#fff">
                            <use xlink:href="#9v9nfrh62b"/>
                        </mask>
                        <use fill="#E72938" xlink:href="#9v9nfrh62b"/>
                        <g fill="#2F3042" mask="url(#fgmnt2u2yc)">
                            <path d="M0 0H24V24H0z" transform="translate(-2.000000, -5.000000)"/>
                        </g>
                    </g>
                </g>
            </g>
        </g>
    </g>
</svg>
