<svg xmlns="http://www.w3.org/2000/svg" xmlns:xlink="http://www.w3.org/1999/xlink" width="130" height="40" viewBox="0 0 130 40">
    <defs>
        <path id="gejwahv0oa" d="M2 0h126c1.105 0 2 .895 2 2v36c0 1.105-.895 2-2 2H2c-1.105 0-2-.895-2-2V2C0 .895.895 0 2 0z"/>
    </defs>
    <g fill="none" fill-rule="evenodd">
        <mask id="472d9dkntb" fill="#fff">
            <use xlink:href="#gejwahv0oa"/>
        </mask>
        <use fill="#2F3043" xlink:href="#gejwahv0oa"/>
        <g mask="url(#472d9dkntb)">
            <g fill-rule="nonzero">
                <path fill="#FF9100" d="M20.22 10.2l-4.064-2.347-5.569 4.161 5.57 4.16 4.078-2.355c.635-.386 1.015-1.061 1.015-1.805s-.38-1.419-1.03-1.813z" transform="translate(16 9)"/>
                <path fill="#25D9F8" d="M11.995 12.014L7.068 18.35.662 23.395c-.394-.395-.634-.93-.634-1.52V2.118c0-.591.24-1.126.634-1.52l6.406 5.08 4.927 6.335z" transform="translate(16 9)"/>
                <path fill="#00C0F1" d="M11.995 12.014L10.587 13.83 10.587 10.198z" transform="translate(16 9)"/>
                <path fill="#7FE881" d="M16.163 7.847l-4.168 4.167L.662.6c.14-.127.281-.226.436-.324.676-.38 1.479-.366 2.14.042l7.35 4.32 5.575 3.21z" transform="translate(16 9)"/>
                <path fill="#5BC980" d="M16.163 7.847L11.995 12.014 10.587 10.606 10.587 4.637z" transform="translate(16 9)"/>
                <path fill="#FF637B" d="M16.163 16.181l-5.576 3.21-7.363 4.3c-.338.196-.704.309-1.084.309-.352 0-.704-.099-1.042-.282-.155-.098-.295-.197-.436-.323l11.333-11.38 4.168 4.166z" transform="translate(16 9)"/>
                <path fill="#E63950" d="M16.163 16.181L10.587 19.392 10.587 13.422 11.995 12.014z" transform="translate(16 9)"/>
                <g fill="#FFF">
                    <path d="M4.962 19.096c1.08 0 1.968-.552 2.244-1.38V19h1.596v-3.24c0-.732-.576-1.356-1.356-1.356h-2.28v1.356h1.62c.204 0 .336.132.336.336 0 .78-1.032 1.536-2.076 1.536-1.392 0-2.496-1.092-2.496-2.832 0-1.74 1.104-2.748 2.532-2.748 1.08 0 1.824.588 1.956 1.488h1.788c-.108-1.8-1.62-3.036-3.732-3.036-2.22 0-4.26 1.428-4.26 4.296 0 2.868 1.98 4.296 4.128 4.296zm7.908 0c1.86 0 3.192-1.32 3.192-3.12s-1.332-3.12-3.192-3.12-3.192 1.32-3.192 3.12 1.332 3.12 3.192 3.12zm0-1.44c-.9 0-1.512-.684-1.512-1.68 0-1.008.612-1.692 1.512-1.692s1.512.684 1.512 1.692c0 .996-.612 1.68-1.512 1.68zm6.984 1.44c1.86 0 3.192-1.32 3.192-3.12s-1.332-3.12-3.192-3.12-3.192 1.32-3.192 3.12 1.332 3.12 3.192 3.12zm0-1.44c-.9 0-1.512-.684-1.512-1.68 0-1.008.612-1.692 1.512-1.692s1.512.684 1.512 1.692c0 .996-.612 1.68-1.512 1.68zm7.788 3.792c1.368 0 2.28-.828 2.28-2.088v-6.408h-1.68v.6c-.336-.42-.936-.696-1.668-.696-1.764 0-2.832 1.236-2.832 3.12 0 1.884 1.068 3.12 2.856 3.12.708 0 1.344-.264 1.656-.708v.792c0 .564-.372.96-.876.96h-2.784v1.308h3.048zm-.78-3.792c-.888 0-1.476-.66-1.476-1.68s.588-1.692 1.476-1.692c.9 0 1.488.672 1.488 1.692s-.588 1.68-1.488 1.68zM33.006 19v-8.676h-1.668V19h1.668zm4.116.096c1.488 0 2.64-.84 2.88-2.148H38.37c-.132.516-.576.78-1.248.78-.84 0-1.38-.528-1.5-1.38h4.344c.012-.132.024-.312.024-.54 0-1.38-.852-2.952-2.988-2.952-2.052 0-2.988 1.572-2.988 3.108 0 1.524 1.056 3.132 3.108 3.132zm1.2-3.804h-2.676c.144-.84.6-1.212 1.356-1.212.804 0 1.272.54 1.32 1.212zM45.414 19v-3.096h1.644c1.788 0 2.832-1.116 2.832-2.652 0-1.548-1.044-2.652-2.832-2.652h-3.456V19h1.812zm1.536-4.596h-1.536V12.1h1.536c.84 0 1.2.54 1.2 1.152 0 .612-.36 1.152-1.2 1.152zM52.482 19v-8.676h-1.668V19h1.668zm3.108.096c.828 0 1.5-.372 1.704-.936V19h1.656v-3.888c0-1.368-1.116-2.256-2.64-2.256-1.656 0-2.64.972-2.712 2.184h1.488c.024-.504.396-.96 1.128-.96.684 0 1.08.348 1.08.852 0 .252-.156.444-.456.444h-1.02c-1.32 0-2.208.72-2.208 1.908 0 1.032.804 1.812 1.98 1.812zm.42-1.212c-.468 0-.804-.276-.804-.672 0-.468.36-.78.864-.78h1.224v.084c0 .768-.468 1.368-1.284 1.368zm5.004 3.564c1.236 0 1.632-.612 2.028-1.728l.252-.72 2.208-6.048h-1.716l-1.26 3.912-1.272-3.912H59.55l2.184 5.976-.228.6c-.156.432-.408.612-.672.612h-.708v1.308h.888z" transform="translate(16 9) translate(32 1)"/>
                    <path d="M3.248 6.064c.72 0 1.312-.368 1.496-.92V6h1.064V3.84c0-.488-.384-.904-.904-.904h-1.52v.904h1.08c.136 0 .224.088.224.224 0 .52-.688 1.024-1.384 1.024-.928 0-1.664-.728-1.664-1.888s.736-1.832 1.688-1.832c.72 0 1.216.392 1.304.992h1.192C5.752 1.16 4.744.336 3.336.336c-1.48 0-2.84.952-2.84 2.864s1.32 2.864 2.752 2.864zM10.608 6V4.96H7.904V3.656h2.08v-1.04h-2.08V1.432h2.616V.4H6.704V6h3.904zm3.184 0V1.432h1.656V.4h-4.512v1.032h1.656V6h1.2zm5.128 0V.4h-1.208V6h1.208zm3.432 0V1.432h1.656V.4h-4.512v1.032h1.656V6h1.2zm6.544.064c1.64 0 2.856-1.216 2.856-2.864S30.536.336 28.896.336c-1.648 0-2.864 1.216-2.864 2.864s1.216 2.864 2.864 2.864zm-.008-1.04c-.96 0-1.648-.776-1.648-1.824s.688-1.832 1.648-1.832 1.656.784 1.656 1.832-.696 1.824-1.656 1.824zm4.84.976V2.296L35.976 6h1.288V.4h-1.208v3.704L33.808.4h-1.28V6h1.2z" opacity=".8" transform="translate(16 9) translate(32 1)"/>
                </g>
            </g>
        </g>
    </g>
</svg>
