<svg xmlns="http://www.w3.org/2000/svg" width="24" height="24" viewBox="0 0 24 24">
    <g fill="none" fill-rule="evenodd">
        <g transform="translate(2 2)">
            <rect width="20" height="20" fill="#2F3044" rx="4"/>
            <g>
                <path fill="#FFF" d="M0 0H14V13H0z" transform="translate(3 3)"/>
                <path fill="#2F3044" fill-rule="nonzero" d="M9.946 2.307H4c-.95 0-1.721.772-1.721 1.72v5.945c0 .95.772 1.722 1.72 1.722h5.946c.948 0 1.72-.772 1.72-1.722V4.028c0-.95-.771-1.721-1.72-1.721zM6.973 10.09c-1.704 0-3.09-1.386-3.09-3.09s1.386-3.09 3.09-3.09 3.09 1.386 3.09 3.09-1.386 3.09-3.09 3.09zm3.19-5.541c-.404 0-.732-.328-.732-.731 0-.403.328-.731.732-.731.403 0 .73.328.73.73 0 .404-.327.732-.73.732z" transform="translate(3 3)"/>
                <path fill="#2F3044" fill-rule="nonzero" d="M6.973 5.216c-.983 0-1.784.8-1.784 1.784s.8 1.784 1.784 1.784S8.757 7.984 8.757 7s-.8-1.784-1.784-1.784z" transform="translate(3 3)"/>
            </g>
            <path fill="#2F3044" fill-rule="nonzero" d="M9.973 0C4.465 0 0 4.465 0 9.973c0 5.508 4.465 9.973 9.973 9.973 5.508 0 9.973-4.465 9.973-9.973C19.946 4.465 15.481 0 9.973 0zm6 12.972c0 1.67-1.358 3.027-3.027 3.027H7c-1.67 0-3.027-1.357-3.027-3.027V7.028C3.974 5.358 5.332 4 7.001 4h5.945c1.669 0 3.026 1.358 3.026 3.027v5.944z"/>
        </g>
    </g>
</svg>
