<svg xmlns="http://www.w3.org/2000/svg" width="24" height="24" viewBox="0 0 24 24">
    <g fill="none" fill-rule="evenodd">
        <rect width="20" height="20" x="2" y="2" fill="#2F3044" rx="4"/>
        <path fill="#F1F2F2" fill-rule="nonzero" d="M18.01 9.136c-.425.188-.882.316-1.362.373.49-.294.866-.758 1.043-1.313-.458.272-.966.47-1.507.576-.433-.461-1.05-.75-1.732-.75-1.31 0-2.374 1.063-2.374 2.374 0 .186.021.367.062.54-1.972-.098-3.721-1.043-4.892-2.48-.204.351-.321.76-.321 1.194 0 .823.419 1.55 1.055 1.975-.388-.012-.755-.118-1.074-.297v.03c0 1.15.818 2.11 1.903 2.327-.199.055-.409.084-.625.084-.153 0-.302-.015-.446-.043.302.943 1.178 1.63 2.217 1.649-.813.636-1.836 1.015-2.948 1.015-.191 0-.38-.01-.566-.033 1.05.674 2.298 1.067 3.638 1.067 4.365 0 6.752-3.617 6.752-6.753 0-.103-.002-.206-.007-.307.464-.335.867-.752 1.185-1.228z"/>
    </g>
</svg>
