<svg xmlns="http://www.w3.org/2000/svg" width="24" height="24" viewBox="0 0 24 24">
    <g fill="none" fill-rule="evenodd">
        <g transform="translate(2 2)">
            <rect width="20" height="20" fill="#2F3044" rx="4"/>
            <path fill="#F1F2F2" fill-rule="nonzero" d="M15.861 10.728v4.093h-2.373v-3.82c0-.958-.343-1.613-1.202-1.613-.656 0-1.045.441-1.217.868-.063.152-.079.364-.079.578v3.987H8.617s.031-6.468 0-7.138h2.373v1.012c-.005.007-.011.015-.015.023h.015v-.023c.316-.486.878-1.18 2.14-1.18 1.56 0 2.731 1.02 2.731 3.213zM6.134 4.242c-.812 0-1.343.533-1.343 1.233 0 .686.516 1.234 1.312 1.234h.015c.828 0 1.343-.548 1.343-1.234-.016-.7-.515-1.233-1.327-1.233zm-1.202 10.58h2.372V7.682H4.932v7.138z"/>
        </g>
    </g>
</svg>
