<svg xmlns="http://www.w3.org/2000/svg" xmlns:xlink="http://www.w3.org/1999/xlink" width="32" height="32" viewBox="0 0 32 32">
    <defs>
        <path id="yqdswax55a" d="M7.636 5.833l4.17-4.169c.38-.38.38-.997 0-1.378-.382-.381-1-.381-1.38 0L6.259 4.455 2.088.285c-.38-.38-.998-.38-1.378 0-.381.382-.381.998 0 1.38l4.168 4.168-4.168 4.17c-.381.38-.381.997 0 1.378.19.19.44.286.689.286.25 0 .5-.096.69-.286l4.169-4.17 4.169 4.17c.19.19.44.286.688.286.25 0 .5-.096.69-.286.381-.381.381-.998 0-1.379L7.636 5.833z"/>
    </defs>
    <g fill="none" fill-rule="evenodd">
        <g>
            <g>
                <g transform="translate(-333 -412) translate(333 412)">
                    <circle cx="16" cy="16" r="16" fill="#D5D6D9"/>
                    <g opacity=".6">
                        <g transform="translate(6 6) translate(3.742 4.167)">
                            <mask id="lfsz8qg44b" fill="#fff">
                                <use xlink:href="#yqdswax55a"/>
                            </mask>
                            <use fill="#E72938" xlink:href="#yqdswax55a"/>
                            <g fill="#2F3042" mask="url(#lfsz8qg44b)">
                                <path d="M0 0H20V20H0z" transform="translate(-3.333 -4.167)"/>
                            </g>
                        </g>
                    </g>
                </g>
            </g>
        </g>
    </g>
</svg>
