<?xml version="1.0" encoding="UTF-8"?>
<svg width="36px" height="36px" viewBox="0 0 36 36" version="1.1" xmlns="http://www.w3.org/2000/svg" xmlns:xlink="http://www.w3.org/1999/xlink">
    <title>EED43A58-7EEF-4545-9D25-F7461EDF5CEC</title>
    <defs>
        <path d="M23.7235294,16.106902 L23.7235294,13.5877428 C24.4147059,13.6114664 24.9705882,14.1615595 24.9705882,14.846581 C24.9705882,15.5316025 24.4147059,16.0816955 23.7235294,16.106902 L23.7235294,16.106902 Z M4.79705882,16.0772474 C4.09558824,16.0639028 3.53088235,15.5049134 3.53088235,14.8139609 C3.53088235,14.1230085 4.09558824,13.5640191 4.79705882,13.5491918 L4.79705882,16.0772474 Z M23.7235294,10.0217758 L23.7235294,9.98915572 C23.7235294,9.90315734 23.6867647,9.83050355 23.675,9.74895337 C23.6838235,9.68074776 23.7147059,9.61995581 23.7147059,9.55026747 C23.7147059,4.28360856 19.475,0 14.2632353,0 C9.05294118,0 4.81470588,4.28360856 4.81470588,9.55026747 C4.81470588,9.6051285 4.83970588,9.65109315 4.84411765,9.70447145 C4.83235294,9.7845389 4.79705882,9.8571927 4.79705882,9.94319107 L4.79705882,9.98767299 C2.15,10.0025003 0,12.1598732 0,14.8139609 C0,17.4576695 2.13382353,19.6061461 4.76764706,19.6372834 L4.76764706,19.6387661 L4.77647059,19.6387661 C4.79264706,19.6387661 4.80882353,19.6432143 4.82352941,19.6432143 C4.83382353,19.6432143 4.84264706,19.6372834 4.85294118,19.6372834 L6.55882353,19.6135597 L6.56176471,19.6135597 C6.56323529,19.6135597 6.56470588,19.612077 6.56617647,19.612077 L6.62794118,19.612077 L6.62794118,19.6002151 C7.57058824,19.5631469 8.32647059,18.7936097 8.32647059,17.8342831 L8.32647059,9.94319107 C8.32647059,9.88981277 8.30147059,9.84236539 8.29705882,9.78898709 C8.30882353,9.70891964 8.34411765,9.63626584 8.34411765,9.55026747 C8.34411765,6.24674381 11,3.55855332 14.2632353,3.55855332 C17.5294118,3.55855332 20.1852941,6.24674381 20.1852941,9.55026747 C20.1852941,9.63626584 20.2220588,9.71040237 20.2338235,9.79046982 C20.225,9.85867543 20.1941176,9.91798465 20.1941176,9.98915572 L20.1941176,21.120014 L16.125,21.120014 C15.6544118,20.6173683 14.9926471,20.2985812 14.2529412,20.2985812 C12.8279412,20.2985812 11.6735294,21.4625247 11.6735294,22.8992906 C11.6735294,24.3360565 12.8279412,25.5 14.2529412,25.5 C14.9926471,25.5 15.6544118,25.1812129 16.1235294,24.6785673 L21.9588235,24.6785673 C22.9338235,24.6785673 23.7235294,23.882341 23.7235294,22.8992906 C23.7235294,22.8221886 23.6897059,22.7569485 23.6808824,22.6842947 C23.6897059,22.6116409 23.7235294,22.5464007 23.7235294,22.4692988 L23.7235294,19.6713862 C26.3602941,19.6461798 28.5,17.4947378 28.5,14.846581 C28.5,12.199907 26.3602941,10.0484649 23.7235294,10.0217758 L23.7235294,10.0217758 Z" id="path-1"></path>
    </defs>
    <g id="Menu" stroke="none" stroke-width="1" fill="none" fill-rule="evenodd">
        <g id="hamburger-menu-desktop" transform="translate(-1069.000000, -671.000000)">
            <g id="Group-30" transform="translate(1069.000000, 671.000000)">
                <g id="Color/Slate" transform="translate(4.500000, 6.000000)">
                    <mask id="mask-2" fill="white">
                        <use xlink:href="#path-1"></use>
                    </mask>
                    <use id="Mask" fill="#E72938" xlink:href="#path-1"></use>
                    <g id="Color/White" mask="url(#mask-2)" fill="#FFFFFF">
                        <g transform="translate(-4.500000, -6.000000)" id="Rectangle">
                            <rect x="0" y="0" width="36" height="36"></rect>
                        </g>
                    </g>
                </g>
            </g>
        </g>
    </g>
</svg>