<?xml version="1.0" encoding="UTF-8"?>
<svg width="64px" height="64px" viewBox="0 0 64 64" version="1.1" xmlns="http://www.w3.org/2000/svg" xmlns:xlink="http://www.w3.org/1999/xlink">
    <title>ir</title>
    <defs>
        <path d="M10.7136419,0 C10.2128807,0 9.71211947,0.0938697318 9.23488396,0.27993295 L6.92096392,1.1901341 C5.64049401,1.69468391 4.70786828,2.81273946 4.44236402,4.15708812 C4.17685976,5.50311303 4.61712632,6.89104406 5.61192709,7.83979885 L7.60152864,9.74066092 L7.52086912,9.70378352 C7.00330385,9.47916667 6.45213045,9.36685824 5.90263746,9.36685824 C5.24223762,9.36685824 4.58351819,9.52945402 3.98697381,9.84961686 L2.11836154,10.8570402 C0.947118066,11.4873084 0.165728945,12.6489464 0.022894375,13.9681513 C-0.118259789,15.2856801 0.399305478,16.5881226 1.40922991,17.4513889 L7.15454045,22.3644636 C7.90232144,23.0047893 8.83830798,23.3333333 9.77933574,23.3333333 C10.4346944,23.3333333 11.0934138,23.17409 11.6949994,22.8505747 L12.8662429,22.2203065 L14.998679,21.0704023 L30.1929165,12.8903257 C33.0949788,11.3280651 34.1838824,7.69899425 32.6160629,4.80244253 C31.5691696,2.8697318 29.5510011,1.66786398 27.3463075,1.66786398 C26.3615892,1.66786398 25.3785512,1.91594828 24.5064201,2.38529693 L19.8903429,4.86949234 L12.8057482,0.585009579 C12.1655133,0.19612069 11.4429384,0 10.7136419,0 M10.7136419,4.02298851 L19.7743949,9.50431034 L26.4237642,5.92385057 C26.716155,5.76460728 27.0354322,5.69085249 27.3463075,5.69085249 C28.0419959,5.69085249 28.7141586,6.06130268 29.067044,6.71336207 C29.579568,7.65876437 29.2250022,8.838841 28.2755724,9.35009579 L13.0830153,17.5318487 L10.9522596,18.6800766 L9.77933574,19.3103448 L4.03234479,14.3972701 L5.90263746,13.3898467 L9.57768693,14.9940134 L15.5632956,11.7722701 L8.39972183,4.93318966 L10.7136419,4.02298851" id="path-1"></path>
    </defs>
    <g id="24th-Aug" stroke="none" stroke-width="1" fill="none" fill-rule="evenodd">
        <g id="01-Consumer_Web_Desktop_V3" transform="translate(-954.000000, -660.000000)">
            <g id="2nd" transform="translate(213.000000, 660.000000)">
                <g id="Group-12-Copy" transform="translate(683.000000, 0.000000)">
                    <g id="ir" transform="translate(58.000000, 0.000000)">
                        <circle id="Oval" fill="#E2EDFB" cx="32" cy="32" r="32"></circle>
                        <g id="Group" transform="translate(12.000000, 12.000000)" opacity="0.800000012">
                            <g id="Color/Slate" transform="translate(3.333333, 8.333333)">
                                <mask id="mask-2" fill="white">
                                    <use xlink:href="#path-1"></use>
                                </mask>
                                <use id="Mask" fill="#E72938" xlink:href="#path-1"></use>
                                <g id="Group" mask="url(#mask-2)">
                                    <g transform="translate(-3.333333, -8.333333)" id="Color/Slate">
                                        <rect id="Rectangle" fill="#2F3042" x="0" y="0" width="40" height="40"></rect>
                                    </g>
                                </g>
                            </g>
                        </g>
                    </g>
                </g>
            </g>
        </g>
    </g>
</svg>