<svg xmlns="http://www.w3.org/2000/svg" xmlns:xlink="http://www.w3.org/1999/xlink" width="21" height="20" viewBox="0 0 21 20">
    <defs>
        <path id="bmq7vq6yqa" d="M9.88 13.617c0 .583-.466 1.055-1.041 1.055H3.006c-.574 0-1.039-.472-1.039-1.055V3.05c0-.582.465-1.054 1.039-1.054h5.833c.575 0 1.04.472 1.04 1.054v4.354H7.015l.683-.694c.384-.389.384-1.02 0-1.41-.384-.39-1.007-.39-1.39 0L3.945 7.696c-.385.39-.385 1.02 0 1.41l2.361 2.397c.192.195.445.293.695.293.252 0 .504-.098.696-.293.384-.39.384-1.02 0-1.41l-.683-.694h2.864v4.218zm3.304-6.213h-1.34V3.05C11.845 1.369 10.498 0 8.84 0H3.006C1.349 0 0 1.369 0 3.05v10.567c0 1.681 1.349 3.05 3.006 3.05h5.833c1.658 0 3.006-1.369 3.006-3.05V9.399h1.339c.543 0 .983-.446.983-.997 0-.551-.44-.998-.983-.998z"/>
    </defs>
    <g fill="none" fill-rule="evenodd">
        <g>
            <g>
                <g>
                    <g>
                        <g transform="translate(-1191.000000, -221.000000) translate(1176.000000, 211.000000) translate(16.000000, 10.000000) translate(9.166667, 10.000000) scale(-1, 1) translate(-9.166667, -10.000000) translate(-0.833333, -0.000000) translate(2.500000, 1.666667)">
                            <mask id="2ioy8m7vkb" fill="#fff">
                                <use xlink:href="#bmq7vq6yqa"/>
                            </mask>
                            <use fill="#EB0000" xlink:href="#bmq7vq6yqa"/>
                            <g fill="#2F3042" mask="url(#2ioy8m7vkb)">
                                <path d="M0 0H20V20H0z" transform="translate(-3.333333, -1.666667)"/>
                            </g>
                        </g>
                    </g>
                </g>
            </g>
        </g>
    </g>
</svg>
