<?xml version="1.0" encoding="UTF-8"?>
<svg width="36px" height="36px" viewBox="0 0 24 24" version="1.1" xmlns="http://www.w3.org/2000/svg" xmlns:xlink="http://www.w3.org/1999/xlink">
    <title>AC83602A-C7B7-4395-B1D7-C08F115D8852</title>
    <defs>
        <filter id="filter-1">
            <feColorMatrix in="SourceGraphic" type="matrix" values="0 0 0 0 1.000000 0 0 0 0 1.000000 0 0 0 0 1.000000 0 0 0 1.000000 0"></feColorMatrix>
        </filter>
        <path d="M10.2709635,15.9505467 C10.2709635,16.3707995 9.92989649,16.71291 9.51092555,16.71291 L3.04015201,16.71291 C2.62118106,16.71291 2.28011401,16.3707995 2.28011401,15.9505467 L2.28011401,3.04945331 C2.28011401,2.62920052 2.62118106,2.28708998 3.04015201,2.28708998 L9.51092555,2.28708998 C9.92989649,2.28708998 10.2709635,2.62920052 10.2709635,3.04945331 L10.2709635,8.40600863 L7.20896045,8.40600863 C6.57907895,8.40600863 6.06890345,8.91774501 6.06890345,9.54955362 C6.06890345,10.1813622 6.57907895,10.6930986 7.20896045,10.6930986 L10.2709635,10.6930986 L10.2709635,15.9505467 Z M18.6665333,8.77384893 L15.4221211,5.51951048 C14.9765488,5.07257498 14.2545127,5.07257498 13.8098905,5.51951048 C13.3643182,5.96549303 13.3643182,6.68973819 13.8098905,7.13667369 L15.0753538,8.40600863 L12.5510776,8.40600863 L12.5510776,3.04945331 C12.5510776,1.36748922 11.1877594,0 9.51092555,0 L3.04015201,0 C1.36426821,0 0,1.36748922 0,3.04945331 L0,15.9505467 C0,17.6325108 1.36426821,19 3.04015201,19 L9.51092555,19 C11.1877594,19 12.5510776,17.6325108 12.5510776,15.9505467 L12.5510776,10.6930986 L15.139957,10.6930986 L13.9732987,11.8633263 C13.5286764,12.3102618 13.5277264,13.033554 13.9732987,13.4804895 C14.1956098,13.7044337 14.4872744,13.8159294 14.779889,13.8159294 C15.0715536,13.8159294 15.3632182,13.7044337 15.5855293,13.4804895 L18.6665333,10.3910121 C18.880294,10.1765975 19,9.88594643 19,9.58195406 C19,9.27891464 18.880294,8.98826362 18.6665333,8.77384893 L18.6665333,8.77384893 Z" id="path-2"></path>
    </defs>
    <g id="Menu" stroke="none" stroke-width="1" fill="none" fill-rule="evenodd">
        <g id="hamburger-menu-mobile" transform="translate(-103.000000, -492.000000)">
            <g id="Group-29" transform="translate(83.000000, 0.000000)">
                <g id="Group-8" transform="translate(20.000000, 100.000000)">
                    <g id="Mobile/Icon/Logout" transform="translate(0.000000, 392.000000)" filter="url(#filter-1)">
                        <g id="Color/Slate" transform="translate(3.000000, 2.000000)">
                            <mask id="mask-3" fill="white">
                                <use xlink:href="#path-2"></use>
                            </mask>
                            <use id="Mask" fill="#D83E40" xlink:href="#path-2"></use>
                            <g mask="url(#mask-3)" fill="#2F3043" id="Rectangle">
                                <g transform="translate(-2.850000, -1.900000)">
                                    <rect x="0" y="0" width="22.8" height="22.8"></rect>
                                </g>
                            </g>
                        </g>
                    </g>
                </g>
            </g>
        </g>
    </g>
</svg>