<svg xmlns="http://www.w3.org/2000/svg" xmlns:xlink="http://www.w3.org/1999/xlink" width="30" height="30" viewBox="0 0 30 30">
    <defs>
        <filter id="pu3ppfnsoa">
            <feColorMatrix in="SourceGraphic" values="0 0 0 0 0.933333 0 0 0 0 0.152941 0 0 0 0 0.215686 0 0 0 1.000000 0"/>
        </filter>
        <path id="1isr6mz0tb" d="M7.427 0c-.551 0-1.104.128-1.602.367L2.101 2.121C.68 2.82-.137 4.298.019 5.821c.343 3.266 1.728 8.126 6.38 12.777 4.651 4.655 9.512 6.04 12.77 6.382.133.014.26.02.383.02 1.413 0 2.678-.787 3.301-2.054l1.777-3.77c.819-1.695.24-3.719-1.356-4.724l-3.593-2.313c-.619-.386-1.296-.582-1.987-.582-.983 0-1.908.382-2.605 1.078l-.48.48c-.452-.21-1.007-.56-1.587-1.139-.578-.578-.927-1.134-1.138-1.586l.478-.478c1.222-1.221 1.436-3.098.52-4.561l-2.353-3.654C9.873.647 8.706 0 7.427 0m0 3.03c.219 0 .432.11.554.308l2.332 3.62c.162.26.124.594-.092.81L8.757 9.232c-.144.142-.213.342-.187.543.093.725.5 2.534 2.31 4.345 1.81 1.81 3.62 2.217 4.344 2.31.027.004.056.006.082.006.173 0 .34-.069.461-.194l1.465-1.463c.126-.126.292-.19.462-.19.12 0 .24.03.346.1l3.62 2.33c.286.178.388.544.238.845l-1.764 3.742c-.109.225-.336.364-.582.364-.023 0-.046-.002-.067-.004-1.865-.196-6.444-1.006-10.943-5.509-4.5-4.501-5.312-9.082-5.508-10.946-.03-.27.115-.529.358-.647L7.136 3.1c.093-.047.193-.07.291-.07"/>
    </defs>
    <g fill="none" fill-rule="evenodd">
        <g>
            <g>
                <g filter="url(#pu3ppfnsoa)" transform="translate(-1009 -291) translate(1009 227) translate(0 59)">
                    <g>
                        <g transform="translate(0 5) translate(2.5 2.5)">
                            <mask id="j1p1cgcd3c" fill="#fff">
                                <use xlink:href="#1isr6mz0tb"/>
                            </mask>
                            <use fill="#E00" xlink:href="#1isr6mz0tb"/>
                            <g fill="#2F3042" mask="url(#j1p1cgcd3c)">
                                <path d="M0 0H30V30H0z" transform="translate(-2.5 -2.5)"/>
                            </g>
                        </g>
                    </g>
                </g>
            </g>
        </g>
    </g>
</svg>
