<svg width="24" height="24" viewBox="0 0 24 24" fill="none" xmlns="http://www.w3.org/2000/svg">
<g clip-path="url(#clip0_167_2295)">
<rect width="24" height="24" rx="12" fill="#2F3043"/>
<path fill-rule="evenodd" clip-rule="evenodd" d="M21.5 20C30.6127 20 38 12.6127 38 3.5C38 -5.6127 30.6127 -13 21.5 -13C12.3873 -13 5 -5.6127 5 3.5C5 12.6127 12.3873 20 21.5 20ZM25 8C29.9706 8 34 3.97056 34 -1C34 -5.97056 29.9706 -10 25 -10C20.0294 -10 16 -5.97056 16 -1C16 3.97056 20.0294 8 25 8Z" fill="#EE2737"/>
<path fill-rule="evenodd" clip-rule="evenodd" d="M4 12.0046V9.21302H4.80734V9.60623C4.98415 9.31459 5.25923 9.1687 5.63216 9.1687C6.08191 9.1687 6.37815 9.33858 6.52027 9.67821C6.59328 9.53425 6.71742 9.41336 6.89237 9.31546C7.06731 9.21762 7.26626 9.1687 7.48923 9.1687C7.80067 9.1687 8.05251 9.2656 8.24473 9.45948C8.43695 9.65328 8.53313 9.89248 8.53313 10.1768V12.0046H7.73149V10.4204C7.73149 10.2396 7.6843 10.0947 7.5902 9.98565C7.49603 9.87682 7.37195 9.82223 7.2181 9.82223C7.05274 9.82223 6.92026 9.87682 6.8202 9.98565C6.72027 10.0947 6.67023 10.2396 6.67023 10.4204V12.0046H5.8629V10.4204C5.8629 10.2396 5.81675 10.0947 5.72446 9.98565C5.63216 9.87682 5.50905 9.82223 5.35542 9.82223C5.18984 9.82223 5.05737 9.87682 4.95723 9.98565C4.85737 10.0947 4.80734 10.2396 4.80734 10.4204V12.0046H4Z" fill="white"/>
<path fill-rule="evenodd" clip-rule="evenodd" d="M11.6072 11.6419C11.3188 11.9133 10.9514 12.0489 10.5056 12.0489C10.0594 12.0489 9.69241 11.9133 9.404 11.6419C9.11567 11.3704 8.97147 11.0262 8.97147 10.6089C8.97147 10.1916 9.11567 9.84729 9.404 9.57584C9.69241 9.30446 10.0594 9.1687 10.5056 9.1687C10.9514 9.1687 11.3188 9.30446 11.6072 9.57584C11.8954 9.84729 12.0396 10.1916 12.0396 10.6089C12.0396 11.0262 11.8954 11.3704 11.6072 11.6419" fill="white"/>
<path fill-rule="evenodd" clip-rule="evenodd" d="M13.1468 12.0047L12.0857 9.21313H12.9046L13.516 11.0188L14.1216 9.21313H14.9464L13.8851 12.0047H13.1468Z" fill="white"/>
<path fill-rule="evenodd" clip-rule="evenodd" d="M17.9569 9.73392C17.5878 9.73392 17.3704 9.92033 17.3052 10.2933H18.5913C18.5798 10.1309 18.5183 9.99698 18.4067 9.89174C18.2951 9.78651 18.1452 9.73392 17.9569 9.73392M18.6145 11.0575H19.3988C19.341 11.3567 19.1853 11.5967 18.9316 11.7776C18.6779 11.9586 18.3722 12.049 18.0146 12.049C17.5493 12.049 17.184 11.9041 16.9188 11.6141C16.6535 11.3244 16.5208 10.9874 16.5208 10.6033C16.5208 10.2156 16.6447 9.87955 16.8929 9.59524C17.141 9.31086 17.4956 9.1687 17.9569 9.1687C18.4299 9.1687 18.7874 9.30533 19.0297 9.57857C19.2719 9.85189 19.3929 10.1695 19.3929 10.5313C19.3929 10.6163 19.3892 10.6994 19.3814 10.7805H17.2937C17.3243 10.98 17.4022 11.136 17.5271 11.2486C17.652 11.3613 17.8145 11.4175 18.0146 11.4175C18.349 11.4175 18.549 11.2976 18.6145 11.0575" fill="white"/>
<path fill-rule="evenodd" clip-rule="evenodd" d="M20.8696 12.0489C20.5118 12.0489 20.2226 11.9594 20.0015 11.7802C19.7804 11.6013 19.662 11.3621 19.6468 11.063H20.3389C20.3541 11.1885 20.4091 11.2874 20.5032 11.3594C20.5974 11.4313 20.7196 11.4673 20.8696 11.4673C20.9925 11.4673 21.0934 11.4415 21.1723 11.3898C21.2511 11.3381 21.2904 11.2734 21.2904 11.1959C21.2904 11.0926 21.2365 11.0169 21.129 10.9688C21.0213 10.9208 20.8905 10.8867 20.7368 10.8664C20.583 10.8461 20.4302 10.8157 20.2784 10.775C20.1264 10.7344 19.9966 10.6512 19.8891 10.5257C19.7814 10.4002 19.7275 10.2285 19.7275 10.0106C19.7275 9.76685 19.8255 9.56564 20.0216 9.40683C20.2177 9.24808 20.4657 9.1687 20.7655 9.1687C21.1155 9.1687 21.3992 9.25174 21.6164 9.41789C21.8336 9.58404 21.9499 9.80377 21.9653 10.077H21.2675C21.2521 9.96266 21.1971 9.87308 21.103 9.80844C21.0088 9.74379 20.9041 9.71153 20.7887 9.71153C20.6735 9.71153 20.5812 9.73553 20.5118 9.78351C20.4427 9.83156 20.408 9.89794 20.408 9.98285C20.408 10.0863 20.4628 10.1593 20.5726 10.2017C20.6821 10.2442 20.8146 10.2728 20.9705 10.2875C21.1262 10.3023 21.2818 10.3282 21.4376 10.365C21.5932 10.4021 21.7259 10.487 21.8355 10.6199C21.945 10.7528 22 10.9356 22 11.1683C22 11.4341 21.897 11.6474 21.6913 11.808C21.4855 11.9686 21.2117 12.0489 20.8696 12.0489" fill="white"/>
<path fill-rule="evenodd" clip-rule="evenodd" d="M5.10723 13.8781C5.10723 14.0111 5.19745 14.1865 5.37836 14.4044C5.55524 14.3268 5.6898 14.2475 5.7821 14.1663C5.87439 14.085 5.92054 13.9834 5.92054 13.8616C5.92054 13.7471 5.883 13.6557 5.80791 13.5874C5.73303 13.5191 5.63394 13.4849 5.5109 13.4849C5.3878 13.4849 5.28974 13.5209 5.21674 13.5929C5.14373 13.6649 5.10723 13.76 5.10723 13.8781V13.8781ZM5.40132 16.1879C5.61283 16.1879 5.81463 16.1252 6.00685 15.9997L5.22845 15.1798C5.08994 15.25 4.98411 15.3258 4.91111 15.407C4.83811 15.4882 4.80161 15.5861 4.80161 15.7006C4.80161 15.852 4.85428 15.9711 4.9601 16.0578C5.066 16.1446 5.21305 16.1879 5.40132 16.1879V16.1879ZM7.65068 16.8192H6.77977L6.4684 16.4925C6.15703 16.7398 5.7993 16.8635 5.39563 16.8635C4.99189 16.8635 4.66414 16.7582 4.41224 16.5478C4.16034 16.3374 4.03445 16.053 4.03445 15.6948C4.03445 15.2517 4.27872 14.9101 4.76691 14.6701C4.52861 14.3821 4.40939 14.1292 4.40939 13.9113C4.40939 13.6048 4.51029 13.3593 4.71216 13.1746C4.91396 12.9899 5.18023 12.8977 5.51089 12.8977C5.8376 12.8977 6.102 12.9899 6.30407 13.1746C6.50594 13.3593 6.60684 13.6012 6.60684 13.9002C6.60684 14.155 6.53849 14.3591 6.40213 14.5122C6.26549 14.6655 6.07806 14.7974 5.83969 14.9083L6.45112 15.5508L6.79122 15.1631C6.9067 15.0191 7.023 14.9221 7.14035 14.8722C7.25749 14.8224 7.40273 14.7974 7.57559 14.7974V15.5121C7.39489 15.5121 7.21418 15.6265 7.03348 15.8554L6.90101 16.0271L7.65068 16.8192Z" fill="white"/>
<path fill-rule="evenodd" clip-rule="evenodd" d="M9.6231 13.2024H10.4247V14.0277H11.2034V14.6702H10.4247V15.7725C10.4247 16.0383 10.5611 16.1713 10.8341 16.1713H11.2034V16.8193H10.7246C10.3862 16.8193 10.1181 16.7306 9.92011 16.5535C9.72198 16.3762 9.6231 16.127 9.6231 15.8057V14.6702H9.06357V14.0277H9.6231V13.2024Z" fill="white"/>
<path fill-rule="evenodd" clip-rule="evenodd" d="M12.4373 16.8192L11.3762 14.0276H12.1951L12.8065 15.8332L13.4121 14.0276H14.2369L13.1756 16.8192H12.4373Z" fill="white"/>
<path fill-rule="evenodd" clip-rule="evenodd" d="M10.1687 9.74516C9.99913 9.65172 9.86166 9.72829 9.86166 9.91597V11.3013C9.86166 11.4891 9.99913 11.5656 10.1687 11.4723L11.4295 10.7779C11.5992 10.6844 11.5992 10.533 11.4295 10.4395L10.1687 9.74516Z" fill="#FBC513"/>
<path fill-rule="evenodd" clip-rule="evenodd" d="M15.2786 12.0048H16.2077V9.21317H15.2786V12.0048ZM15.74 8H15.7465C16.0159 8 16.2343 8.18228 16.2343 8.40714C16.2343 8.632 16.0159 8.81428 15.7465 8.81428H15.74C15.4706 8.81428 15.2522 8.632 15.2522 8.40714C15.2522 8.18228 15.4706 8 15.74 8V8Z" fill="white"/>
</g>
<rect x="0.5" y="0.5" width="23" height="23" rx="11.5" stroke="white"/>
<defs>
<clipPath id="clip0_167_2295">
<rect width="24" height="24" rx="12" fill="white"/>
</clipPath>
</defs>
</svg>
