<svg width="42" height="42" viewBox="0 0 42 42" fill="none" xmlns="http://www.w3.org/2000/svg">
<g clip-path="url(#clip0_167_2350)">
<rect width="42" height="42" rx="21" fill="#2F3043"/>
<path fill-rule="evenodd" clip-rule="evenodd" d="M37.625 35C53.5722 35 66.5 22.0722 66.5 6.125C66.5 -9.82222 53.5722 -22.75 37.625 -22.75C21.6778 -22.75 8.74999 -9.82222 8.74999 6.125C8.74999 22.0722 21.6778 35 37.625 35ZM43.75 13.9999C52.4485 13.9999 59.5 6.94838 59.5 -1.7501C59.5 -10.4486 52.4485 -17.5001 43.75 -17.5001C35.0515 -17.5001 28 -10.4486 28 -1.7501C28 6.94838 35.0515 13.9999 43.75 13.9999Z" fill="#EE2737"/>
<path fill-rule="evenodd" clip-rule="evenodd" d="M7.00001 21.008V16.1227H8.41285V16.8108C8.72228 16.3005 9.20367 16.0452 9.85629 16.0452C10.6433 16.0452 11.1618 16.3425 11.4105 16.9368C11.5382 16.6849 11.7555 16.4733 12.0616 16.302C12.3678 16.1308 12.716 16.0452 13.1062 16.0452C13.6512 16.0452 14.0919 16.2147 14.4283 16.554C14.7647 16.8932 14.933 17.3118 14.933 17.8093V21.008H13.5301V18.2357C13.5301 17.9192 13.4475 17.6656 13.2829 17.4748C13.1181 17.2844 12.9009 17.1888 12.6317 17.1888C12.3423 17.1888 12.1105 17.2844 11.9354 17.4748C11.7605 17.6656 11.6729 17.9192 11.6729 18.2357V21.008H10.2601V18.2357C10.2601 17.9192 10.1793 17.6656 10.0178 17.4748C9.85629 17.2844 9.64085 17.1888 9.37198 17.1888C9.08223 17.1888 8.8504 17.2844 8.67516 17.4748C8.50041 17.6656 8.41285 17.9192 8.41285 18.2357V21.008H7.00001Z" fill="white"/>
<path fill-rule="evenodd" clip-rule="evenodd" d="M20.3126 20.3732C19.8079 20.8481 19.165 21.0856 18.3848 21.0856C17.6039 21.0856 16.9617 20.8481 16.457 20.3732C15.9524 19.8982 15.7001 19.2958 15.7001 18.5654C15.7001 17.8352 15.9524 17.2327 16.457 16.7577C16.9617 16.2827 17.6039 16.0452 18.3848 16.0452C19.165 16.0452 19.8079 16.2827 20.3126 16.7577C20.817 17.2327 21.0693 17.8352 21.0693 18.5654C21.0693 19.2958 20.817 19.8982 20.3126 20.3732" fill="white"/>
<path fill-rule="evenodd" clip-rule="evenodd" d="M23.007 21.0084L21.15 16.123H22.583L23.653 19.2829L24.7127 16.123H26.1562L24.2988 21.0084H23.007Z" fill="white"/>
<path fill-rule="evenodd" clip-rule="evenodd" d="M31.4246 17.0342C30.7787 17.0342 30.3983 17.3604 30.2841 18.013H32.5348C32.5147 17.7288 32.407 17.4945 32.2117 17.3103C32.0165 17.1262 31.754 17.0342 31.4246 17.0342M32.5753 19.3506H33.948C33.8468 19.8741 33.5743 20.2941 33.1303 20.6107C32.6863 20.9274 32.1514 21.0857 31.5255 21.0857C30.7112 21.0857 30.072 20.8321 29.6079 20.3247C29.1437 19.8176 28.9115 19.2279 28.9115 18.5558C28.9115 17.8772 29.1282 17.2891 29.5626 16.7916C29.9967 16.2939 30.6172 16.0452 31.4246 16.0452C32.2523 16.0452 32.878 16.2843 33.3019 16.7624C33.7259 17.2407 33.9375 17.7965 33.9375 18.4298C33.9375 18.5784 33.9311 18.7238 33.9175 18.8659H30.264C30.3175 19.215 30.4539 19.488 30.6725 19.685C30.8911 19.8822 31.1754 19.9806 31.5255 19.9806C32.1108 19.9806 32.4608 19.7707 32.5753 19.3506" fill="white"/>
<path fill-rule="evenodd" clip-rule="evenodd" d="M36.5218 21.0856C35.8957 21.0856 35.3896 20.929 35.0027 20.6153C34.6157 20.3022 34.4086 19.8836 34.382 19.3602H35.5931C35.6197 19.5799 35.7159 19.7529 35.8807 19.8788C36.0455 20.0048 36.2593 20.0678 36.5218 20.0678C36.7368 20.0678 36.9134 20.0226 37.0516 19.9321C37.1894 19.8416 37.2583 19.7285 37.2583 19.5928C37.2583 19.4121 37.1639 19.2794 36.9758 19.1954C36.7873 19.1114 36.5583 19.0517 36.2894 19.0161C36.0203 18.9806 35.7528 18.9273 35.4872 18.8562C35.2212 18.7852 34.994 18.6396 34.8059 18.4199C34.6174 18.2003 34.5231 17.8998 34.5231 17.5184C34.5231 17.0919 34.6947 16.7398 35.0379 16.4619C35.3809 16.1841 35.815 16.0452 36.3397 16.0452C36.9521 16.0452 37.4486 16.1905 37.8287 16.4812C38.2088 16.772 38.4123 17.1565 38.4393 17.6347H37.2181C37.1913 17.4346 37.095 17.2778 36.9303 17.1647C36.7655 17.0516 36.5821 16.9951 36.3803 16.9951C36.1786 16.9951 36.017 17.0371 35.8957 17.1211C35.7748 17.2052 35.7141 17.3213 35.7141 17.4699C35.7141 17.6509 35.81 17.7786 36.002 17.8529C36.1936 17.9272 36.4256 17.9774 36.6983 18.003C36.9708 18.0289 37.2432 18.0743 37.5157 18.1387C37.7881 18.2035 38.0203 18.3521 38.2121 18.5847C38.4038 18.8174 38.5 19.1373 38.5 19.5444C38.5 20.0097 38.3198 20.3829 37.9597 20.664C37.5997 20.9449 37.1205 21.0856 36.5218 21.0856" fill="white"/>
<path fill-rule="evenodd" clip-rule="evenodd" d="M8.93766 24.2866C8.93766 24.5193 9.09553 24.8262 9.41212 25.2075C9.72168 25.0717 9.95715 24.9329 10.1187 24.7908C10.2802 24.6486 10.3609 24.4709 10.3609 24.2577C10.3609 24.0573 10.2952 23.8974 10.1638 23.7777C10.0328 23.6583 9.85939 23.5985 9.64407 23.5985C9.42864 23.5985 9.25704 23.6614 9.12929 23.7874C9.00153 23.9134 8.93766 24.0799 8.93766 24.2866V24.2866ZM9.45229 28.329C9.82244 28.329 10.1756 28.2193 10.512 27.9995L9.14978 26.5649C8.90739 26.6877 8.72219 26.8203 8.59444 26.9623C8.46668 27.1045 8.4028 27.2758 8.4028 27.4761C8.4028 27.7411 8.49498 27.9495 8.68017 28.1013C8.86549 28.2532 9.12282 28.329 9.45229 28.329V28.329ZM13.3887 29.4337H11.8646L11.3197 28.8619C10.7748 29.2948 10.1488 29.5113 9.44235 29.5113C8.73581 29.5113 8.16225 29.327 7.72142 28.9587C7.28059 28.5905 7.0603 28.0928 7.0603 27.4659C7.0603 26.6906 7.48777 26.0928 8.3421 25.6727C7.92507 25.1688 7.71644 24.7261 7.71644 24.3449C7.71644 23.8084 7.89301 23.3788 8.24628 23.0556C8.59943 22.7325 9.0654 22.571 9.64406 22.571C10.2158 22.571 10.6785 22.7325 11.0321 23.0556C11.3854 23.3788 11.562 23.8021 11.562 24.3254C11.562 24.7713 11.4424 25.1284 11.2037 25.3964C10.9646 25.6647 10.6366 25.8956 10.2194 26.0896L11.2895 27.214L11.8846 26.5354C12.0867 26.2835 12.2903 26.1138 12.4956 26.0265C12.7006 25.9392 12.9548 25.8956 13.2573 25.8956V27.1462C12.9411 27.1462 12.6248 27.3465 12.3086 27.747L12.0768 28.0475L13.3887 29.4337Z" fill="white"/>
<path fill-rule="evenodd" clip-rule="evenodd" d="M16.8404 23.1042H18.2433V24.5486H19.6059V25.6729H18.2433V27.6019C18.2433 28.0671 18.4819 28.2998 18.9597 28.2998H19.6059V29.4339H18.768C18.1758 29.4339 17.7067 29.2787 17.3602 28.9687C17.0135 28.6584 16.8404 28.2222 16.8404 27.6601V25.6729H15.8612V24.5486H16.8404V23.1042Z" fill="white"/>
<path fill-rule="evenodd" clip-rule="evenodd" d="M21.7653 29.4336L19.9084 24.5483H21.3414L22.4114 27.7082L23.4711 24.5483H24.9145L23.0572 29.4336H21.7653Z" fill="white"/>
<path fill-rule="evenodd" clip-rule="evenodd" d="M17.7953 17.0541C17.4985 16.8906 17.2579 17.0246 17.2579 17.353V19.7773C17.2579 20.1061 17.4985 20.2398 17.7953 20.0766L20.0016 18.8614C20.2985 18.6978 20.2985 18.4328 20.0016 18.2693L17.7953 17.0541Z" fill="#FBC513"/>
<path fill-rule="evenodd" clip-rule="evenodd" d="M26.7376 21.0084H28.3634V16.1231H26.7376V21.0084ZM27.545 14H27.5564C28.0279 14 28.4101 14.319 28.4101 14.7125C28.4101 15.106 28.0279 15.425 27.5564 15.425H27.545C27.0735 15.425 26.6913 15.106 26.6913 14.7125C26.6913 14.319 27.0735 14 27.545 14V14Z" fill="white"/>
</g>
<rect x="1" y="1" width="40" height="40" rx="20" stroke="white" stroke-width="2"/>
<defs>
<clipPath id="clip0_167_2350">
<rect width="42" height="42" rx="21" fill="white"/>
</clipPath>
</defs>
</svg>
