<svg xmlns="http://www.w3.org/2000/svg" xmlns:xlink="http://www.w3.org/1999/xlink" width="20" height="20" viewBox="0 0 20 20">
    <defs>
        <path id="wfjwby0l6a" d="M9.518 9.149c2.514 0 4.56 2.045 4.56 4.56v.25c0 1.47-1.196 2.667-2.667 2.667H2.667C1.196 16.626 0 15.43 0 13.959v-.25c0-2.515 2.046-4.56 4.56-4.56zm0 2H4.56c-1.411 0-2.56 1.148-2.56 2.56v.25c0 .362.305.667.667.667h8.744c.362 0 .667-.305.667-.667v-.25c0-1.412-1.149-2.56-2.56-2.56zM7.048 0c2.32 0 4.207 1.888 4.207 4.208 0 2.32-1.887 4.207-4.225 4.207-2.32 0-4.207-1.887-4.207-4.207S4.71 0 7.03 0zm0 2H7.03c-1.218 0-2.207.988-2.207 2.208 0 1.219.989 2.207 2.207 2.207h.018c1.219 0 2.207-.988 2.207-2.207C9.255 2.988 8.267 2 7.048 2z"/>
    </defs>
    <g fill="none" fill-rule="evenodd">
        <g>
            <g>
                <g>
                    <g>
                        <g transform="translate(-1192.000000, -173.000000) translate(1176.000000, 163.000000) translate(16.000000, 10.000000) translate(0.000000, 0.000000) translate(3.333333, 1.666667)">
                            <mask id="j4dtwawc7b" fill="#fff">
                                <use xlink:href="#wfjwby0l6a"/>
                            </mask>
                            <use fill="#E72938" xlink:href="#wfjwby0l6a"/>
                            <g fill="#2F3042" mask="url(#j4dtwawc7b)">
                                <path d="M0 0H20V20H0z" transform="translate(-3.333333, -1.666667)"/>
                            </g>
                        </g>
                    </g>
                </g>
            </g>
        </g>
    </g>
</svg>
