<?xml version="1.0" encoding="UTF-8"?>
<svg width="23px" height="31px" viewBox="0 0 23 31" version="1.1" xmlns="http://www.w3.org/2000/svg" xmlns:xlink="http://www.w3.org/1999/xlink">
    <title>C813BD4D-C565-43AA-8D60-17F5DEC93DD0</title>
    <defs>
        <path d="M17.5355099,8.98836561e-14 C20.2737365,8.98836561e-14 22.5,2.13933486 22.5,4.76880981 L22.5,28.1897592 C22.5,28.9495954 22.0054909,29.5997784 21.3080673,29.8582507 C21.0774306,29.9520741 20.82942,30 20.5799835,30 C20.2060953,30 19.8291043,29.8927353 19.5017583,29.6677774 L15.4634558,26.9072011 L12.50493,29.4621867 C11.800593,30.07002 10.7316762,30.0729996 10.0242364,29.4696356 L7.00210301,26.8952828 L2.99793146,29.6290429 C2.83518427,29.7401779 2.66020046,29.8225828 2.4794973,29.8773282 C2.28644277,29.9419347 2.07836633,29.9775042 1.86168379,29.9775042 C0.834654899,29.9775042 -1.13935528e-12,29.1759985 -1.13935528e-12,28.1897592 L-1.13935528e-12,4.76880981 C-1.13935528e-12,2.13933486 2.22781493,8.98836561e-14 4.96449011,8.98836561e-14 L17.5355099,8.98836561e-14 Z M17.5355099,3.5769798 L4.96449011,3.5769798 C4.29273254,3.5769798 3.72491898,4.12224203 3.72491898,4.76880981 L3.724,24.744 L6.05109288,23.1559162 C6.75698131,22.6747148 7.71574847,22.722388 8.36423499,23.276589 L11.2513963,25.7362282 L14.082707,23.2914869 C14.7311935,22.729837 15.6992691,22.6776944 16.406709,23.1633651 L18.776,24.783 L18.7766324,4.76880981 C18.7766324,4.12224203 18.2088189,3.5769798 17.5355099,3.5769798 Z M15.8416879,6.90397326 L15.264566,8.79302382 L13.5812935,8.79302382 C13.7550507,9.10438941 13.8838171,9.45002011 13.9644901,9.82693635 L13.9644901,9.82693635 L15.8416879,9.82693635 L15.264566,11.7159869 L14.0017238,11.7159869 C13.8465835,12.6426347 13.4106392,13.3636919 12.7031993,13.8583013 C12.0779839,14.2962989 11.2526374,14.5555219 10.2411225,14.6315011 L10.2411225,14.6315011 L14.125836,18.978701 L14.125836,19.4882083 L11.7258153,19.4882083 L7.01575536,14.1979729 L7.00334414,12.7662871 L9.44990692,12.7662871 C10.096842,12.7618177 10.6243191,12.6277369 11.0152727,12.3700036 C11.2836654,12.1942087 11.4791422,11.9781895 11.6079087,11.7159869 L11.6079087,11.7159869 L6.66203544,11.7159869 L7.23760601,9.82693635 L11.5846377,9.82693635 C11.2572916,9.1654707 10.5684686,8.82579915 9.4917948,8.79302382 L9.4917948,8.79302382 L6.67599807,8.79302382 L7.26553127,6.90397326 L15.8416879,6.90397326 Z" id="path-1"></path>
    </defs>
    <g id="Menu" stroke="none" stroke-width="1" fill="none" fill-rule="evenodd">
        <g id="hamburger-menu-desktop" transform="translate(-1075.000000, -236.000000)">
            <g id="Group-14" transform="translate(1069.000000, 233.000000)">
                <g id="Color/Slate" transform="translate(6.000000, 3.000000)">
                    <mask id="mask-2" fill="white">
                        <use xlink:href="#path-1"></use>
                    </mask>
                    <use id="Mask" fill="#FFFFFF" xlink:href="#path-1"></use>
                </g>
            </g>
        </g>
    </g>
</svg>