<svg xmlns="http://www.w3.org/2000/svg" xmlns:xlink="http://www.w3.org/1999/xlink" width="22" height="22" viewBox="0 0 22 22">
    <defs>
        <path id="z7vq037ara" d="M11 0c6.065 0 11 4.935 11 11s-4.935 11-11 11S0 17.065 0 11 4.935 0 11 0zm0 2.684c-4.586 0-8.316 3.73-8.316 8.317 0 4.585 3.73 8.315 8.316 8.315s8.316-3.73 8.316-8.315c0-4.587-3.73-8.317-8.316-8.317zM9.23 5.53c.376 0 .752.08 1.103.239l.207.104 2.43 1.359 2.43 1.36c.836.47 1.36 1.348 1.372 2.308.012.894-.422 1.731-1.15 2.238l-.16.104-2.394 1.424-2.394 1.424c-.422.251-.897.377-1.372.377-.45 0-.904-.113-1.31-.341-.781-.438-1.29-1.232-1.363-2.117l-.01-.19-.037-2.785-.036-2.784c-.013-.96.487-1.852 1.31-2.342.423-.252.898-.378 1.373-.378zm0 2.684L9.265 11l.036 2.785 2.394-1.425 2.393-1.423-4.86-2.722z"/>
    </defs>
    <g fill="none" fill-rule="evenodd">
        <g>
            <g>
                <g>
                    <g fill-rule="nonzero">
                        <path d="M11 0c6.065 0 11 4.935 11 11s-4.935 11-11 11S0 17.065 0 11 4.935 0 11 0zm0 2.684c-4.586 0-8.316 3.73-8.316 8.317 0 4.585 3.73 8.315 8.316 8.315s8.316-3.73 8.316-8.315c0-4.587-3.73-8.317-8.316-8.317zM9.23 5.53c.376 0 .752.08 1.103.239l.207.104 2.43 1.359 2.43 1.36c.836.47 1.36 1.348 1.372 2.308.012.894-.422 1.731-1.15 2.238l-.16.104-2.394 1.424-2.394 1.424c-.422.251-.897.377-1.372.377-.45 0-.904-.113-1.31-.341-.781-.438-1.29-1.232-1.363-2.117l-.01-.19-.037-2.785-.036-2.784c-.013-.96.487-1.852 1.31-2.342.423-.252.898-.378 1.373-.378zm0 2.684L9.265 11l.036 2.785 2.394-1.425 2.393-1.423-4.86-2.722z" transform="translate(-614 -914) translate(614 910) translate(0 4)"/>
                    </g>
                    <g transform="translate(-614 -914) translate(614 910) translate(0 4)">
                        <mask id="2tt8b7gujb" fill="#fff">
                            <use xlink:href="#z7vq037ara"/>
                        </mask>
                        <g mask="url(#2tt8b7gujb)">
                            <g>
                                <path fill="#2F3043" fill-rule="nonzero" d="M0 0H26.4V26.4H0z" transform="translate(-2.2 -2.2)"/>
                            </g>
                        </g>
                    </g>
                </g>
            </g>
        </g>
    </g>
</svg>
