<?xml version="1.0" encoding="UTF-8"?>
<svg width="64px" height="64px" viewBox="0 0 64 64" version="1.1" xmlns="http://www.w3.org/2000/svg" xmlns:xlink="http://www.w3.org/1999/xlink">
    <title>port-to-vi</title>
    <defs>
        <path d="M17.8867897,-2.30926389e-14 C20.8908989,-2.30926389e-14 23.3333333,2.38889555 23.3333333,5.32715383 L23.3333333,28.0061795 C23.3333333,30.942773 20.8908989,33.3333333 17.8867897,33.3333333 L5.44654363,33.3333333 C2.44413646,33.3333333 7.28306304e-14,30.942773 7.28306304e-14,28.0061795 L7.28306304e-14,5.32715383 C7.28306304e-14,2.38889555 2.44413646,-2.30926389e-14 5.44654363,-2.30926389e-14 L17.8867897,-2.30926389e-14 Z M17.8867897,3.99536538 L5.44654363,3.99536538 C4.7095582,3.99536538 4.08660977,4.6046586 4.08660977,5.32715383 L4.08660977,28.0061795 C4.08660977,28.72701 4.7095582,29.337968 5.44654363,29.337968 L17.8867897,29.337968 C18.6254772,29.337968 19.2484256,28.72701 19.2484256,28.0061795 L19.2484256,5.32715383 C19.2484256,4.6046586 18.6254772,3.99536538 17.8867897,3.99536538 Z M11.6321152,23.6545607 C12.648236,23.6545607 13.4737277,24.4602927 13.4737277,25.4558046 C13.4737277,26.4496517 12.648236,27.2553838 11.6321152,27.2553838 C10.6159944,27.2553838 9.79220463,26.4496517 9.79220463,25.4558046 C9.79220463,24.4602927 10.6159944,23.6545607 11.6321152,23.6545607 Z M12.9340093,6.59201992 L17.282734,10.0929588 C18.155883,10.7938125 18.2801323,12.0523526 17.5635714,12.9046972 C16.8470105,13.7587066 15.5585625,13.8785675 14.6888176,13.1793786 L13.681207,12.3686524 L13.681207,19.5752927 C13.681207,20.6773476 12.7672089,21.5729753 11.6387531,21.5729753 C10.5102974,21.5729753 9.59629927,20.6790123 9.59629927,19.5752927 L9.59459722,12.3786408 L8.58698665,13.189367 C7.71724171,13.8902207 6.42879374,13.7703597 5.71223284,12.9163504 C4.99567194,12.0640058 5.11992122,10.8054657 5.9913682,10.104612 L10.1852068,6.73019298 C10.3503052,6.56704889 10.5443383,6.43054057 10.7639021,6.3289917 C11.4770589,5.99937406 12.3212731,6.10092293 12.9340093,6.59201992 Z" id="path-1"></path>
    </defs>
    <g id="22nd-March-2021" stroke="none" stroke-width="1" fill="none" fill-rule="evenodd">
        <g id="port-to-vi">
            <g fill="#E2EDFB" id="Oval">
                <circle cx="32" cy="32" r="32"></circle>
            </g>
            <g transform="translate(12.000000, 12.000000)">
                <rect id="Rectangle" stroke="#979797" fill="#D8D8D8" opacity="0" x="0.5" y="0.5" width="39" height="39"></rect>
                <g id="Mobile/Icon/Sim" opacity="0.800000012" transform="translate(8.333333, 3.333333)">
                    <g id="Color/Slate" transform="translate(-0.000000, 0.000000)">
                        <mask id="mask-2" fill="white">
                            <use xlink:href="#path-1"></use>
                        </mask>
                        <use id="Mask" fill="#2F3043" xlink:href="#path-1"></use>
                    </g>
                </g>
            </g>
        </g>
    </g>
</svg>