<svg xmlns="http://www.w3.org/2000/svg" xmlns:xlink="http://www.w3.org/1999/xlink" width="64" height="64" viewBox="0 0 64 64">
    <defs>
        <path id="3p3tfg66fa" d="M6.813 13.763l.957 5.702 17.85-.003.956-5.688-3.504 2.955c-.47.396-1.099.56-1.72.438-.611-.124-1.13-.515-1.4-1.06L16.7 9.556l-3.241 6.546c-.27.546-.789.938-1.4 1.06-.611.124-1.248-.038-1.72-.435l-3.526-2.964zm-.747 9.57c-.983 0-1.82-.688-1.975-1.624L2.26 10.782c-.439-.161-.846-.406-1.19-.728C.385 9.414-.004 8.523 0 7.609.012 5.8 1.558 4.311 3.447 4.3h.022c1.87 0 3.427 1.457 3.477 3.256.009.362-.045.721-.155 1.061l4.191 3.526 2.939-5.934c-.639-.656-1.022-1.544-1.02-2.522.001-.996.408-1.929 1.147-2.63C14.78.36 15.75-.036 16.76.004c2.044.032 3.689 1.606 3.744 3.59.03 1.023-.357 1.95-1.02 2.626l2.94 5.923 4.09-3.45c-.086-.298-.13-.607-.126-.923.011-1.811 1.556-3.297 3.445-3.308h-.001.023c1.87 0 3.429 1.455 3.477 3.253.037 1.413-.909 2.692-2.221 3.206L29.3 21.706c-.159.936-.994 1.624-1.977 1.624l-21.257.003z"/>
    </defs>
    <g fill="none" fill-rule="evenodd">
        <circle cx="32" cy="32" r="32" fill="#CADEF8" opacity=".532"/>
        <g opacity=".8" transform="translate(15.333 20.333)">
            <mask id="8w3b2ut97b" fill="#fff">
                <use xlink:href="#3p3tfg66fa"/>
            </mask>
            <use fill="#EB0000" xlink:href="#3p3tfg66fa"/>
            <g fill="#2F3042" mask="url(#8w3b2ut97b)">
                <path d="M0 0H40V40H0z" transform="translate(-3.333 -8.333)"/>
            </g>
        </g>
    </g>
</svg>
