<svg xmlns="http://www.w3.org/2000/svg" width="22" height="21" viewBox="0 0 22 21">
    <g fill="none" fill-rule="evenodd">
        <g fill="#2F3043" fill-rule="nonzero">
            <g>
                <path d="M10.768 7.252v6.445c0 .32-.18.615-.466.761-.116.06-.244.092-.373.096-.185-.002-.364-.063-.512-.174L7.41 12.864c-.371-.282-.448-.81-.174-1.186.161-.216.416-.342.685-.338.182-.002.36.06.502.174l.657.492V7.242c.024-.436.375-.784.812-.803h.038c.452.003.822.361.839.813zM14.721 8.128l-.036-.028-2.009-1.515c-.144-.119-.325-.183-.511-.183-.261.002-.507.123-.667.33-.117.151-.181.337-.182.528v6.437c-.015.463.349.852.813.867.4.013.755-.252.857-.639h.026V8.96l.658.493c.147.12.331.185.52.183.257 0 .5-.118.658-.32.146-.172.212-.398.182-.621-.02-.224-.132-.429-.309-.566zm-2.592-1.474c.018 0 .026-.012.036-.012.036 0 .073.023.1.023-.045-.01-.09-.013-.136-.011zm2.062 2.764c-.037-.002-.073-.01-.11-.023.046.01.092.014.138.012-.01.005-.018.016-.028.016v-.005z" transform="translate(-614 -877) translate(614 877)"/>
                <path d="M19.685 9.178c-.584 0-1.1-.38-1.274-.937-.975-3.128-3.772-5.335-7.041-5.556-3.27-.221-6.338 1.59-7.725 4.558-.202.432-.619.723-1.094.765-.474.04-.935-.175-1.208-.565-.273-.39-.317-.897-.115-1.33C3.082 2.149 7.182-.27 11.549.025c4.368.295 8.106 3.244 9.41 7.423.126.405.052.846-.2 1.188-.25.342-.65.544-1.074.543z" transform="translate(-614 -877) translate(614 877)"/>
                <path d="M15.192 7.13L21.911 4.361 20.546 10.01zM.953 13.273c-.218-.703.174-1.45.877-1.67.704-.219 1.451.174 1.67.877.976 3.128 3.773 5.335 7.042 5.556 3.27.22 6.338-1.59 7.726-4.558.194-.444.614-.747 1.096-.793.482-.045.95.175 1.224.574.274.4.31.916.094 1.349-1.752 3.723-5.492 6.103-9.606 6.113-4.646.017-8.757-3.007-10.123-7.448z" transform="translate(-614 -877) translate(614 877)"/>
                <path d="M6.72 13.591L0 16.36 1.366 10.712z" transform="translate(-614 -877) translate(614 877)"/>
            </g>
        </g>
    </g>
</svg>
