<?xml version="1.0" encoding="UTF-8"?>
<svg width="36px" height="36px" viewBox="0 0 24 24" version="1.1" xmlns="http://www.w3.org/2000/svg" xmlns:xlink="http://www.w3.org/1999/xlink">
    <title>FA2FFB85-F3A8-40F0-92A2-5791696CAC46</title>
    <defs>
        <filter id="filter-1">
            <feColorMatrix in="SourceGraphic" type="matrix" values="0 0 0 0 1.000000 0 0 0 0 1.000000 0 0 0 0 1.000000 0 0 0 1.000000 0"></feColorMatrix>
        </filter>
        <path d="M14.5429088,13.8477685 C14.5429088,14.2090641 14.285938,14.4968758 13.9480879,14.5764833 L13.9480879,8.50590052 C13.9480879,7.64756828 13.6133092,6.84128711 13.0041554,6.2340247 L10.6453478,3.88356199 C10.045408,3.28446446 9.21613972,2.9415398 8.36639566,2.9415398 L8.34899127,2.9415398 L5.56838302,2.95684894 C5.6809997,2.68026388 5.95230352,2.4802245 6.26865402,2.47920389 L11.4131888,2.45062684 C11.6128275,2.47001841 11.8165613,2.53023434 11.9598916,2.67414023 L14.3186992,5.02562355 C14.4630533,5.16952943 14.5429088,5.36242455 14.5429088,5.56552575 L14.5429088,13.8477685 Z M11.4909967,16.7881432 C11.4909967,17.2086342 11.1480277,17.5505382 10.726227,17.5505382 L3.22288467,17.5505382 C2.80108401,17.5505382 2.45811503,17.2086342 2.45811503,16.7881432 L2.45811503,6.18197364 C2.45811503,5.76352392 2.79903643,5.42161987 3.21776573,5.41957866 L8.36230051,5.39202221 L8.36741945,5.39202221 C8.57115327,5.39202221 8.76260163,5.47060911 8.90797952,5.6155356 L11.2667871,7.96599832 C11.4111412,8.1099042 11.4909967,8.3017787 11.4909967,8.50590052 L11.4909967,16.7881432 Z M16.0570912,3.29364994 L13.6972599,0.941146004 C13.0922011,0.340007255 12.233243,-0.0233295781 11.3998796,0.00116503985 L6.25432099,0.0297420941 C4.57838001,0.039948185 3.21367058,1.3453072 3.07853056,2.98236417 C1.37187594,3.06095107 0,4.46428856 0,6.18197364 L0,16.7881432 C0,18.5589 1.44661247,20 3.22288467,20 L10.726227,20 C12.4144535,20 13.788377,18.694641 13.9224932,17.0453367 C15.6311954,16.968791 17,15.569536 17,13.8477685 L17,5.56552575 C17,4.70719352 16.6652213,3.90091234 16.0570912,3.29364994 L16.0570912,3.29364994 Z" id="path-2"></path>
    </defs>
    <g id="Menu" stroke="none" stroke-width="1" fill="none" fill-rule="evenodd">
        <g id="hamburger-menu-mobile" transform="translate(-103.000000, -345.000000)">
            <g id="Group-29" transform="translate(83.000000, 0.000000)">
                <g id="Group-8" transform="translate(20.000000, 100.000000)">
                    <g id="Mobile/Icon/Sim" transform="translate(0.000000, 245.000000)" filter="url(#filter-1)">
                        <g id="Color/Slate" transform="translate(3.000000, 2.000000)">
                            <mask id="mask-3" fill="white">
                                <use xlink:href="#path-2"></use>
                            </mask>
                            <use id="Mask" fill="#D83E40" xlink:href="#path-2"></use>
                            <g mask="url(#mask-3)" fill="#2F3042" id="Rectangle">
                                <g transform="translate(-4.000000, -2.000000)">
                                    <rect x="0" y="0" width="24" height="24"></rect>
                                </g>
                            </g>
                        </g>
                    </g>
                </g>
            </g>
        </g>
    </g>
</svg>