<svg width="14" height="20" viewBox="0 0 14 20" fill="none" xmlns="http://www.w3.org/2000/svg">
    <g clip-path="url(#cr802w5wza)" stroke="#fff">
        <path d="M12.775 3.197c0-.53-.216-1.038-.599-1.413a2.066 2.066 0 0 0-1.444-.585H3.268c-.542 0-1.061.21-1.444.585a1.976 1.976 0 0 0-.599 1.413v13.606c0 .53.216 1.038.599 1.413s.902.585 1.444.585h7.464c.542 0 1.061-.21 1.444-.585s.599-.883.599-1.413V3.197zM9.538 7.522l-4.82 4.716" stroke-width="2.4" stroke-linecap="round" stroke-linejoin="round"/>
        <path d="M9.711 11.998a.662.662 0 0 1-.674.649.662.662 0 0 1-.674-.649c0-.348.291-.649.674-.649.383 0 .674.3.674.649zM5.76 7.882a.662.662 0 0 1-.675.65.662.662 0 0 1-.674-.65c0-.348.291-.649.674-.649.383 0 .675.301.675.65z" fill="#fff"/>
    </g>
    <defs>
        <clipPath id="cr802w5wza">
            <path fill="#fff" d="M0 0h14v20H0z"/>
        </clipPath>
    </defs>
</svg>
