<?xml version="1.0" encoding="UTF-8"?>
<svg width="64px" height="64px" viewBox="0 0 64 64" version="1.1" xmlns="http://www.w3.org/2000/svg" xmlns:xlink="http://www.w3.org/1999/xlink">
    <title>support</title>
    <defs>
        <path d="M26.3594771,17.8965577 L26.3594771,15.097492 C27.127451,15.1238516 27.745098,15.7350661 27.745098,16.4962011 C27.745098,17.2573361 27.127451,17.8685506 26.3594771,17.8965577 L26.3594771,17.8965577 Z M5.33006536,17.8636082 C4.55065359,17.8487809 3.92320261,17.2276815 3.92320261,16.4599566 C3.92320261,15.6922317 4.55065359,15.0711323 5.33006536,15.0546575 L5.33006536,17.8636082 Z M26.3594771,11.1353064 L26.3594771,11.0990619 C26.3594771,11.0035082 26.3186275,10.9227817 26.3055556,10.8321704 C26.3153595,10.7563864 26.3496732,10.6888398 26.3496732,10.6114083 C26.3496732,4.75956507 21.6388889,0 15.8480392,0 C10.0588235,0 5.3496732,4.75956507 5.3496732,10.6114083 C5.3496732,10.672365 5.37745098,10.7234368 5.38235294,10.7827461 C5.36928105,10.8717099 5.33006536,10.9524363 5.33006536,11.0479901 L5.33006536,11.0974144 C2.38888889,11.1138892 0,13.5109703 0,16.4599566 C0,19.3974106 2.37091503,21.7846067 5.29738562,21.8192038 L5.29738562,21.8208513 L5.30718954,21.8208513 C5.3251634,21.8208513 5.34313725,21.8257937 5.35947712,21.8257937 C5.37091503,21.8257937 5.38071895,21.8192038 5.39215686,21.8192038 L7.2875817,21.7928441 L7.29084967,21.7928441 C7.29248366,21.7928441 7.29411765,21.7911967 7.29575163,21.7911967 L7.36437908,21.7911967 L7.36437908,21.7780168 C8.41176471,21.7368299 9.25163399,20.8817886 9.25163399,19.8158701 L9.25163399,11.0479901 C9.25163399,10.9886809 9.22385621,10.9359615 9.21895425,10.8766523 C9.23202614,10.7876885 9.27124183,10.706962 9.27124183,10.6114083 C9.27124183,6.94082645 12.2222222,3.95394813 15.8480392,3.95394813 C19.4771242,3.95394813 22.4281046,6.94082645 22.4281046,10.6114083 C22.4281046,10.706962 22.4689542,10.789336 22.4820261,10.8782998 C22.4722222,10.9540838 22.4379085,11.0199829 22.4379085,11.0990619 L22.4379085,23.4666822 L17.9166667,23.4666822 C17.3937908,22.908187 16.6584967,22.5539791 15.8366013,22.5539791 C14.253268,22.5539791 12.9705882,23.8472497 12.9705882,25.4436562 C12.9705882,27.0400628 14.253268,28.3333333 15.8366013,28.3333333 C16.6584967,28.3333333 17.3937908,27.9791255 17.9150327,27.4206303 L24.3986928,27.4206303 C25.4820261,27.4206303 26.3594771,26.5359344 26.3594771,25.4436562 C26.3594771,25.3579874 26.3218954,25.2854983 26.3120915,25.2047719 C26.3218954,25.1240454 26.3594771,25.0515564 26.3594771,24.9658875 L26.3594771,21.8570958 C29.2892157,21.8290887 31.6666667,19.4385975 31.6666667,16.4962011 C31.6666667,13.5554522 29.2892157,11.164961 26.3594771,11.1353064 L26.3594771,11.1353064 Z" id="path-1"></path>
    </defs>
    <g id="24th-Aug" stroke="none" stroke-width="1" fill="none" fill-rule="evenodd">
        <g id="01-Consumer_Web_Desktop_V3" transform="translate(-1134.000000, -660.000000)">
            <g id="2nd" transform="translate(213.000000, 660.000000)">
                <g id="Group-12-Copy-3" transform="translate(891.000000, 0.000000)">
                    <g id="support" transform="translate(30.000000, 0.000000)">
                        <circle id="Oval" fill="#E2EDFB" cx="32" cy="32" r="32"></circle>
                        <g id="Group-28" transform="translate(12.000000, 12.000000)" opacity="0.800000012">
                            <g id="Color/Slate" transform="translate(5.000000, 6.666667)">
                                <mask id="mask-2" fill="white">
                                    <use xlink:href="#path-1"></use>
                                </mask>
                                <use id="Mask" fill="#E72938" xlink:href="#path-1"></use>
                                <g id="Group" mask="url(#mask-2)">
                                    <g transform="translate(-240.000000, -70.498064)" id="Color/Slate">
                                        <rect id="Rectangle" fill="#2F3042" x="0" y="0" width="40" height="40"></rect>
                                    </g>
                                </g>
                                <g id="Group" mask="url(#mask-2)">
                                    <g transform="translate(-5.000000, -6.666667)" id="Color/Slate">
                                        <rect id="Rectangle" fill="#2F3042" x="0" y="0" width="40" height="40"></rect>
                                    </g>
                                </g>
                            </g>
                        </g>
                    </g>
                </g>
            </g>
        </g>
    </g>
</svg>