<?xml version="1.0" encoding="UTF-8"?>
<svg width="40px" height="40px" viewBox="0 0 40 40" version="1.1" xmlns="http://www.w3.org/2000/svg" xmlns:xlink="http://www.w3.org/1999/xlink">
    <title>unlimited-data-desktop</title>
    <g id="Page-1" stroke="none" stroke-width="1" fill="none" fill-rule="evenodd">
        <g id="unlimited-data-desktop">
            <path d="M40,20 C40,31.0454055 31.0454055,40 20,40 C8.95459449,40 -1.28758203e-14,31.0454055 -1.28758203e-14,20 C-1.28758203e-14,8.95459449 8.95459449,5.91965304e-14 20,5.91965304e-14 C31.0454055,5.91965304e-14 40,8.95459449 40,20" id="Fill-1" fill="#2F3043"></path>
            <path d="M20.0002942,6.33578503 C12.4657252,6.33578503 6.33647151,12.4660194 6.33647151,19.9996077 C6.33647151,27.5341767 12.4657252,33.6644111 20.0002942,33.6644111 C27.5348632,33.6644111 33.6641169,27.5341767 33.6641169,19.9996077 C33.6641169,12.4660194 27.5348632,6.33578503 20.0002942,6.33578503 M20.0002942,35.3835442 C11.5174071,35.3835442 4.61635775,28.4824949 4.61635775,19.9996077 C4.61635775,11.5177013 11.5174071,4.61567128 20.0002942,4.61567128 C28.4831813,4.61567128 35.3842307,11.5177013 35.3842307,19.9996077 C35.3842307,28.4824949 28.4831813,35.3835442 20.0002942,35.3835442" id="Fill-3" fill="#FFC600"></path>
            <path d="M11.5726194,11.5725213 C11.8442679,11.3008728 12.2826321,11.3008728 12.5542807,11.5725213 L13.8664313,12.884672 C14.1380798,13.1563205 14.1380798,13.5956654 13.8664313,13.8663332 C13.7310974,14.0016672 13.5535942,14.0693341 13.376091,14.0693341 C13.1985878,14.0693341 13.020104,14.0016672 12.88477,13.8663332 L11.5726194,12.5541826 C11.3019516,12.2825341 11.3019516,11.8431892 11.5726194,11.5725213" id="Fill-5" fill="#FFC600"></path>
            <path d="M10.6321467,20.6942238 L8.77571835,20.6942238 C8.39227224,20.6942238 8.08139649,20.383348 8.08139649,19.9999019 C8.08139649,19.6164558 8.39227224,19.3055801 8.77571835,19.3055801 L10.6321467,19.3055801 C11.0155928,19.3055801 11.3264686,19.6164558 11.3264686,19.9999019 C11.3264686,20.383348 11.0155928,20.6942238 10.6321467,20.6942238" id="Fill-7" fill="#FFC600"></path>
            <path d="M13.8665294,27.11523 L12.5543787,28.4273806 C12.4190448,28.5627145 12.2405609,28.6313622 12.0630578,28.6313622 C11.8855546,28.6313622 11.7080514,28.5627145 11.5727175,28.4273806 C11.3010689,28.1567128 11.3010689,27.7173679 11.5727175,27.4457193 L12.8848681,26.1335687 C13.1565166,25.8629009 13.5948808,25.8629009 13.8665294,26.1335687 C14.1371972,26.4052172 14.1371972,26.8445621 13.8665294,27.11523" id="Fill-9" fill="#FFC600"></path>
            <path d="M20.6943219,31.2243797 C20.6943219,31.6078258 20.3834461,31.9187016 20,31.9187016 C19.6165539,31.9187016 19.3056781,31.6078258 19.3056781,31.2243797 L19.3056781,29.3679514 C19.3056781,28.9845052 19.6165539,28.6736295 20,28.6736295 C20.3834461,28.6736295 20.6943219,28.9845052 20.6943219,29.3679514 L20.6943219,31.2243797 Z" id="Fill-11" fill="#FFC600"></path>
            <path d="M19.3060704,16.0088261 C19.3060704,15.62538 19.6169462,15.3145043 20.0003923,15.3145043 C20.3838384,15.3145043 20.6947141,15.62538 20.6947141,16.0088261 L20.6947141,19.0999314 L26.3728548,16.8855546 C26.7278611,16.7462979 27.1309209,16.9228204 27.2711582,17.2797882 C27.4104148,17.6367559 27.2338923,18.0398156 26.8769246,18.1790723 L20.2524272,20.762185 C20.1710307,20.7935667 20.0847308,20.8102383 20.0003923,20.8102383 C19.8621163,20.8102383 19.7258017,20.7690497 19.60812,20.6886339 C19.4198294,20.5591841 19.3060704,20.344415 19.3060704,20.1159164 L19.3060704,16.0088261 Z" id="Fill-13" fill="#FFC600"></path>
            <path d="M20.6943219,10.6320486 C20.6943219,11.0154948 20.3834461,11.3263705 20,11.3263705 C19.6165539,11.3263705 19.3056781,11.0154948 19.3056781,10.6320486 L19.3056781,8.77562028 C19.3056781,8.39217417 19.6165539,8.08129842 20,8.08129842 C20.3834461,8.08129842 20.6943219,8.39217417 20.6943219,8.77562028 L20.6943219,10.6320486 Z" id="Fill-15" fill="#FFC600"></path>
            <path d="M28.4277729,28.4275767 C28.292439,28.5629107 28.1149358,28.6305776 27.9374326,28.6305776 C27.7589487,28.6305776 27.5814455,28.5629107 27.4461116,28.4275767 L26.133961,27.1154261 C25.8623124,26.8437776 25.8623124,26.4044327 26.133961,26.1337648 C26.4046288,25.8621163 26.8439737,25.8621163 27.1156222,26.1337648 L28.4277729,27.4459155 C28.6984407,27.717564 28.6984407,28.1569089 28.4277729,28.4275767" id="Fill-17" fill="#FFC600"></path>
            <path d="M28.4277729,12.5539865 L27.1156222,13.8661371 C26.9802883,14.001471 26.8018045,14.0701187 26.6243013,14.0701187 C26.4467981,14.0701187 26.2692949,14.001471 26.133961,13.8661371 C25.8623124,13.5954693 25.8623124,13.1561244 26.133961,12.8844758 L27.4461116,11.5723252 C27.7177601,11.3016574 28.1561244,11.3016574 28.4277729,11.5723252 C28.6984407,11.8439737 28.6984407,12.2833186 28.4277729,12.5539865" id="Fill-19" fill="#FFC600"></path>
            <path d="M31.2245759,20.6942238 L29.3681475,20.6942238 C28.9847014,20.6942238 28.6738256,20.383348 28.6738256,19.9999019 C28.6738256,19.6164558 28.9847014,19.3055801 29.3681475,19.3055801 L31.2245759,19.3055801 C31.608022,19.3055801 31.9188977,19.6164558 31.9188977,19.9999019 C31.9188977,20.383348 31.608022,20.6942238 31.2245759,20.6942238" id="Fill-21" fill="#FFC600"></path>
        </g>
    </g>
</svg>