<?xml version="1.0" encoding="UTF-8"?>
<svg width="36px" height="36px" viewBox="0 0 24 24" version="1.1" xmlns="http://www.w3.org/2000/svg" xmlns:xlink="http://www.w3.org/1999/xlink">
    <title>C84816BA-7C32-44D6-9182-6B565D9A36AD</title>
    <defs>
        <filter id="filter-1">
            <feColorMatrix in="SourceGraphic" type="matrix" values="0 0 0 0 1.000000 0 0 0 0 1.000000 0 0 0 0 1.000000 0 0 0 1.000000 0"></feColorMatrix>
        </filter>
        <path d="M9.35964912,8.80692982 C9.96491228,8.80692982 10.5526316,8.92973684 11.0789474,9.14903509 C11.5437719,8.93885965 12.0700877,8.81605263 12.6139474,8.81605263 L12.6139474,8.81605263 L16.2981579,8.81605263 C18.3332456,8.81605263 19.9911404,10.4739474 19.9911404,12.5090351 C19.9911404,13.8774561 18.7279825,14.9827193 17.1841228,14.9827193 L17.1841228,14.9827193 L13.4122807,14.9823684 C12.9210526,15.7455263 12.0526316,16.2542982 11.0701754,16.2542982 L11.0701754,16.2542982 L2.80701754,16.2542982 C1.25438596,16.2542982 1.42108547e-14,14.9911404 1.42108547e-14,13.4472807 L1.42108547e-14,13.4472807 L1.42108547e-14,13.3332456 C1.42108547e-14,10.8332456 2.02631579,8.80692982 4.51754386,8.80692982 L4.51754386,8.80692982 Z M9.3595614,10.9125439 L4.51754386,10.912193 C3.18421053,10.912193 2.10526316,11.9999123 2.10526316,13.3332456 L2.10526316,13.3332456 L2.10526316,13.4472807 C2.10526316,13.8244737 2.42105263,14.1490351 2.80701754,14.1490351 L2.80701754,14.1490351 L11.0700877,14.149386 C11.1665789,14.149386 11.2586842,14.1291009 11.3425658,14.0927796 L11.4236517,14.0509194 C11.6315789,13.9268129 11.7719298,13.6987427 11.7719298,13.4472807 L11.7719298,13.4472807 L11.7719298,13.3332456 C11.7719298,13.1753509 11.754386,13.0262281 11.7280702,12.8771053 L11.742,12.97 L11.7279825,12.8774561 C11.6491228,12.4648246 11.4649123,12.0876316 11.2105263,11.780614 C11.0986842,11.6468421 10.9736842,11.5256798 10.8374452,11.4191831 L10.6974431,11.3180019 C10.3147271,11.060692 9.85663743,10.9125439 9.3595614,10.9125439 L9.3595614,10.9125439 Z M16.2981579,10.9213158 L13.1760608,10.9219429 C13.5441263,11.500663 13.7807413,12.166979 13.8508772,12.8771053 L13.8508772,12.8771053 L17.1841228,12.8774561 C17.6139474,12.8774561 17.8858772,12.6318421 17.8858772,12.5090351 C17.8858772,11.6318421 17.1753509,10.9213158 16.2981579,10.9213158 L16.2981579,10.9213158 Z M14.3510526,1.48245614 C16.2282456,1.48245614 17.7457895,3 17.7457895,4.85964912 C17.7457895,6.72807018 16.2282456,8.24561404 14.3685965,8.24561404 L14.3685965,8.24561404 L14.3510526,8.24561404 C12.4826316,8.24561404 10.9650877,6.72807018 10.9650877,4.85964912 C10.9650877,3 12.4826316,1.48245614 14.3510526,1.48245614 Z M6.79833333,0 C9.08780702,0 10.9299123,1.85087719 10.9299123,4.11403509 C10.9299123,6.37719298 9.08780702,8.22807018 6.82464912,8.22807018 L6.82464912,8.22807018 L6.79833333,8.22807018 C4.52640351,8.22807018 2.68429825,6.37719298 2.68429825,4.11403509 C2.68429825,1.85087719 4.52640351,0 6.79833333,0 Z M14.3685965,3.5877193 C13.6405263,3.5877193 13.0703509,4.15789474 13.0703509,4.85964912 C13.0703509,5.57017544 13.6405263,6.14035088 14.3510526,6.14035088 L14.3510526,6.14035088 L14.3685965,6.14035088 C15.0703509,6.14035088 15.6405263,5.57017544 15.6405263,4.85964912 C15.6405263,4.15789474 15.0703509,3.5877193 14.3685965,3.5877193 Z M6.82464912,2.10526316 C5.69307018,2.10526316 4.7895614,3.00877193 4.7895614,4.11403509 C4.7895614,5.21929825 5.69307018,6.12280702 6.79833333,6.12280702 L6.79833333,6.12280702 L6.82464912,6.12280702 C7.92991228,6.12280702 8.82464912,5.21929825 8.82464912,4.11403509 C8.82464912,3.00877193 7.92991228,2.10526316 6.82464912,2.10526316 Z" id="path-2"></path>
    </defs>
    <g id="Menu" stroke="none" stroke-width="1" fill="none" fill-rule="evenodd">
        <g id="hamburger-menu-mobile" transform="translate(-103.000000, -100.000000)">
            <g id="Group-29" transform="translate(83.000000, 0.000000)">
                <g id="Mobile/Icon/Others" transform="translate(20.000000, 100.000000)" filter="url(#filter-1)">
                    <g id="Color/Slate" transform="translate(2.000000, 3.000000)">
                        <mask id="mask-3" fill="white">
                            <use xlink:href="#path-2"></use>
                        </mask>
                        <use id="Mask" fill="#EE2737" xlink:href="#path-2"></use>
                        <g mask="url(#mask-3)" fill="#2F3042" id="Rectangle">
                            <g transform="translate(0.000000, -1.666667)">
                                <rect x="0" y="0" width="20" height="20"></rect>
                            </g>
                        </g>
                    </g>
                </g>
            </g>
        </g>
    </g>
</svg>