<?xml version="1.0" encoding="UTF-8"?>
<svg width="20px" height="20px" viewBox="0 0 20 20" version="1.1" xmlns="http://www.w3.org/2000/svg" xmlns:xlink="http://www.w3.org/1999/xlink">
    <title>slate iconColor/Slate</title>
    <defs>
        <path d="M5.94176713,0 C5.50040887,0 5.05804064,0.102020202 4.66011123,0.293939394 L1.68069049,1.6969697 C0.544470718,2.25555556 -0.109991871,3.43838384 0.0152447976,4.65656566 C0.289957489,7.26969697 1.39789801,11.1575758 5.119649,14.8787879 C8.84039002,18.6020202 12.7287866,19.710101 15.3345172,19.9838384 C15.4415744,19.9949495 15.5425717,20 15.6415491,20 C16.771709,20 17.7837021,19.3707071 18.2826288,18.3565657 L19.703661,15.340404 C20.3591336,13.9848485 19.8965659,12.3656566 18.6189499,11.5616162 L15.7445663,9.71111111 C15.2496795,9.4020202 14.7083339,9.24545455 14.1548686,9.24545455 C13.3691095,9.24545455 12.6287992,9.55151515 12.0712941,10.1080808 L11.6875043,10.4919192 C11.3259339,10.3242424 10.8815457,10.0444444 10.417968,9.58080808 C9.95540035,9.11818182 9.6756378,8.67373737 9.50697228,8.31212121 L9.8897521,7.92929293 C10.8674061,6.95252525 11.0380915,5.45151515 10.3048511,4.28080808 L8.42327111,1.35757576 C7.89808509,0.518181818 6.96486991,0 5.94176713,0 M5.94176713,2.42424242 C6.11649248,2.42424242 6.28717794,2.51212121 6.38514533,2.67070707 L8.25056571,5.56666667 C8.37984227,5.77373737 8.34954307,6.04141414 8.17683767,6.21414141 L7.00526884,7.38585859 C6.8901319,7.4989899 6.83559335,7.65959596 6.85579281,7.82020202 C6.93053083,8.4 7.25675215,9.84747475 8.70404364,11.2959596 C10.1513351,12.7434343 11.5996366,13.069697 12.1793612,13.1444444 C12.2005706,13.1474747 12.2238,13.1484848 12.2450094,13.1484848 C12.3833758,13.1484848 12.5166922,13.0939394 12.6136496,12.9939394 L13.7852185,11.8232323 C13.8862158,11.7222222 14.0195322,11.6707071 14.1548686,11.6707071 C14.2508161,11.6707071 14.3467635,11.6959596 14.4316013,11.7505051 L17.3282042,13.6151515 C17.5564581,13.7575758 17.638266,14.0505051 17.5180792,14.2909091 L16.1071467,17.2848485 C16.020289,17.4646465 15.8384938,17.5757576 15.6415491,17.5757576 C15.6233696,17.5757576 15.60519,17.5747475 15.5880205,17.5727273 C14.0962902,17.4161616 10.4331176,16.7676768 6.8335734,13.1656566 C3.23301919,9.56464646 2.58360647,5.9 2.42706063,4.40909091 C2.40383125,4.19292929 2.51896819,3.98585859 2.713893,3.89090909 L5.70846334,2.47979798 C5.78320135,2.44242424 5.86298923,2.42424242 5.94176713,2.42424242" id="path-1"></path>
    </defs>
    <g id="UI" stroke="none" stroke-width="1" fill="none" fill-rule="evenodd">
        <g id="Color/Slate">
            <mask id="mask-2" fill="white">
                <use xlink:href="#path-1"></use>
            </mask>
            <g id="Mask"></g>
            <g id="Group" mask="url(#mask-2)">
                <g transform="translate(-2.000000, -2.000000)">
                    <rect id="Rectangle" fill="#2F3042" x="0" y="0" width="24" height="24"></rect>
                </g>
            </g>
        </g>
    </g>
</svg>