<?xml version="1.0" encoding="UTF-8"?>
<svg width="40px" height="40px" viewBox="0 0 40 40" version="1.1" xmlns="http://www.w3.org/2000/svg" xmlns:xlink="http://www.w3.org/1999/xlink">
    <title>wdr-desktop</title>
    <defs>
        <polygon id="path-1" points="0 0 40 0 40 40 0 40"></polygon>
    </defs>
    <g id="Page-1" stroke="none" stroke-width="1" fill="none" fill-rule="evenodd">
        <g id="wdr-desktop">
            <path d="M19.9997463,0 C8.95395897,0 0,8.95423924 0,19.9997463 C0,31.0452533 8.95395897,40 19.9997463,40 C31.0455336,40 40,31.0452533 40,19.9997463 C40,8.95423924 31.0455336,0 19.9997463,0 L19.9997463,0 Z" id="Path" fill="#2F3043"></path>
            <mask id="mask-2" fill="white">
                <use xlink:href="#path-1"></use>
            </mask>
            <g id="Clip-2"></g>
            <path d="M26.6783819,35.2372728 C24.4587772,36.2775643 22.1013621,36.7741935 19.7701966,36.7741935 C15.661631,36.7741935 11.6363574,35.2281696 8.57928979,32.3980911 L7.04520319,33.9264144 L5.16129032,27.5784613 L11.080068,29.9053361 L9.66309497,31.3178467 C14.0079069,35.3070639 20.488022,36.4485019 26.0317334,33.851566 C32.7359796,30.7104621 36.1342919,23.0091691 33.9374031,15.9380187 L35.3952649,15.483871 C37.8177992,23.2812531 34.0706703,31.7735116 26.6783819,35.2372728 L26.6783819,35.2372728 Z" id="Path" fill="#FFC600" mask="url(#mask-2)"></path>
            <path d="M11.6129032,16.96739 C14.003971,14.4638189 16.2904794,12.0703711 18.5759262,9.67741935 C18.62051,9.68436407 18.6650937,9.69130879 18.7096774,9.69825351 L18.7096774,30.3225806 L15.4991182,30.3225806 C15.4874415,30.1162233 15.4662112,29.910362 15.4662112,29.7040046 C15.4640881,25.6785479 15.4646189,21.6525951 15.4646189,17.6271383 L15.4646189,16.96739 L11.6129032,16.96739 Z" id="Path" fill="#FFC600" mask="url(#mask-2)"></path>
            <path d="M27.7419355,22.9560601 C27.5382871,23.1856762 27.4252675,23.3227531 27.3015858,23.4519121 C25.2400454,25.5951609 23.1769056,27.7364301 21.1169646,29.8806686 C20.984753,30.0182403 20.8759984,30.1746168 20.7565815,30.3225806 L20.6451613,30.3225806 L20.6451613,9.67741935 L23.8822115,9.67741935 L23.8822115,22.9560601 L27.7419355,22.9560601 Z" id="Path" fill="#FFC600" mask="url(#mask-2)"></path>
            <path d="M12.7782053,4.76288845 C19.3500273,1.7154479 27.1045732,3.33272551 31.9181267,8.43438171 L33.5886348,7.09019037 L34.8387097,13.5957123 L29.1230614,10.6832978 L30.7185651,9.39979226 C26.3484055,4.83368859 19.3581911,3.39998565 13.4323261,6.14854844 C6.65589998,9.29005204 3.21997999,16.9905793 5.44103133,24.061491 L3.96747372,24.516129 C1.51885774,16.7185044 5.30632939,8.22703842 12.7782053,4.76288845 L12.7782053,4.76288845 Z" id="Path" fill="#FFC600" mask="url(#mask-2)"></path>
        </g>
    </g>
</svg>