<svg width="24" height="24" viewBox="0 0 24 24" fill="none" xmlns="http://www.w3.org/2000/svg">
<rect x="0.5" y="0.5" width="23" height="23" rx="11.5" fill="white"/>
<path d="M10.555 9.99701C10.0769 9.75792 9.5571 9.59506 9.00961 9.5119C8.72894 9.46685 8.46212 9.66436 8.41708 9.9485C8.37549 10.2326 8.56954 10.496 8.85368 10.541C9.29028 10.6069 9.70956 10.7385 10.0907 10.9291C10.1635 10.9672 10.2432 10.9846 10.3229 10.9846C10.5135 10.9846 10.6971 10.8772 10.7872 10.697C10.9154 10.4405 10.8115 10.1287 10.555 10.0005V9.99701Z" fill="#EE2737"/>
<path d="M8.85368 11.882C9.29375 11.9479 9.70956 12.0796 10.0907 12.2701C10.1635 12.3083 10.2432 12.3256 10.3229 12.3256C10.5135 12.3256 10.6971 12.2216 10.7872 12.038C10.9154 11.7816 10.8115 11.4697 10.555 11.3415C10.0769 11.1024 9.5571 10.9395 9.00961 10.8564C8.72894 10.8148 8.46212 11.0088 8.41708 11.293C8.37549 11.5771 8.56954 11.8405 8.85368 11.8855V11.882Z" fill="#EE2737"/>
<path d="M10.555 12.6859C10.0769 12.4469 9.5571 12.284 9.00961 12.2008C8.72894 12.1592 8.46212 12.3533 8.41708 12.6374C8.37549 12.9216 8.56954 13.1849 8.85368 13.23C9.29375 13.2958 9.70956 13.4275 10.0907 13.6181C10.1635 13.6562 10.2432 13.6735 10.3229 13.6735C10.5135 13.6735 10.6971 13.5661 10.7872 13.3859C10.9154 13.1295 10.8115 12.8176 10.555 12.6894V12.6859Z" fill="#EE2737"/>
<path d="M16.8477 7.08633C15.1013 6.80219 13.3237 7.2284 12.0035 8.23328C10.6832 7.2284 8.90564 6.80219 7.15923 7.08633C6.90628 7.12791 6.72263 7.34621 6.72263 7.59916V15.1981C6.72263 15.3575 6.79539 15.51 6.9236 15.607C7.05181 15.704 7.21467 15.7387 7.3706 15.7006C8.82941 15.3298 10.4303 15.7664 11.6569 16.8683C11.6569 16.8683 11.6569 16.8683 11.6604 16.8683C11.6985 16.903 11.7436 16.9307 11.7921 16.955C11.799 16.955 11.8059 16.9584 11.8094 16.9619C11.8163 16.9619 11.8267 16.9688 11.8337 16.9688C11.8891 16.9861 11.9445 17 12 17C12.0554 17 12.1143 16.9896 12.1663 16.9688C12.1732 16.9688 12.1836 16.9653 12.1906 16.9619C12.1975 16.9619 12.2044 16.9619 12.2079 16.955C12.2564 16.9342 12.3014 16.903 12.3396 16.8683C12.3396 16.8683 12.3396 16.8683 12.343 16.8683C13.5662 15.7664 15.1706 15.3298 16.6294 15.7006C16.7853 15.7387 16.9482 15.7075 17.0764 15.607C17.2046 15.51 17.2773 15.3575 17.2773 15.1981V7.59916C17.2773 7.34621 17.0937 7.12791 16.8407 7.08633H16.8477ZM8.4136 14.5328C8.1953 14.5328 7.97699 14.5467 7.76216 14.5744V8.06002C9.13434 7.94567 10.4823 8.33723 11.4837 9.1446V15.4407C10.5377 14.8482 9.47392 14.5328 8.4136 14.5328V14.5328ZM16.2447 14.5744C14.973 14.4185 13.6632 14.7269 12.5232 15.4407V9.1446C13.5246 8.33723 14.8726 7.94567 16.2447 8.06002V14.5744V14.5744Z" fill="#EE2737"/>
<path d="M14.9938 9.29358C14.4498 9.37674 13.9301 9.5396 13.4484 9.7787C13.2717 9.86532 13.1608 10.0455 13.1608 10.243V11.5875C13.1608 11.7677 13.2544 11.934 13.4068 12.031C13.49 12.083 13.587 12.1072 13.6806 12.1072C13.7603 12.1072 13.84 12.0899 13.9127 12.0518C14.2974 11.8612 14.7132 11.7296 15.1498 11.6637C15.4027 11.6256 15.5898 11.4073 15.5898 11.1509V9.80642C15.5898 9.65395 15.524 9.51188 15.4097 9.41139C15.2953 9.31091 15.1428 9.26933 14.9938 9.29358ZM14.5538 10.7247C14.436 10.7524 14.3181 10.787 14.2038 10.8217V10.5791C14.3181 10.5341 14.436 10.4925 14.5538 10.4544V10.7212V10.7247Z" fill="#EE2737"/>
<path d="M14.9938 12.2008C14.4498 12.284 13.9301 12.4468 13.4484 12.6859C13.192 12.8141 13.088 13.126 13.2162 13.3824C13.3063 13.5661 13.49 13.67 13.6806 13.67C13.7568 13.67 13.8365 13.6527 13.9127 13.6146C14.2939 13.424 14.7132 13.2923 15.1498 13.2265C15.4339 13.1814 15.628 12.9181 15.5864 12.634C15.5413 12.3498 15.2745 12.1558 14.9938 12.1973V12.2008Z" fill="#EE2737"/>
<rect x="0.5" y="0.5" width="23" height="23" rx="11.5" stroke="#2F3043"/>
</svg>
