<svg width="42" height="42" viewBox="0 0 42 42" fill="none" xmlns="http://www.w3.org/2000/svg">
<rect x="0.875" y="0.875" width="40.25" height="40.25" rx="20.125" fill="white"/>
<path d="M18.4713 17.4948C17.6345 17.0764 16.7249 16.7914 15.7668 16.6458C15.2756 16.567 14.8087 16.9126 14.7299 17.4099C14.6571 17.9071 14.9967 18.368 15.4939 18.4468C16.258 18.562 16.9917 18.7925 17.6588 19.126C17.7861 19.1927 17.9256 19.223 18.065 19.223C18.3986 19.223 18.7199 19.035 18.8776 18.7197C19.102 18.271 18.9201 17.7252 18.4713 17.5008V17.4948Z" fill="#EE2737"/>
<path d="M15.4939 20.7936C16.2641 20.9088 16.9917 21.1392 17.6588 21.4727C17.7861 21.5394 17.9256 21.5698 18.065 21.5698C18.3986 21.5698 18.7199 21.3878 18.8776 21.0664C19.102 20.6177 18.9201 20.072 18.4713 19.8476C17.6345 19.4292 16.7249 19.1442 15.7668 18.9986C15.2756 18.9259 14.8087 19.2655 14.7299 19.7627C14.6571 20.2599 14.9967 20.7208 15.4939 20.7996V20.7936Z" fill="#EE2737"/>
<path d="M18.4713 22.2004C17.6345 21.782 16.7249 21.497 15.7668 21.3514C15.2756 21.2787 14.8087 21.6182 14.7299 22.1155C14.6571 22.6127 14.9967 23.0736 15.4939 23.1524C16.2641 23.2676 16.9917 23.4981 17.6588 23.8316C17.7861 23.8983 17.9256 23.9286 18.065 23.9286C18.3986 23.9286 18.7199 23.7406 18.8776 23.4253C19.102 22.9766 18.9201 22.4308 18.4713 22.2064V22.2004Z" fill="#EE2737"/>
<path d="M29.4834 12.4011C26.4272 11.9038 23.3164 12.6497 21.006 14.4082C18.6957 12.6497 15.5849 11.9038 12.5286 12.4011C12.086 12.4738 11.7646 12.8559 11.7646 13.2985V26.5968C11.7646 26.8757 11.8919 27.1425 12.1163 27.3123C12.3407 27.4821 12.6257 27.5427 12.8985 27.476C15.4515 26.8272 18.253 27.5912 20.3996 29.5196C20.3996 29.5196 20.3996 29.5196 20.4057 29.5196C20.4724 29.5802 20.5512 29.6287 20.6361 29.6712C20.6483 29.6712 20.6604 29.6772 20.6664 29.6833C20.6786 29.6833 20.6968 29.6954 20.7089 29.6954C20.8059 29.7257 20.9029 29.75 21 29.75C21.097 29.75 21.2001 29.7318 21.291 29.6954C21.3032 29.6954 21.3214 29.6894 21.3335 29.6833C21.3456 29.6833 21.3577 29.6833 21.3638 29.6712C21.4487 29.6348 21.5275 29.5802 21.5942 29.5196C21.5942 29.5196 21.5942 29.5196 21.6003 29.5196C23.7409 27.5912 26.5485 26.8272 29.1014 27.476C29.3743 27.5427 29.6593 27.4882 29.8836 27.3123C30.108 27.1425 30.2353 26.8757 30.2353 26.5968V13.2985C30.2353 12.8559 29.914 12.4738 29.4713 12.4011H29.4834ZM14.7238 25.4325C14.3418 25.4325 13.9597 25.4567 13.5838 25.5052V14.105C15.9851 13.9049 18.344 14.5902 20.0964 16.003V27.0212C18.441 25.9843 16.5794 25.4325 14.7238 25.4325V25.4325ZM28.4283 25.5052C26.2028 25.2324 23.9107 25.7721 21.9156 27.0212V16.003C23.6681 14.5902 26.027 13.9049 28.4283 14.105V25.5052V25.5052Z" fill="#EE2737"/>
<path d="M26.2392 16.2638C25.2872 16.4093 24.3776 16.6943 23.5347 17.1127C23.2254 17.2643 23.0314 17.5796 23.0314 17.9253V20.2781C23.0314 20.5934 23.1951 20.8845 23.4619 21.0543C23.6075 21.1452 23.7773 21.1877 23.941 21.1877C24.0805 21.1877 24.2199 21.1574 24.3473 21.0907C25.0204 20.7571 25.748 20.5267 26.5121 20.4115C26.9548 20.3448 27.2822 19.9628 27.2822 19.514V17.1612C27.2822 16.8944 27.167 16.6458 26.9669 16.4699C26.7668 16.2941 26.5 16.2213 26.2392 16.2638ZM25.4691 18.7682C25.2629 18.8167 25.0568 18.8773 24.8566 18.938V18.5135C25.0568 18.4347 25.2629 18.3619 25.4691 18.2952V18.7621V18.7682Z" fill="#EE2737"/>
<path d="M26.2392 21.3514C25.2872 21.497 24.3776 21.782 23.5347 22.2004C23.086 22.4247 22.9041 22.9705 23.1284 23.4192C23.2861 23.7406 23.6075 23.9225 23.941 23.9225C24.0744 23.9225 24.2139 23.8922 24.3473 23.8255C25.0143 23.492 25.748 23.2616 26.5121 23.1463C27.0093 23.0675 27.3489 22.6067 27.2762 22.1094C27.1973 21.6122 26.7304 21.2726 26.2392 21.3454V21.3514Z" fill="#EE2737"/>
<rect x="0.875" y="0.875" width="40.25" height="40.25" rx="20.125" stroke="#2F3043" stroke-width="1.75"/>
</svg>
