<?xml version="1.0" encoding="UTF-8"?>
<svg width="24px" height="24px" viewBox="0 0 24 24" version="1.1" xmlns="http://www.w3.org/2000/svg" xmlns:xlink="http://www.w3.org/1999/xlink">
    <title>youtube</title>
    <g id="Page-1" stroke="none" stroke-width="1" fill="none" fill-rule="evenodd">
        <g id="youtube" fill-rule="nonzero">
            <rect id="Rectangle-Copy-3" fill="#D8D8D8" opacity="0" x="0" y="0" width="24" height="24"></rect>
            <rect id="Rectangle" fill="#2F3044" x="2" y="2" width="20" height="20" rx="4"></rect>
            <g id="linkedin" transform="translate(3.000000, 6.000000)" fill="#FFFFFF">
                <ellipse id="Oval" cx="9" cy="6" rx="9" ry="6"></ellipse>
            </g>
            <polygon id="Path" fill="#2F3044" points="10.754425 13.8734741 14.0072937 12 10.754425 10.1265259"></polygon>
            <path d="M12,2 C6.47799684,2 2,6.47799684 2,12 C2,17.5220032 6.47799684,22 12,22 C17.5220032,22 22,17.5220032 22,12 C22,6.47799684 17.5220032,2 12,2 Z M18.2485808,12.0102234 C18.2485808,12.0102234 18.2485808,14.0382691 17.9912109,15.0162048 C17.8470154,15.5514832 17.4249573,15.9735413 16.8896789,16.1175842 C15.9117432,16.375 12,16.375 12,16.375 C12,16.375 8.09848023,16.375 7.11032105,16.1073609 C6.57504273,15.9633179 6.15298461,15.5411072 6.00878906,15.0058289 C5.75137328,14.0382691 5.75137328,12 5.75137328,12 C5.75137328,12 5.75137328,9.97210695 6.00878906,8.99417113 C6.15283203,8.45889281 6.58526609,8.02645875 7.11032105,7.88241578 C8.08825684,7.625 12,7.625 12,7.625 C12,7.625 15.9117432,7.625 16.8896789,7.89263914 C17.4249573,8.03668211 17.8470154,8.45889281 17.9912109,8.99417113 C18.2588501,9.97210695 18.2485808,12.0102234 18.2485808,12.0102234 L18.2485808,12.0102234 Z" id="Shape" fill="#2F3044"></path>
        </g>
    </g>
</svg>